<?xml version="1.0" standalone="no"?>
<!DOCTYPE svg PUBLIC "-//W3C//DTD SVG 20010904//EN"
 "http://www.w3.org/TR/2001/REC-SVG-20010904/DTD/svg10.dtd">
<svg version="1.0" xmlns="http://www.w3.org/2000/svg"
 width="700.000000pt" height="700.000000pt" viewBox="0 0 700.000000 700.000000"
 preserveAspectRatio="xMidYMid meet">
<metadata>
Created by potrace 1.11, written by Peter Selinger 2001-2013
</metadata>
<g transform="translate(0.000000,700.000000) scale(0.100000,-0.100000)"
fill="#000000" stroke="none">
<path d="M3 4498 c1 -1377 6 -2518 10 -2536 3 -18 9 -52 12 -75 4 -23 9 -58
12 -77 2 -19 18 -84 33 -145 114 -442 366 -845 710 -1135 36 -30 67 -57 70
-60 26 -29 218 -152 345 -221 129 -70 405 -172 521 -193 16 -2 64 -12 108 -20
113 -23 220 -31 401 -31 142 1 249 7 312 19 11 3 38 7 59 10 195 31 457 122
653 227 199 106 363 229 526 393 337 339 549 755 621 1220 3 21 7 47 9 58 10
49 18 254 19 480 l1 246 -922 0 c-676 0 -923 -4 -924 -12 0 -6 -1 -123 -3
-261 -2 -232 -4 -254 -25 -307 -27 -71 -116 -166 -182 -196 -170 -77 -366 -21
-464 132 -64 101 -60 -69 -60 2574 l1 2412 -923 0 -924 0 4 -2502z"/>
<path d="M4628 6996 c-1 -2 -34 -6 -73 -10 -38 -3 -81 -8 -95 -10 -14 -3 -38
-7 -55 -9 -16 -3 -52 -10 -80 -17 -27 -6 -57 -13 -65 -15 -134 -28 -375 -120
-503 -192 -33 -18 -61 -33 -64 -33 -3 0 -55 -33 -116 -74 -386 -256 -679 -616
-848 -1046 -43 -107 -91 -272 -109 -370 -6 -30 -12 -64 -14 -76 -2 -12 -7 -45
-10 -75 -4 -30 -9 -74 -12 -99 -4 -37 -8 -507 -5 -601 l1 -26 920 0 920 0 1
31 c0 17 1 135 3 261 3 269 12 306 97 399 169 185 475 146 587 -76 18 -34 36
-85 40 -113 4 -27 7 -1129 7 -2447 l-1 -2398 923 0 923 0 -3 2503 c-1 1376 -6
2520 -10 2542 -4 22 -9 51 -12 65 -3 14 -7 44 -10 67 -7 58 -58 252 -90 343
-31 88 -29 85 -93 221 -210 448 -597 833 -1054 1049 -191 90 -462 168 -678
195 -55 7 -415 16 -422 11z"/>
<path d="M2267 3928 c-12 -7 -18 -831 -6 -850 7 -11 2466 -14 2477 -3 3 3 6
197 6 430 l1 425 -620 0 c-341 0 -896 1 -1233 3 -338 1 -619 -1 -625 -5z"/>
</g>
</svg>
