<svg xmlns="http://www.w3.org/2000/svg" viewBox="0 0 331.98 331.98"><defs></defs><style>.cls-1{isolation:isolate;}.cls-2{fill:#84c4d6;}.cls-3,.cls-51{fill:#d6e1e9;}.cls-15,.cls-3,.cls-61,.cls-70{mix-blend-mode:multiply;}.cls-4{fill:#e6dec9;}.cls-5{fill:#224061;}.cls-6{fill:#c1c2c4;}.cls-7{fill:#7f8c8d;}.cls-8{fill:#fff;}.cls-9{fill:#a7a9ac;}.cls-10{fill:#6a872e;}.cls-11{fill:#77ab24;}.cls-12{fill:#7a9c35;}.cls-13{fill:#8ab03c;}.cls-14{fill:#9ac543;}.cls-15{fill:#aabbbd;}.cls-16{fill:#f2ece1;}.cls-17{fill:#1499d6;}.cls-18{fill:#4d9cac;}.cls-19{fill:#67c1cf;}.cls-20{fill:#99d7e8;}.cls-21{fill:#cbfffa;}.cls-22{fill:#16b4c1;}.cls-23{fill:#14a4b0;}.cls-24,.cls-70{fill:#caba9b;}.cls-25{fill:#faf1e1;}.cls-26{fill:#8f8477;}.cls-27{fill:#aea391;}.cls-28{fill:#d7ccbc;}.cls-29{fill:#e8dccb;}.cls-30{fill:#e3d7c6;}.cls-31{fill:#c7c37f;}.cls-32{fill:#d4d2b2;}.cls-33{fill:#f2eccd;}.cls-34{fill:#e8e8c4;}.cls-35{fill:#81aa6c;}.cls-36{fill:#ccbea7;}.cls-37{fill:#f4de9d;}.cls-38{fill:#fae9b1;}.cls-39{fill:#e6c677;}.cls-40{fill:#f4f4f4;}.cls-41{fill:#c5ced6;}.cls-42{fill:#e4ebf2;}.cls-43{fill:#fcac0d;}.cls-44{fill:#ffe080;}.cls-45{fill:#fed24b;}.cls-46{fill:#f0f5f9;}.cls-47{fill:#4a5872;}.cls-48{fill:#e86e28;}.cls-49{fill:#fa965d;}.cls-50{fill:#de8a59;}.cls-52{fill:#f1e580;}.cls-53{fill:#07d9e3;}.cls-54{fill:#ffbf40;}.cls-55{fill:#37445c;}.cls-56{fill:#24c9d1;}.cls-57{fill:#e0990c;}.cls-58{fill:#d67574;}.cls-59{fill:#f28383;}.cls-60{fill:#eb9996;}.cls-61{fill:#e6ded1;}.cls-62{fill:#ea4b2e;}.cls-63{fill:#fbf7eb;}.cls-64{fill:#d43d22;}.cls-65{fill:#e3dec1;}.cls-66{fill:#eae1ce;}.cls-67{fill:#e0bd79;}.cls-68{fill:#f2dcb3;}.cls-69{fill:#6fadc4;}.cls-71{fill:#fae6c0;}.cls-72{fill:#8ac1db;}.cls-73{fill:#ede4dd;}.cls-74{fill:#fdfaf7;}.cls-75{fill:#f4efe9;}

.car-graph {
  animation: grow-graph 5s linear;
  transform-origin: 50% 100%;
}
.truck-graph {
  animation: grow-graph 6.5s linear;
  transform-origin: 50% 100%;
}
@keyframes grow-graph {
  0% {
    transform: scale(0) translateY(60px);
    opacity: 0;
  }
  80%{
    opacity: 0;
    transform: scale(0) translateY(60px);
  } 
  85% {
    opacity: 1;
    transform: scale(0) translateY(60px);
  }
  100% {
    opacity: 1;
    transform: scale(1) translateY(0px);
  }
}
.car {
  animation: car-movement 3s ease-in;
  transform: translateX(0px) translateY(10px);
}
@keyframes car-movement {
  0% {
    transform: translateX(-40px) translateY(-14px);
  }
  100% {
    transform: translateX(0px) translateY(10px);
  }
}
.cloud {
  animation: cloud-movement 30s;
}
@keyframes cloud-movement {
  0% {
    transform: translateX(0px) translateY(0px);
  }
  100% {
    transform: translate(190px,96px);
  }
}
.light-on {
  background: #000;
  animation: lights-on 3s linear 3.5s infinite;
}
@keyframes lights-on {
  0% {
     fill: #f4de9d;
  }
  100% {
     fill: #f4de9d;
  }
}
.truck {
  animation: truck-movement 4s ease-in;
  transform: translate(-20px, -10px);
}
@keyframes truck-movement {
  0% {
    transform: translate(55px, 27px);
  }
  100% {
    transform: translate(-20px, -10px);
  }
}
.building {
   animation: building-construct 5s;
} 
@keyframes building-construct{
  0% {
       transform: scale3d(0.8,0.7,1);
       transform-origin: 212px 146px;
  }
  90% {
        transform: scale3d(0.8,0.7,1);
        transform-origin:212px 146px;
  }
  100% {
        transform: scale3d(1,1,1);
        transform-origin: 212px 146px;
  }
}
</style><title>imagefortest</title><g class="cls-1"><g id="Background"><rect class="cls-2" width="331.98" height="331.98"/></g><g id="Tablet_with_map" data-name="Tablet with map"><path class="cls-3" d="M570.8,337.44c0-1.81-1.55-3.71-4.51-5.17L453.61,275.93c-5.46-2.73-13.77-3-18.53-.62l-166,83c-4.61,2.3-7.26,5.21-7.5,8.17a.21.21,0,0,0,0,.07.94.94,0,0,0,0,.26v.27c.07,2.84,2.35,5.67,7.35,8l99,49.52c8.81,4.77,19.89,4.75,28.72,1.89.68-.22,1.34-.46,2-.72,1-.38,1.95-.8,2.87-1.25L551,349.78l16.5-8.25c1.92-1,3-2.21,3.24-3.55,0,0,0-.09,0-.14a2.9,2.9,0,0,0,0-.38Z" transform="translate(-252.47 -137.02)"/><path class="cls-4" d="M570.8,313.39v18.48h0a.18.18,0,0,1,0,.06c-.21,1.34-1.32,2.59-3.24,3.55l-166,83a30.86,30.86,0,0,1-2.87,1.26c-.64.26-1.3.5-2,.72-8.83,2.87-19.92,2.88-28.72-1.89l-.38-.19L268.95,369c-5-2.37-7.3-5.19-7.36-8v-.26a.87.87,0,0,1,0-.16.54.54,0,0,1,0-.12l0-17.5c.07,2.84,2.35,5.67,7.35,8l98.66,49.33.38.19c8.81,4.77,19.89,4.75,28.72,1.89.68-.22,1.34-.46,2-.72,1-.38,1.95-.8,2.87-1.25l166-83c1.92-1,3-2.21,3.24-3.55,0,0,0-.09,0-.14A2.92,2.92,0,0,0,570.8,313.39Z" transform="translate(-252.47 -137.02)"/><path class="cls-5" d="M354.75,384.86c1.87-.93,1.87-2.45,0-3.38l-47.38-23.69a8.51,8.51,0,0,0-6.77,0h0c-1.87.94-1.87,2.45,0,3.38L348,384.86a8.52,8.52,0,0,0,6.77,0Z" transform="translate(-252.47 -137.02)"/><path class="cls-6" d="M554.28,319.18,403.06,394.79c-2,1-5.56.85-8-.36L277.64,335.61l2-1,156.51-78.24L553.56,315.2a6.72,6.72,0,0,1,.76.44C556,316.81,556,318.3,554.28,319.18Z" transform="translate(-252.47 -137.02)"/><polygon class="cls-7" points="277.13 191.82 258.46 201.15 141.61 142.14 160.02 132.93 277.13 191.82"/><polygon class="cls-8" points="259.57 200.59 258.46 201.15 257.34 201.71 140.5 142.7 141.61 142.14 142.73 141.58 259.57 200.59"/><polygon class="cls-7" points="233.09 213.84 214.4 223.18 173.6 203.25 104.94 238.41 86.71 229.3 107.19 218 49.83 188.04 68.55 178.68 127.35 208.34 174.31 184.86 233.09 213.84"/><polygon class="cls-8" points="234.22 213.28 233.09 213.84 231.97 214.4 174.31 185.97 127.35 209.46 126.9 209.23 67.44 179.24 68.55 178.68 69.66 178.12 127.36 207.22 174.31 183.74 234.22 213.28"/><polygon class="cls-8" points="109.3 217.98 87.79 229.84 86.71 229.3 85.62 228.76 105.07 218.03 48.73 188.59 49.83 188.04 50.93 187.49 109.3 217.98"/><path class="cls-8" d="M521.52,334.61,519,333.34l.45-.89,2.52,1.28Zm-7-3.54-4.46-2.26.45-.89,4.46,2.26Zm-8.92-4.53-4.46-2.26.45-.89,4.46,2.26ZM496.72,322l-4.46-2.26.45-.89,4.46,2.26Zm-8.92-4.53-4.46-2.26.45-.89,4.46,2.26ZM478.88,313l-4.46-2.26.45-.89,4.46,2.26ZM470,308.43l-4.46-2.26.45-.89,4.46,2.26Zm-8.92-4.53-4.46-2.26.45-.89L461.5,303Zm-8.92-4.53-4.46-2.26.45-.89,4.46,2.26Zm-8.92-4.53-4.46-2.26.45-.89,4.46,2.26Zm-8.92-4.53-4.46-2.26.45-.89,4.46,2.26Zm-8.92-4.53-4.46-2.26.45-.89,4.46,2.26Zm-8.92-4.53L412,279l.45-.89,4.46,2.26Zm-8.92-4.53-4.46-2.26.45-.89,4.46,2.26Z" transform="translate(-252.47 -137.02)"/><path class="cls-9" d="M424.44,309.42c-1.29-.64-1.29-1.69,0-2.33a5.87,5.87,0,0,1,4.66,0c1.29.64,1.29,1.69,0,2.33A5.87,5.87,0,0,1,424.44,309.42Z" transform="translate(-252.47 -137.02)"/><path class="cls-10" d="M427.76,298.65v9.6a.47.47,0,0,1-.28.39,1.51,1.51,0,0,1-1.36,0,.48.48,0,0,1-.28-.4v-9.6a.48.48,0,0,0,.28.39,1.48,1.48,0,0,0,1.36,0A.48.48,0,0,0,427.76,298.65Z" transform="translate(-252.47 -137.02)"/><path class="cls-11" d="M427.48,298.26a.41.41,0,0,1,0,.78,1.48,1.48,0,0,1-1.36,0,.41.41,0,0,1,0-.78A1.49,1.49,0,0,1,427.48,298.26Z" transform="translate(-252.47 -137.02)"/><path class="cls-12" d="M431.76,303.53c-2.15,1.07-7.23,1.07-9.38,0-1.17-.58-1.87-1.4-1.59-2.12l6.15-11.29,6,10.45C433.49,301.73,433.36,302.73,431.76,303.53Z" transform="translate(-252.47 -137.02)"/><path class="cls-13" d="M431.35,299.9a11.83,11.83,0,0,1-8.57,0c-1.17-.58-1.87-1.41-1.59-2.12l5.75-11.3,5.63,10.45C433.09,298.11,433,299.1,431.35,299.9Z" transform="translate(-252.47 -137.02)"/><path class="cls-14" d="M431,295.9a9.76,9.76,0,0,1-7.77,0c-1.17-.58-1.87-1.4-1.59-2.12l5.34-7.26,5.23,6.41C432.68,294.1,432.56,295.1,431,295.9Z" transform="translate(-252.47 -137.02)"/><path class="cls-9" d="M408.87,301.41c-1.29-.64-1.29-1.69,0-2.33a5.87,5.87,0,0,1,4.67,0c1.29.64,1.29,1.69,0,2.33A5.87,5.87,0,0,1,408.87,301.41Z" transform="translate(-252.47 -137.02)"/><path class="cls-10" d="M412.24,290.28v9.6a.47.47,0,0,1-.28.39,1.49,1.49,0,0,1-1.36,0,.48.48,0,0,1-.28-.39v-9.6a.48.48,0,0,0,.28.39,1.49,1.49,0,0,0,1.36,0A.48.48,0,0,0,412.24,290.28Z" transform="translate(-252.47 -137.02)"/><polygon class="cls-8" points="278.25 191.26 277.13 191.82 276.02 192.38 158.91 133.48 160.02 132.93 161.14 132.37 278.25 191.26"/><path class="cls-11" d="M412,289.89a.42.42,0,0,1,0,.79,1.49,1.49,0,0,1-1.36,0,.41.41,0,0,1,0-.79A1.49,1.49,0,0,1,412,289.89Z" transform="translate(-252.47 -137.02)"/><path class="cls-12" d="M416.23,295.16c-2.15,1.07-7.23,1.07-9.38,0-1.16-.58-1.87-1.41-1.59-2.12l6.15-11.29,6,10.45C418,293.37,417.84,294.36,416.23,295.16Z" transform="translate(-252.47 -137.02)"/><path class="cls-13" d="M415.83,291.53a11.83,11.83,0,0,1-8.57,0c-1.17-.58-1.87-1.41-1.59-2.12l5.75-11.29L417,288.57C417.56,289.74,417.43,290.73,415.83,291.53Z" transform="translate(-252.47 -137.02)"/><path class="cls-15" d="M555.32,318.64a6.72,6.72,0,0,0-.76-.44L437.13,259.38,280.62,337.62l-3.09-1.55L436,256.84l117.43,58.81C555.19,316.52,555.84,317.68,555.32,318.64Z" transform="translate(-252.47 -137.02)"/><path class="cls-14" d="M415.42,287.53a9.76,9.76,0,0,1-7.77,0c-1.17-.58-1.87-1.41-1.59-2.12l5.34-7.26,5.23,6.42C417.15,285.73,417,286.73,415.42,287.53Z" transform="translate(-252.47 -137.02)"/><path class="cls-16" d="M484.44,351.42,468,359.64l1.58.77,16.93-8Zm86.36-38c0-1.8-1.55-3.7-4.51-5.17L453.61,251.91c-5.45-2.73-13.77-3-18.53-.62l-166,83c-4.6,2.31-7.26,5.22-7.5,8.17a.2.2,0,0,0,0,.07,2.2,2.2,0,0,0,0,.26V343c.07,2.84,2.36,5.67,7.35,8L367.6,400.4l.38.19c8.81,4.77,19.9,4.75,28.73,1.89.67-.22,1.34-.46,2-.72,1-.38,2-.8,2.86-1.25l166-83c1.92-1,3-2.21,3.24-3.55,0,0,0-.09,0-.14a2.46,2.46,0,0,0,0-.38Zm-19.91,4.78-.37.18-150,75c-2,1-5.58.86-8-.35L283.82,338.63c-2.41-1.2-2.7-3-.7-4l150.33-75.18c2-1,5.55-.85,8,.36l108.75,54.38C552.59,315.41,552.9,317.2,550.89,318.2Z" transform="translate(-252.47 -137.02)"/><polygon class="cls-17" points="133.74 152.03 125.9 155.95 118.06 152.03 125.9 148.11 133.74 152.03"/><polygon class="cls-18" points="125.91 171.15 118.06 167.23 118.06 152.03 125.91 155.95 125.91 171.15"/><polygon class="cls-19" points="133.73 167.23 125.89 171.15 125.89 155.95 133.73 152.03 133.73 167.23"/><polygon class="cls-17" points="133.74 136.45 125.9 140.37 118.06 136.45 125.9 132.53 133.74 136.45"/><polygon class="cls-18" points="125.91 155.56 118.06 151.64 118.06 136.44 125.91 140.37 125.91 155.56"/><polygon class="cls-19" points="133.73 151.64 125.89 155.56 125.89 140.37 133.73 136.44 133.73 151.64"/><polygon class="cls-20" points="133.74 120.7 125.9 124.62 118.06 120.7 125.9 116.78 133.74 120.7"/><polygon class="cls-18" points="125.91 139.81 118.06 135.89 118.06 120.69 125.91 124.61 125.91 139.81"/><polygon class="cls-19" points="133.73 135.89 125.89 139.81 125.89 124.61 133.73 120.69 133.73 135.89"/><polygon class="cls-21" points="127.2 130.53 129.2 129.65 129.2 125.03 127.2 125.91 127.2 130.53"/><polygon class="cls-21" points="130.7 128.9 132.7 128.02 132.7 123.4 130.7 124.28 130.7 128.9"/><polygon class="cls-21" points="127.2 136.86 129.2 135.98 129.2 131.36 127.2 132.24 127.2 136.86"/><polygon class="cls-21" points="130.7 135.23 132.7 134.35 132.7 129.73 130.7 130.61 130.7 135.23"/><polygon class="cls-21" points="127.2 145.61 129.2 144.73 129.2 140.11 127.2 140.99 127.2 145.61"/><polygon class="cls-21" points="130.7 143.98 132.7 143.1 132.7 138.48 130.7 139.36 130.7 143.98"/><polygon class="cls-21" points="127.2 151.94 129.2 151.06 129.2 146.44 127.2 147.32 127.2 151.94"/><polygon class="cls-21" points="130.7 150.31 132.7 149.44 132.7 144.81 130.7 145.69 130.7 150.31"/><polygon class="cls-21" points="127.2 161.19 129.2 160.31 129.2 155.69 127.2 156.57 127.2 161.19"/><polygon class="cls-21" points="130.7 159.56 132.7 158.69 132.7 154.06 130.7 154.94 130.7 159.56"/><polygon class="cls-21" points="127.2 167.53 129.2 166.65 129.2 162.03 127.2 162.91 127.2 167.53"/><polygon class="cls-21" points="130.7 165.9 132.7 165.02 132.7 160.4 130.7 161.28 130.7 165.9"/><polygon class="cls-8" points="215.53 222.62 214.4 223.18 213.28 223.74 173.61 204.37 106.05 238.96 104.94 238.41 103.82 237.85 173.59 202.14 215.53 222.62"/><path class="cls-22" d="M451.75,367.76l-4,2-47.22,23.61c-2,1-5.58.86-8-.35l-19.6-9.8-3.2-1.6a100.34,100.34,0,0,0,14-5.67c3-1.64,3.73-6,5.82-8.58,2.85-3.52,7.52-5.48,11.64-7.15s8.39-1.5,12.64-1c2.64.29,6.41,1.62,9,1C444.49,355.14,450.3,364,451.75,367.76Z" transform="translate(-252.47 -137.02)"/><path class="cls-23" d="M447.78,369.75l-47.22,23.61c-2,1-5.58.86-8-.35l-19.6-9.8a91.61,91.61,0,0,0,13-5.27c2.73-1.49,3.41-5.48,5.32-7.84,2.61-3.21,6.87-5,10.63-6.52s7.67-1.37,11.55-1c2.4.26,5.85,1.48,8.21.93C440.17,359.25,446,366.07,447.78,369.75Z" transform="translate(-252.47 -137.02)"/><path class="cls-9" d="M393.39,293.21c-1.29-.64-1.29-1.69,0-2.33a5.87,5.87,0,0,1,4.66,0c1.29.64,1.29,1.69,0,2.33A5.87,5.87,0,0,1,393.39,293.21Z" transform="translate(-252.47 -137.02)"/><path class="cls-10" d="M396.71,282.12v9.6a.47.47,0,0,1-.28.39,1.49,1.49,0,0,1-1.36,0,.48.48,0,0,1-.28-.39v-9.6a.48.48,0,0,0,.28.39,1.49,1.49,0,0,0,1.36,0A.48.48,0,0,0,396.71,282.12Z" transform="translate(-252.47 -137.02)"/><path class="cls-11" d="M396.42,281.72a.42.42,0,0,1,0,.79,1.49,1.49,0,0,1-1.36,0,.41.41,0,0,1,0-.79A1.49,1.49,0,0,1,396.42,281.72Z" transform="translate(-252.47 -137.02)"/><path class="cls-12" d="M400.7,287c-2.15,1.07-7.23,1.07-9.38,0-1.17-.58-1.87-1.41-1.59-2.12l6.15-11.29,6,10.45C402.43,285.2,402.31,286.2,400.7,287Z" transform="translate(-252.47 -137.02)"/><path class="cls-13" d="M400.3,283.37a11.83,11.83,0,0,1-8.57,0c-1.17-.58-1.87-1.41-1.59-2.12l5.75-11.29,5.63,10.45C402,281.57,401.9,282.57,400.3,283.37Z" transform="translate(-252.47 -137.02)"/><path class="cls-14" d="M399.89,279.37a9.76,9.76,0,0,1-7.77,0c-1.17-.58-1.87-1.41-1.59-2.12l5.34-7.26,5.23,6.42C401.63,277.57,401.5,278.57,399.89,279.37Z" transform="translate(-252.47 -137.02)"/><path class="cls-24" d="M355.06,384.61c1.87-.94,1.87-2.45,0-3.38l-47.38-23.69a8.52,8.52,0,0,0-6.77,0h0c-1.87.94-1.87,2.45,0,3.38l47.38,23.69a8.51,8.51,0,0,0,6.77,0Z" transform="translate(-252.47 -137.02)"/><path class="cls-25" d="M353.63,384c1.72-.86.68-2.64-1-3.5l-43.52-21.76c-1.72-.86-4.49-1.26-6.21-.4h0c-1.72.86-1.24,2.28.48,3.14l43.52,21.76c1.71.86,5.08,1.61,6.79.75Z" transform="translate(-252.47 -137.02)"/><path class="cls-24" d="M477.79,271.24c-.62.31-.62.82,0,1.13L513,290a2.85,2.85,0,0,0,2.25,0h0c.63-.31.63-.82,0-1.13L480,271.24a2.84,2.84,0,0,0-2.25,0Z" transform="translate(-252.47 -137.02)"/><path class="cls-8" d="M373.52,352.23l-4.42-2.34.47-.88,4.42,2.34Zm-8.84-4.68-4.42-2.34.47-.88,4.42,2.34Zm-8.84-4.68-4.42-2.34.47-.88,4.42,2.34ZM347,338.18l-4.42-2.34.47-.88,4.42,2.34Zm-8.84-4.68-4.42-2.34.47-.88,4.42,2.34Zm-8.84-4.68-4.42-2.34.47-.88,4.42,2.34Zm-8.84-4.68-4.42-2.34.47-.88,4.42,2.34Z" transform="translate(-252.47 -137.02)"/><path class="cls-8" d="M353.68,369.64l-.47-.88,4.42-2.34.47.88Zm8.84-4.68-.47-.88,4.42-2.34.47.88Zm17.67-9.37-.47-.88,4.42-2.34.47.88ZM389,350.9l-.47-.88,4.42-2.34.47.88Zm8.84-4.68-.47-.88L401.8,343l.47.88Zm8.83-4.68-.47-.88,4.42-2.34.47.88Zm8.84-4.68-.47-.88,4.42-2.34.47.88Z" transform="translate(-252.47 -137.02)"/><path class="cls-8" d="M474.85,355.47l-2.48-1.24.45-.89,2.48,1.24Zm-7-3.46-4.48-2.23.45-.89,4.48,2.23Zm-9-4.46-4.48-2.23.45-.89,4.48,2.23Zm-9-4.46-4.48-2.23L446,340l4.48,2.23Zm-9-4.46-4.48-2.23.45-.89,4.48,2.23Zm-9-4.46-4.48-2.23.45-.89,4.48,2.23Z" transform="translate(-252.47 -137.02)"/><path class="cls-9" d="M297.24,341.5c-1.29-.64-1.29-1.69,0-2.33a5.87,5.87,0,0,1,4.66,0c1.29.64,1.29,1.69,0,2.33A5.87,5.87,0,0,1,297.24,341.5Z" transform="translate(-252.47 -137.02)"/><path class="cls-10" d="M300.52,330.47v9.6a.47.47,0,0,1-.28.39,1.51,1.51,0,0,1-1.36,0,.48.48,0,0,1-.28-.4v-9.6a.48.48,0,0,0,.28.39,1.48,1.48,0,0,0,1.36,0A.48.48,0,0,0,300.52,330.47Z" transform="translate(-252.47 -137.02)"/><path class="cls-11" d="M300.24,330.07a.41.41,0,0,1,0,.78,1.48,1.48,0,0,1-1.36,0,.41.41,0,0,1,0-.78A1.49,1.49,0,0,1,300.24,330.07Z" transform="translate(-252.47 -137.02)"/><path class="cls-12" d="M304.51,335.34c-2.14,1.07-7.23,1.07-9.38,0-1.17-.58-1.87-1.4-1.59-2.12l6.15-11.29,6,10.45C306.25,333.55,306.12,334.54,304.51,335.34Z" transform="translate(-252.47 -137.02)"/><path class="cls-13" d="M304.11,331.71a11.83,11.83,0,0,1-8.57,0c-1.17-.58-1.87-1.41-1.59-2.12l5.75-11.3,5.63,10.45C305.84,329.92,305.72,330.91,304.11,331.71Z" transform="translate(-252.47 -137.02)"/><path class="cls-14" d="M303.71,327.71a9.76,9.76,0,0,1-7.77,0c-1.16-.58-1.87-1.4-1.59-2.12l5.34-7.26,5.23,6.41C305.44,325.92,305.31,326.91,303.71,327.71Z" transform="translate(-252.47 -137.02)"/><polygon class="cls-26" points="120.47 158.28 112.63 162.2 104.78 158.28 112.63 154.36 120.47 158.28"/><polygon class="cls-27" points="112.64 177.4 104.79 173.47 104.79 158.28 112.64 162.2 112.64 177.4"/><polygon class="cls-28" points="120.46 173.47 112.62 177.4 112.62 162.2 120.46 158.28 120.46 173.47"/><polygon class="cls-26" points="120.47 142.7 112.63 146.62 104.78 142.7 112.63 138.78 120.47 142.7"/><polygon class="cls-27" points="112.64 161.81 104.79 157.89 104.79 142.69 112.64 146.61 112.64 161.81"/><polygon class="cls-28" points="120.46 157.89 112.62 161.81 112.62 146.61 120.46 142.69 120.46 157.89"/><polygon class="cls-29" points="119.25 174.12 114.9 176.29 114.9 163.49 119.25 161.31 119.25 174.12"/><polygon class="cls-30" points="120.47 126.95 112.63 130.87 104.78 126.95 112.63 123.03 120.47 126.95"/><polygon class="cls-27" points="112.64 146.06 104.79 142.14 104.79 126.94 112.64 130.86 112.64 146.06"/><polygon class="cls-28" points="120.46 142.14 112.62 146.06 112.62 130.86 120.46 126.94 120.46 142.14"/><polygon class="cls-29" points="114.07 136.9 116.07 136.02 116.07 131.4 114.07 132.28 114.07 136.9"/><polygon class="cls-29" points="117.57 135.27 119.57 134.39 119.57 129.77 117.57 130.65 117.57 135.27"/><polygon class="cls-29" points="114.07 143.24 116.07 142.36 116.07 137.74 114.07 138.62 114.07 143.24"/><polygon class="cls-29" points="117.57 141.61 119.57 140.73 119.57 136.11 117.57 136.99 117.57 141.61"/><polygon class="cls-29" points="114.07 152.4 116.07 151.52 116.07 146.9 114.07 147.78 114.07 152.4"/><polygon class="cls-29" points="117.57 150.77 119.57 149.89 119.57 145.27 117.57 146.15 117.57 150.77"/><polygon class="cls-29" points="114.07 158.74 116.07 157.86 116.07 153.24 114.07 154.12 114.07 158.74"/><polygon class="cls-29" points="117.57 157.11 119.57 156.23 119.57 151.61 117.57 152.49 117.57 157.11"/><polygon class="cls-31" points="107.2 165.03 99.36 168.95 91.51 165.03 99.36 161.11 107.2 165.03"/><polygon class="cls-32" points="99.36 184.15 91.52 180.22 91.52 165.03 99.36 168.95 99.36 184.15"/><polygon class="cls-33" points="107.19 180.22 99.34 184.15 99.34 168.95 107.19 165.03 107.19 180.22"/><polygon class="cls-31" points="107.2 149.45 99.36 153.37 91.51 149.45 99.36 145.53 107.2 149.45"/><polygon class="cls-32" points="99.36 168.56 91.52 164.64 91.52 149.44 99.36 153.36 99.36 168.56"/><polygon class="cls-33" points="107.19 164.64 99.34 168.56 99.34 153.36 107.19 149.44 107.19 164.64"/><polygon class="cls-34" points="107.2 133.7 99.36 137.62 91.51 133.7 99.36 129.78 107.2 133.7"/><polygon class="cls-32" points="99.36 152.81 91.52 148.89 91.52 133.69 99.36 137.61 99.36 152.81"/><polygon class="cls-33" points="107.19 148.89 99.34 152.81 99.34 137.61 107.19 133.69 107.19 148.89"/><polygon class="cls-29" points="100.82 144.03 102.82 143.15 102.82 138.53 100.82 139.41 100.82 144.03"/><polygon class="cls-29" points="104.32 142.4 106.32 141.52 106.32 136.9 104.32 137.78 104.32 142.4"/><polygon class="cls-29" points="100.82 150.36 102.82 149.48 102.82 144.86 100.82 145.74 100.82 150.36"/><polygon class="cls-29" points="104.32 148.73 106.32 147.85 106.32 143.23 104.32 144.11 104.32 148.73"/><polygon class="cls-29" points="100.82 159.11 102.82 158.23 102.82 153.61 100.82 154.49 100.82 159.11"/><polygon class="cls-29" points="104.32 157.48 106.32 156.6 106.32 151.98 104.32 152.86 104.32 157.48"/><polygon class="cls-29" points="100.82 165.44 102.82 164.56 102.82 159.94 100.82 160.82 100.82 165.44"/><polygon class="cls-29" points="104.32 163.81 106.32 162.93 106.32 158.31 104.32 159.19 104.32 163.81"/><polygon class="cls-29" points="100.82 174.69 102.82 173.81 102.82 169.19 100.82 170.07 100.82 174.69"/><polygon class="cls-29" points="104.32 173.06 106.32 172.18 106.32 167.56 104.32 168.44 104.32 173.06"/><polygon class="cls-29" points="100.82 181.03 102.82 180.15 102.82 175.53 100.82 176.41 100.82 181.03"/><polygon class="cls-29" points="104.32 179.4 106.32 178.52 106.32 173.9 104.32 174.78 104.32 179.4"/><path class="cls-9" d="M312.74,349.38c-1.29-.64-1.29-1.69,0-2.33a5.87,5.87,0,0,1,4.67,0c1.29.64,1.29,1.69,0,2.33A5.87,5.87,0,0,1,312.74,349.38Z" transform="translate(-252.47 -137.02)"/><path class="cls-10" d="M316.1,338.47v9.6a.47.47,0,0,1-.28.39,1.51,1.51,0,0,1-1.36,0,.49.49,0,0,1-.28-.4v-9.6a.48.48,0,0,0,.28.39,1.48,1.48,0,0,0,1.36,0A.48.48,0,0,0,316.1,338.47Z" transform="translate(-252.47 -137.02)"/><path class="cls-11" d="M315.82,338.07a.41.41,0,0,1,0,.78,1.48,1.48,0,0,1-1.36,0,.41.41,0,0,1,0-.78A1.49,1.49,0,0,1,315.82,338.07Z" transform="translate(-252.47 -137.02)"/><path class="cls-12" d="M320.1,343.34c-2.15,1.07-7.23,1.07-9.38,0-1.16-.58-1.87-1.4-1.59-2.12l6.15-11.29,6,10.45C321.83,341.55,321.7,342.54,320.1,343.34Z" transform="translate(-252.47 -137.02)"/><path class="cls-13" d="M319.69,339.71a11.83,11.83,0,0,1-8.57,0c-1.17-.58-1.87-1.41-1.59-2.12l5.75-11.3,5.63,10.45C321.42,337.92,321.3,338.91,319.69,339.71Z" transform="translate(-252.47 -137.02)"/><path class="cls-14" d="M319.29,335.71a9.76,9.76,0,0,1-7.77,0c-1.17-.58-1.87-1.4-1.59-2.12l5.34-7.26,5.23,6.41C321,333.92,320.9,334.91,319.29,335.71Z" transform="translate(-252.47 -137.02)"/><path class="cls-9" d="M421.1,355.77c-1.29-.64-1.29-1.69,0-2.33a5.87,5.87,0,0,1,4.67,0c1.29.64,1.29,1.69,0,2.33A5.87,5.87,0,0,1,421.1,355.77Z" transform="translate(-252.47 -137.02)"/><path class="cls-9" d="M437.22,358.12c-.85-.42-.85-1.12,0-1.54a3.88,3.88,0,0,1,3.08,0c.85.43.85,1.12,0,1.54A3.88,3.88,0,0,1,437.22,358.12Z" transform="translate(-252.47 -137.02)"/><path class="cls-9" d="M352.65,328.49c-.85-.42-.85-1.12,0-1.54a3.88,3.88,0,0,1,3.08,0c.85.43.85,1.12,0,1.54A3.88,3.88,0,0,1,352.65,328.49Z" transform="translate(-252.47 -137.02)"/><path class="cls-9" d="M343.77,324.55c-.85-.42-.85-1.12,0-1.54a3.88,3.88,0,0,1,3.08,0c.85.43.85,1.12,0,1.54A3.88,3.88,0,0,1,343.77,324.55Z" transform="translate(-252.47 -137.02)"/><path class="cls-10" d="M424.43,345v9.6a.47.47,0,0,1-.28.39,1.51,1.51,0,0,1-1.36,0,.48.48,0,0,1-.28-.4V345a.48.48,0,0,0,.28.39,1.48,1.48,0,0,0,1.36,0A.48.48,0,0,0,424.43,345Z" transform="translate(-252.47 -137.02)"/><path class="cls-11" d="M424.15,344.57a.41.41,0,0,1,0,.78,1.48,1.48,0,0,1-1.36,0,.41.41,0,0,1,0-.78A1.49,1.49,0,0,1,424.15,344.57Z" transform="translate(-252.47 -137.02)"/><path class="cls-12" d="M428.43,349.84c-2.15,1.07-7.23,1.07-9.38,0-1.17-.58-1.87-1.4-1.59-2.12l6.15-11.29,6,10.45C430.16,348,430,349,428.43,349.84Z" transform="translate(-252.47 -137.02)"/><path class="cls-13" d="M428,346.21a11.83,11.83,0,0,1-8.57,0c-1.17-.58-1.87-1.41-1.59-2.12l5.75-11.3,5.63,10.45C429.75,344.42,429.63,345.41,428,346.21Z" transform="translate(-252.47 -137.02)"/><path class="cls-14" d="M427.62,342.21a9.76,9.76,0,0,1-7.77,0c-1.17-.58-1.87-1.4-1.59-2.12l5.34-7.26,5.23,6.41C429.35,340.42,429.23,341.41,427.62,342.21Z" transform="translate(-252.47 -137.02)"/><path class="cls-11" d="M345.77,317.1a.27.27,0,0,1,0,.5,1,1,0,0,1-.87,0,.26.26,0,0,1,0-.5A1,1,0,0,1,345.77,317.1Z" transform="translate(-252.47 -137.02)"/><path class="cls-35" d="M337.07,311.52v6.16a.3.3,0,0,1-.18.25,1,1,0,0,1-.87,0,.31.31,0,0,1-.18-.25v-6.16a.31.31,0,0,0,.18.25,1,1,0,0,0,.87,0A.31.31,0,0,0,337.07,311.52Z" transform="translate(-252.47 -137.02)"/><path class="cls-11" d="M336.89,311.27a.27.27,0,0,1,0,.5,1,1,0,0,1-.87,0,.27.27,0,0,1,0-.5A1,1,0,0,1,336.89,311.27Z" transform="translate(-252.47 -137.02)"/><path class="cls-12" d="M339.64,314.65a9,9,0,0,1-6,0c-.75-.37-1.2-.9-1-1.36l3.95-7.25,3.87,6.71C340.75,313.5,340.67,314.14,339.64,314.65Z" transform="translate(-252.47 -137.02)"/><path class="cls-13" d="M339.38,312.32a7.57,7.57,0,0,1-5.5,0c-.75-.37-1.2-.9-1-1.36l3.69-7.25,3.61,6.71C340.49,311.17,340.41,311.81,339.38,312.32Z" transform="translate(-252.47 -137.02)"/><path class="cls-14" d="M339.12,309.75a6.26,6.26,0,0,1-5,0c-.75-.37-1.2-.9-1-1.36l3.43-4.66,3.35,4.12C340.23,308.6,340.15,309.24,339.12,309.75Z" transform="translate(-252.47 -137.02)"/><path class="cls-11" d="M439.14,350.69a.27.27,0,0,1,0,.5,1,1,0,0,1-.87,0,.26.26,0,0,1,0-.5A1,1,0,0,1,439.14,350.69Z" transform="translate(-252.47 -137.02)"/><path class="cls-10" d="M439.41,350.94v6.16a.3.3,0,0,1-.18.25,1,1,0,0,1-.87,0,.31.31,0,0,1-.18-.25v-6.16a.31.31,0,0,0,.18.25,1,1,0,0,0,.87,0A.3.3,0,0,0,439.41,350.94Z" transform="translate(-252.47 -137.02)"/><path class="cls-12" d="M441.86,354.07a9,9,0,0,1-6,0c-.75-.37-1.2-.9-1-1.36l3.95-7.25,3.87,6.71C443,352.91,442.89,353.55,441.86,354.07Z" transform="translate(-252.47 -137.02)"/><path class="cls-13" d="M441.6,351.74a7.59,7.59,0,0,1-5.5,0c-.75-.37-1.2-.9-1-1.36l3.69-7.25,3.61,6.71C442.71,350.59,442.63,351.22,441.6,351.74Z" transform="translate(-252.47 -137.02)"/><path class="cls-14" d="M441.34,349.17a6.26,6.26,0,0,1-5,0c-.75-.37-1.2-.9-1-1.36l3.43-4.66,3.35,4.12C442.45,348,442.37,348.66,441.34,349.17Z" transform="translate(-252.47 -137.02)"/><path class="cls-11" d="M453.32,356.85a.27.27,0,0,1,0,.5,1,1,0,0,1-.87,0,.27.27,0,0,1,0-.5A1,1,0,0,1,453.32,356.85Z" transform="translate(-252.47 -137.02)"/><path class="cls-9" d="M451.35,364.25c-.85-.42-.85-1.12,0-1.54a3.88,3.88,0,0,1,3.08,0c.85.43.85,1.12,0,1.54A3.88,3.88,0,0,1,451.35,364.25Z" transform="translate(-252.47 -137.02)"/><path class="cls-10" d="M453.5,357.11v6.16a.3.3,0,0,1-.18.25,1,1,0,0,1-.87,0,.31.31,0,0,1-.18-.25V357.1a.31.31,0,0,0,.18.25,1,1,0,0,0,.87,0A.31.31,0,0,0,453.5,357.11Z" transform="translate(-252.47 -137.02)"/><path class="cls-12" d="M456.07,360.23a9,9,0,0,1-6,0c-.75-.37-1.2-.9-1-1.36l3.95-7.25,3.87,6.7C457.18,359.08,457.1,359.72,456.07,360.23Z" transform="translate(-252.47 -137.02)"/><path class="cls-13" d="M455.81,357.91a7.57,7.57,0,0,1-5.5,0c-.75-.37-1.2-.9-1-1.36L453,349.3l3.61,6.71C456.92,356.76,456.84,357.39,455.81,357.91Z" transform="translate(-252.47 -137.02)"/><path class="cls-14" d="M455.55,355.34a6.26,6.26,0,0,1-5,0c-.75-.37-1.2-.9-1-1.36l3.43-4.66,3.35,4.12C456.66,354.19,456.58,354.83,455.55,355.34Z" transform="translate(-252.47 -137.02)"/><polygon class="cls-29" points="291.59 119.67 276.16 127.39 260.74 119.67 276.16 111.96 291.59 119.67"/><polygon class="cls-36" points="260.76 119.66 260.76 180.09 276.18 187.81 276.18 127.38 260.76 119.66"/><polygon class="cls-28" points="276.14 127.38 276.14 187.81 291.57 180.09 291.57 119.67 276.14 127.38"/><polygon class="cls-29" points="284.62 133.77 288.62 131.77 288.62 126.19 284.62 128.19 284.62 133.77"/><polygon class="cls-29" points="279.37 136.52 283.37 134.52 283.37 128.94 279.37 130.94 279.37 136.52"/><polygon class="cls-29" points="284.62 141.77 288.62 139.77 288.62 134.19 284.62 136.19 284.62 141.77"/><polygon class="cls-29" points="279.37 144.52 283.37 142.52 283.37 136.94 279.37 138.94 279.37 144.52"/><polygon class="cls-29" points="284.62 149.52 288.62 147.52 288.62 141.94 284.62 143.94 284.62 149.52"/><polygon class="cls-29" points="279.37 152.27 283.37 150.27 283.37 144.69 279.37 146.69 279.37 152.27"/><polygon class="cls-29" points="284.62 162.27 288.62 160.27 288.62 154.69 284.62 156.69 284.62 162.27"/><polygon class="cls-29" points="279.37 165.02 283.37 163.02 283.37 157.44 279.37 159.44 279.37 165.02"/><polygon class="cls-29" points="284.62 170.27 288.62 168.27 288.62 162.69 284.62 164.69 284.62 170.27"/><polygon class="cls-29" points="279.37 173.02 283.37 171.02 283.37 165.44 279.37 167.44 279.37 173.02"/><polygon class="cls-29" points="284.62 178.02 288.62 176.02 288.62 170.44 284.62 172.44 284.62 178.02"/><polygon class="cls-29" points="279.37 180.77 283.37 178.77 283.37 173.19 279.37 175.19 279.37 180.77"/><g class="building"><polygon class="cls-37" points="202.87 74.88 202.87 150.5 214.32 144.77 214.32 69.15 202.87 74.88"/><polygon class="cls-38" points="214.34 69.18 202.87 74.88 173.35 59.43 184.82 53.7 214.34 69.18"/><polygon class="cls-39" points="173.36 59.43 173.36 136 202.88 150.5 202.88 74.88 173.36 59.43"/><polygon class="cls-37" points="182.36 80.16 176.36 77.16 176.36 68.8 182.36 71.8 182.36 80.16"/><polygon class="cls-37" points="190.37 83.83 184.36 80.83 184.36 72.47 190.37 75.47 190.37 83.83"/><polygon class="cls-37" points="198.37 87.66 192.36 84.66 192.36 76.3 198.37 79.3 198.37 87.66"/><polygon class="cls-37" points="182.36 91.16 176.36 88.16 176.36 79.8 182.36 82.8 182.36 91.16"/><polygon class="cls-37" points="190.37 94.83 184.36 91.83 184.36 83.47 190.37 86.47 190.37 94.83"/><polygon class="cls-37" points="198.37 98.66 192.36 95.66 192.36 87.3 198.37 90.3 198.37 98.66"/><polygon class="cls-37" points="182.36 102.29 176.36 99.28 176.36 90.93 182.36 93.93 182.36 102.29"/><polygon class="cls-37" points="190.37 105.95 184.36 102.95 184.36 94.59 190.37 97.59 190.37 105.95"/><polygon class="cls-37" points="198.37 109.79 192.36 106.78 192.36 98.43 198.37 101.43 198.37 109.79"/><polygon class="cls-37" points="182.36 113.16 176.36 110.16 176.36 101.8 182.36 104.8 182.36 113.16"/><polygon class="cls-37" points="190.37 116.83 184.36 113.83 184.36 105.47 190.37 108.47 190.37 116.83"/><polygon class="cls-37" points="198.37 120.66 192.36 117.66 192.36 109.3 198.37 112.3 198.37 120.66"/><polygon class="cls-37" points="182.36 123.91 176.36 120.91 176.36 112.55 182.36 115.55 182.36 123.91"/><polygon class="cls-37" points="190.37 127.58 184.36 124.58 184.36 116.22 190.37 119.22 190.37 127.58"/><polygon class="cls-37" points="198.37 131.41 192.36 128.41 192.36 120.05 198.37 123.05 198.37 131.41"/></g><path class="cls-11" d="M354.65,321a.27.27,0,0,1,0,.5,1,1,0,0,1-.87,0,.27.27,0,0,1,0-.5A1,1,0,0,1,354.65,321Z" transform="translate(-252.47 -137.02)"/><polygon class="cls-40" points="161.33 164.37 125.67 182.39 113.02 176.41 148.68 158.4 161.33 164.37"/><polygon class="cls-41" points="125.68 200.26 113.03 194.28 113.03 176.4 125.68 182.38 125.68 200.26"/><polygon class="cls-42" points="161.31 164.36 161.31 182.25 125.65 200.26 125.65 182.38 161.31 164.36"/><polygon class="cls-8" points="138.66 191.1 128.24 196.4 128.24 183.15 138.66 177.73 138.66 191.1"/><polygon class="cls-8" points="159.2 180.65 150.25 185.2 150.25 171.95 159.2 167.27 159.2 180.65"/><polygon class="cls-8" points="149.71 177.19 149.71 188.15 149.21 188.4 149.21 178.01 139.81 182.82 139.81 193.15 139.31 193.4 139.31 182.51 149.71 177.19"/><polygon class="cls-43" points="127.5 175.27 125.34 174.44 125.15 166.83 127.3 167.66 127.5 175.27"/><path class="cls-6" d="M380.32,315.71l-.14-5.58a.38.38,0,0,1,.37-.38.37.37,0,0,1,.38.37l.14,5.58C381.08,315.89,380.33,315.91,380.32,315.71Z" transform="translate(-252.47 -137.02)"/><path class="cls-6" d="M405,303.78l-.14-5.58a.38.38,0,0,1,.37-.38.4.4,0,0,1,.38.37l.14,5.58C405.78,304,405,304,405,303.78Z" transform="translate(-252.47 -137.02)"/><polygon class="cls-44" points="154.71 153.32 127.29 167.67 125.14 166.84 152.55 152.49 154.71 153.32"/><polygon class="cls-45" points="154.69 153.31 154.89 160.92 127.47 175.27 127.28 167.66 154.69 153.31"/><path class="cls-9" d="M373.82,375.42c-1.29-.64-1.29-1.69,0-2.33a5.87,5.87,0,0,1,4.66,0c1.29.64,1.29,1.69,0,2.33A5.87,5.87,0,0,1,373.82,375.42Z" transform="translate(-252.47 -137.02)"/><path class="cls-10" d="M377.1,364.55v9.6a.47.47,0,0,1-.28.39,1.51,1.51,0,0,1-1.36,0,.48.48,0,0,1-.28-.4v-9.6a.48.48,0,0,0,.28.39,1.48,1.48,0,0,0,1.36,0A.48.48,0,0,0,377.1,364.55Z" transform="translate(-252.47 -137.02)"/><path class="cls-11" d="M376.82,364.16a.41.41,0,0,1,0,.78,1.48,1.48,0,0,1-1.36,0,.41.41,0,0,1,0-.78A1.49,1.49,0,0,1,376.82,364.16Z" transform="translate(-252.47 -137.02)"/><path class="cls-12" d="M381.1,369.43c-2.15,1.07-7.23,1.07-9.38,0-1.17-.58-1.87-1.4-1.59-2.12L376.27,356l6,10.45C382.83,367.63,382.7,368.63,381.1,369.43Z" transform="translate(-252.47 -137.02)"/><path class="cls-13" d="M380.69,365.8a11.83,11.83,0,0,1-8.57,0c-1.17-.58-1.87-1.41-1.59-2.12l5.75-11.3,5.63,10.45C382.42,364,382.3,365,380.69,365.8Z" transform="translate(-252.47 -137.02)"/><path class="cls-14" d="M380.29,361.79a9.76,9.76,0,0,1-7.77,0c-1.17-.58-1.87-1.4-1.59-2.12l5.34-7.26,5.23,6.41C382,360,381.9,361,380.29,361.79Z" transform="translate(-252.47 -137.02)"/><polygon class="cls-46" points="101.1 197.56 101.11 197.55 101.11 197.56 101.1 197.56"/><g class="car"><path class="cls-51" d="M355.41,332.87l-.15-.08c-.77-.39-1.47-.74-2-1-1.53-.78-1.87,1.61-1.9,2.28l.68.34.74.37,2.94,1.47h0V333Zm4.33,3.61-.12-.2-.16-.27-.19-.3-.25-.37c-.13-.2-.27-.38-.4-.54a2.72,2.72,0,0,0-.75-.71c-.86-.43-.36-.16-.95-.46v3.23l0,0,3.89,1.94A9.66,9.66,0,0,0,359.73,336.49Z" transform="translate(-252.47 -137.02)"/><path class="cls-51" d="M360.83,338.82l-1.27-.63-2.66-1.33v-3.23c.59.3.09,0,.95.46a6,6,0,0,1,1.6,1.92l.28.47A9.66,9.66,0,0,1,360.83,338.82Z" transform="translate(-252.47 -137.02)"/><path class="cls-47" d="M355.24,339.27a.85.85,0,0,1-1.34.82,2.65,2.65,0,0,1-1.34-2.17.85.85,0,0,1,1.34-.82A2.65,2.65,0,0,1,355.24,339.27Z" transform="translate(-252.47 -137.02)"/><path class="cls-47" d="M360.86,342.08a.85.85,0,0,1-1.34.82,2.65,2.65,0,0,1-1.34-2.17.85.85,0,0,1,1.34-.82A2.65,2.65,0,0,1,360.86,342.08Z" transform="translate(-252.47 -137.02)"/><path class="cls-48" d="M363.56,341.65a.33.33,0,0,1,0-.06h0a0,0,0,0,1,0,0,.86.86,0,0,0,0-.14,11.4,11.4,0,0,0-1.71-2.24h0l-.07-.12c-.28-.54-.79-1.66-1.46-2.79l0,0a8.14,8.14,0,0,0-2.63-3c-.83-.41-3.7-1.87-4.45-2.22a1.51,1.51,0,0,0-.32-.12s0,0,0,0a1.21,1.21,0,0,0-.78,0l-.11,0a2.51,2.51,0,0,0-1.1,1.71c-.16.66-.95,1.34-.95,2.16a6.36,6.36,0,0,0,.14,1.54,4.57,4.57,0,0,0,1.33,1.79l1.21.6a2.51,2.51,0,0,1-.18-.9,1,1,0,0,1,1.53-1,3.08,3.08,0,0,1,1.52,2.3,1.34,1.34,0,0,1,0,.19,1.38,1.38,0,0,1-.18.73l2.94,1.46a2.55,2.55,0,0,1-.18-.9,1,1,0,0,1,1.53-1,3,3,0,0,1,1.54,2.49,1.35,1.35,0,0,1-.18.72l.94.48a2.32,2.32,0,0,0,1.14.14,1.09,1.09,0,0,0,.33-.11h0a.41.41,0,0,0,.22-.31A5.11,5.11,0,0,0,363.56,341.65Zm-7.85-8.54v3.15l-4.36-2.18c0-.67.36-3.05,1.9-2.28.57.27,1.33.65,2.16,1.07l.31.16Zm3.86,5.07-2.66-1.32v-3.23l.95.47a5.91,5.91,0,0,1,1.6,1.92c.1.15.19.31.28.47a9.53,9.53,0,0,1,1.1,2.33Z" transform="translate(-252.47 -137.02)"/><path class="cls-49" d="M369.1,338.23a11.74,11.74,0,0,0-1.7-2.21l-.08-.15c-.28-.56-.83-1.72-1.52-2.88l-.08-.14h0a7.55,7.55,0,0,0-2.51-2.79l-1.49-.75-.25-.12-.26-.13L361,329l-1.46-.73-.27-.13-.59-.3h0a1.36,1.36,0,0,0-1.09-.09l-.27.15h0l-5.45,3h0a1.22,1.22,0,0,1,.89,0,2.15,2.15,0,0,1,.33.13c.75.36,3.62,1.81,4.45,2.23a8,8,0,0,1,2.65,3c.67,1.13,1.19,2.25,1.47,2.79h0l.07.13v0a9.39,9.39,0,0,1,1.76,2.38l.81-.43,2.29-1.32,2.54-1.34A1.05,1.05,0,0,0,369.1,338.23Z" transform="translate(-252.47 -137.02)"/><path class="cls-50" d="M369.16,339.93a.41.41,0,0,1-.12.25c-.29.23-5.4,3-5.72,3.21a.41.41,0,0,0,.22-.31,5.11,5.11,0,0,0,0-1.44.33.33,0,0,1,0-.06h0a0,0,0,0,1,0,0,.86.86,0,0,0,0-.14l5.66-3.06,0,.12v0A5.1,5.1,0,0,1,369.16,339.93Z" transform="translate(-252.47 -137.02)"/><path class="cls-51" d="M367,336.43,362.6,339l-.61-1.15-.44-.84-.47-.89-.16-.3-.47-.89,4.36-2.51.62,1.16.16.3.47.88.45.84Z" transform="translate(-252.47 -137.02)"/><path class="cls-46" d="M359,335.35l-2.1,1.05v-.74l1.7-.85C358.74,335,358.88,335.15,359,335.35Z" transform="translate(-252.47 -137.02)"/><path class="cls-46" d="M359.61,336.29l-1.93,1-.74-.37,2.32-1.16.19.3Z" transform="translate(-252.47 -137.02)"/><path class="cls-46" d="M355.71,333v.28l-2.95,1.47-.74-.37,3.23-1.62.15.08Z" transform="translate(-252.47 -137.02)"/><path class="cls-46" d="M365.59,333.87l-4.51,2.25-.16-.3,4.5-2.25Z" transform="translate(-252.47 -137.02)"/><path class="cls-46" d="M366.51,335.6,362,337.86l-.44-.84,4.51-2.26Z" transform="translate(-252.47 -137.02)"/><polygon class="cls-52" points="113 204.95 111.44 205.79 111.41 204.51 112.97 203.67 113 204.95"/><polygon class="cls-52" points="116.5 203.01 114.94 203.85 114.9 202.58 116.46 201.73 116.5 203.01"/></g><path class="cls-9" d="M500.25,307.29c-1.29-.64-1.29-1.69,0-2.33a5.87,5.87,0,0,1,4.67,0c1.29.64,1.29,1.69,0,2.33A5.87,5.87,0,0,1,500.25,307.29Z" transform="translate(-252.47 -137.02)"/><path class="cls-10" d="M503.53,296.39V306a.47.47,0,0,1-.28.39,1.51,1.51,0,0,1-1.36,0,.48.48,0,0,1-.28-.4v-9.59a.48.48,0,0,0,.28.39,1.49,1.49,0,0,0,1.36,0A.48.48,0,0,0,503.53,296.39Z" transform="translate(-252.47 -137.02)"/><path class="cls-11" d="M503.25,296a.41.41,0,0,1,0,.78,1.49,1.49,0,0,1-1.36,0,.41.41,0,0,1,0-.78A1.49,1.49,0,0,1,503.25,296Z" transform="translate(-252.47 -137.02)"/><path class="cls-12" d="M507.53,301.27c-2.15,1.07-7.23,1.07-9.38,0-1.16-.58-1.87-1.4-1.59-2.12l6.15-11.29,6,10.45C509.26,299.47,509.13,300.47,507.53,301.27Z" transform="translate(-252.47 -137.02)"/><path class="cls-13" d="M507.12,297.64a11.84,11.84,0,0,1-8.57,0c-1.17-.58-1.87-1.41-1.59-2.12l5.75-11.3,5.63,10.45C508.85,295.85,508.73,296.84,507.12,297.64Z" transform="translate(-252.47 -137.02)"/><path class="cls-14" d="M506.72,293.64a9.76,9.76,0,0,1-7.77,0c-1.17-.58-1.87-1.41-1.59-2.12l5.34-7.26,5.23,6.42C508.45,291.84,508.33,292.84,506.72,293.64Z" transform="translate(-252.47 -137.02)"/><path class="cls-9" d="M484.3,299.18c-1.29-.64-1.29-1.69,0-2.33a5.87,5.87,0,0,1,4.67,0c1.29.64,1.29,1.69,0,2.33A5.87,5.87,0,0,1,484.3,299.18Z" transform="translate(-252.47 -137.02)"/><path class="cls-10" d="M487.58,288.21v9.6a.47.47,0,0,1-.28.39,1.49,1.49,0,0,1-1.36,0,.48.48,0,0,1-.28-.4v-9.6a.48.48,0,0,0,.28.39,1.49,1.49,0,0,0,1.36,0A.48.48,0,0,0,487.58,288.21Z" transform="translate(-252.47 -137.02)"/><path class="cls-11" d="M487.3,287.82a.41.41,0,0,1,0,.78,1.49,1.49,0,0,1-1.36,0,.41.41,0,0,1,0-.78A1.49,1.49,0,0,1,487.3,287.82Z" transform="translate(-252.47 -137.02)"/><path class="cls-12" d="M491.58,293.09c-2.15,1.07-7.23,1.07-9.38,0-1.17-.58-1.87-1.41-1.59-2.12l6.15-11.29,6,10.45C493.31,291.29,493.18,292.29,491.58,293.09Z" transform="translate(-252.47 -137.02)"/><path class="cls-13" d="M491.17,289.46a11.83,11.83,0,0,1-8.57,0c-1.17-.58-1.87-1.41-1.59-2.12l5.75-11.3,5.63,10.45C492.91,287.66,492.78,288.66,491.17,289.46Z" transform="translate(-252.47 -137.02)"/><path class="cls-14" d="M490.77,285.46a9.76,9.76,0,0,1-7.77,0c-1.16-.58-1.87-1.41-1.59-2.12l5.34-7.26,5.23,6.42C492.5,283.66,492.38,284.66,490.77,285.46Z" transform="translate(-252.47 -137.02)"/><path class="cls-9" d="M468.27,291.08c-1.29-.64-1.29-1.69,0-2.33a5.87,5.87,0,0,1,4.66,0c1.29.64,1.29,1.69,0,2.33A5.87,5.87,0,0,1,468.27,291.08Z" transform="translate(-252.47 -137.02)"/><path class="cls-10" d="M471.63,280.11v9.6a.47.47,0,0,1-.28.39,1.5,1.5,0,0,1-1.36,0,.48.48,0,0,1-.28-.4v-9.6a.48.48,0,0,0,.28.39,1.49,1.49,0,0,0,1.36,0A.48.48,0,0,0,471.63,280.11Z" transform="translate(-252.47 -137.02)"/><path class="cls-11" d="M471.35,279.72a.41.41,0,0,1,0,.78,1.49,1.49,0,0,1-1.36,0,.41.41,0,0,1,0-.78A1.49,1.49,0,0,1,471.35,279.72Z" transform="translate(-252.47 -137.02)"/><path class="cls-12" d="M475.63,285c-2.15,1.07-7.23,1.07-9.38,0-1.17-.58-1.87-1.41-1.59-2.12l6.15-11.29,6,10.45C477.36,283.19,477.23,284.19,475.63,285Z" transform="translate(-252.47 -137.02)"/><path class="cls-13" d="M475.23,281.36a11.83,11.83,0,0,1-8.57,0c-1.17-.58-1.87-1.41-1.59-2.12l5.75-11.3,5.63,10.45C477,279.56,476.83,280.56,475.23,281.36Z" transform="translate(-252.47 -137.02)"/><path class="cls-14" d="M474.82,277.36a9.76,9.76,0,0,1-7.77,0c-1.17-.58-1.87-1.41-1.59-2.12L470.8,268l5.23,6.42C476.55,275.56,476.43,276.56,474.82,277.36Z" transform="translate(-252.47 -137.02)"/><polygon class="cls-53" points="151.03 209.69 148.71 208.19 150.04 209.36 151.03 209.69"/><path class="cls-53" d="M400.36,344.76h0a1.91,1.91,0,0,0-1.47.1c-.71.34-1.46.69-2.1,1l0,0h0l0-1.51-4.36-2.33.77-.36a2.33,2.33,0,0,1,2.14.14Z" transform="translate(-252.47 -137.02)"/><polygon class="cls-54" points="144.26 207.37 143.25 207.87 143.24 207.87 133.49 212.7 133.49 212.7 127.74 209.58 138.42 204.24 139.9 205.04 144.26 207.37"/><path class="cls-55" d="M390.73,355.2a2.38,2.38,0,0,1-1.21,1.94.76.76,0,0,1-1.2-.74,2.37,2.37,0,0,1,1.2-1.94A.76.76,0,0,1,390.73,355.2Z" transform="translate(-252.47 -137.02)"/><path class="cls-55" d="M401.75,349.68a2.38,2.38,0,0,1-1.21,1.94.76.76,0,0,1-1.2-.74,2.37,2.37,0,0,1,1.2-1.94A.76.76,0,0,1,401.75,349.68Z" transform="translate(-252.47 -137.02)"/><path class="cls-56" d="M386,355.28v3l2.38-1.18a1,1,0,0,1-.17-.6,2.49,2.49,0,0,1,1.33-2.12c.85-.43,1.33.06,1.33.77a1.93,1.93,0,0,1-.18.79l6.07-3,.12-.06,2.54-1.27a1.2,1.2,0,0,1-.16-.63,2.6,2.6,0,0,1,.59-1.53,2.24,2.24,0,0,1,.74-.63c.67-.34,1.22-.06,1.32.63a1.88,1.88,0,0,1,0,.2,2.17,2.17,0,0,1-.16.79l.82-.41a2.83,2.83,0,0,0,1.2-1.58,4.64,4.64,0,0,0,0-1.26c-.05-.5-.82-.67-1.26-.75-.09-.07-.22-.2-.38-.36a5.23,5.23,0,0,0-1.59-1.18l-.19-.07a1.88,1.88,0,0,0-1.47.1c-.67.32-1.37.65-2,1l-.12.06,0,0h0v4Zm12.33-6.67v-2.8c.51-.25.08,0,.82-.42a.87.87,0,0,1,.47-.07,3.17,3.17,0,0,1,2.11,1.59Z" transform="translate(-252.47 -137.02)"/><polygon class="cls-43" points="133.49 219.06 133.49 212.7 144.26 207.37 144.26 213.64 133.49 219.06"/><polygon class="cls-57" points="133.49 212.7 133.49 221.24 127.74 218.09 127.74 209.58 133.49 212.7 133.49 212.7"/><path class="cls-51" d="M398.29,345.8v2.8l2.29-1.14.38-.2.47-.23.26-.13a.35.35,0,0,0,0-.14,3.45,3.45,0,0,0-2.07-1.45.87.87,0,0,0-.47.07l-.11.06-.38.19Z" transform="translate(-252.47 -137.02)"/><path class="cls-46" d="M398.62,345.63l2.81,1.4.26-.13a.35.35,0,0,0,0-.14L399,345.44Z" transform="translate(-252.47 -137.02)"/><polygon class="cls-46" points="145.82 208.92 145.82 209.3 148.1 210.44 148.49 210.25 145.82 208.92"/><polygon class="cls-53" points="206.4 205.49 208.76 203.96 207.41 205.15 206.4 205.49"/><polygon class="cls-57" points="224.23 208.57 230.07 205.37 230.07 214.02 224.23 217.22 224.23 208.57"/><path class="cls-53" d="M470.16,337.77l-4.41,2.37v1.54h0l0,0c-.65-.33-1.42-.68-2.14-1a1.91,1.91,0,0,0-1.49-.1h0l5.16-3a2.36,2.36,0,0,1,2.18-.14Z" transform="translate(-252.47 -137.02)"/><polygon class="cls-54" points="230.09 205.4 224.23 208.57 213.28 203.12 219.21 199.94 230.09 205.4"/><path class="cls-55" d="M471.86,351.13a2.42,2.42,0,0,0,1.22,2,.78.78,0,0,0,1.22-.75,2.42,2.42,0,0,0-1.22-2A.78.78,0,0,0,471.86,351.13Z" transform="translate(-252.47 -137.02)"/><path class="cls-55" d="M460.6,345.5a2.5,2.5,0,0,0,1.26,2,.8.8,0,0,0,1.27-.78,2.5,2.5,0,0,0-1.27-2A.8.8,0,0,0,460.6,345.5Z" transform="translate(-252.47 -137.02)"/><path class="cls-56" d="M465.76,345.75v-4.08h0l0,0-.12-.06-2-1a1.92,1.92,0,0,0-1.5-.1l-.2.07a5.28,5.28,0,0,0-1.62,1.2c-.17.17-.3.3-.38.37-.45.08-1.23.26-1.28.76a4.68,4.68,0,0,0,0,1.28,2.88,2.88,0,0,0,1.22,1.61l.83.42a2.19,2.19,0,0,1-.16-.8c0-.07,0-.15,0-.21.09-.7.66-1,1.34-.64a2.3,2.3,0,0,1,.75.64,2.64,2.64,0,0,1,.6,1.55,1.24,1.24,0,0,1-.16.64l2.58,1.29.13.06,6.17,3.09a2,2,0,0,1-.19-.8c0-.73.49-1.22,1.36-.79a2.53,2.53,0,0,1,1.36,2.15,1,1,0,0,1-.18.61l2.43,1.2v-3Zm-5-3.06a3.23,3.23,0,0,1,2.14-1.61.87.87,0,0,1,.48.07c.76.38.32.17.83.42v2.85Z" transform="translate(-252.47 -137.02)"/><polygon class="cls-43" points="224.23 208.57 224.23 214.97 213.28 209.5 213.28 203.12 214.31 203.63 214.31 203.64 224.23 208.57 224.23 208.57"/><path class="cls-51" d="M464.17,341.58v2.85l-2.32-1.16-.39-.2-.48-.24-.26-.13a.33.33,0,0,1,0-.14,3.49,3.49,0,0,1,2.1-1.48.87.87,0,0,1,.48.07l.11.06.38.19Z" transform="translate(-252.47 -137.02)"/><path class="cls-46" d="M463.83,341.41,461,342.83l-.26-.13a.33.33,0,0,1,0-.14l2.69-1.34Z" transform="translate(-252.47 -137.02)"/><polygon class="cls-46" points="211.7 204.7 211.7 205.09 209.38 206.25 208.99 206.05 211.7 204.7"/><g class="truck"><path class="cls-51" d="M455.67,292.82v2.79l-2.27-1.14-.38-.19-.47-.23-.26-.13a.31.31,0,0,1,0-.14,3.42,3.42,0,0,1,2.06-1.44.85.85,0,0,1,.46.07l.11.06.38.19Z" transform="translate(-252.47 -137.02)"/><polygon class="cls-53" points="198.02 156.7 200.32 155.21 199 156.38 198.02 156.7"/><path class="cls-53" d="M461.54,289.09l-4.32,2.32v1.51h0s0,0,0,0c-.63-.33-1.39-.67-2.09-1a1.9,1.9,0,0,0-1.47-.1l5-2.91a2.29,2.29,0,0,1,2.12-.14Z" transform="translate(-252.47 -137.02)"/><polygon class="cls-54" points="221.21 156.62 215.42 159.74 204.75 154.39 210.56 151.27 221.21 156.62"/><path class="cls-55" d="M463.16,302.15a2.46,2.46,0,0,0,1.24,2,.79.79,0,0,0,1.24-.76,2.45,2.45,0,0,0-1.24-2A.79.79,0,0,0,463.16,302.15Z" transform="translate(-252.47 -137.02)"/><path class="cls-55" d="M452.18,296.66a2.45,2.45,0,0,0,1.24,2,.79.79,0,0,0,1.24-.76,2.45,2.45,0,0,0-1.24-2A.79.79,0,0,0,452.18,296.66Z" transform="translate(-252.47 -137.02)"/><path class="cls-56" d="M457.23,296.91v-4h0l0,0-.12-.06c-.61-.3-1.31-.63-2-1a1.88,1.88,0,0,0-1.46-.1l-.2.07a5.18,5.18,0,0,0-1.59,1.18c-.16.16-.29.29-.38.36-.44.08-1.2.25-1.26.75a4.52,4.52,0,0,0,0,1.26,2.82,2.82,0,0,0,1.19,1.57l.82.41a2.14,2.14,0,0,1-.16-.78c0-.07,0-.14,0-.2.09-.68.64-1,1.31-.62a2.24,2.24,0,0,1,.74.62,2.59,2.59,0,0,1,.58,1.52,1.23,1.23,0,0,1-.16.63l2.53,1.26.12.06,6,3a2,2,0,0,1-.18-.79c0-.71.48-1.2,1.33-.77a2.48,2.48,0,0,1,1.33,2.1.94.94,0,0,1-.18.6l2.35,1.18v-3Zm-4.94-3a3.16,3.16,0,0,1,2.1-1.58.85.85,0,0,1,.46.07l.82.41v2.79Z" transform="translate(-252.47 -137.02)"/><polygon class="cls-43" points="215.45 159.74 215.45 165.99 204.75 160.63 204.75 154.39 205.76 154.89 215.43 159.73 215.45 159.74"/><polygon class="cls-57" points="221.19 156.59 221.19 165.06 215.45 168.19 215.45 159.74 221.19 156.59"/><path class="cls-46" d="M455.34,292.65,452.55,294l-.26-.13a.31.31,0,0,1,0-.14l2.64-1.32Z" transform="translate(-252.47 -137.02)"/><polygon class="cls-46" points="203.2 155.94 203.2 156.32 200.93 157.45 200.55 157.26 203.2 155.94"/></g><polygon class="cls-58" points="85.13 196.59 85.13 227.29 70.09 219.82 70.09 189.12 85.13 196.59"/><polygon class="cls-59" points="93.73 192.28 93.73 222.88 85.13 227.23 85.13 196.61 93.73 192.28"/><polygon class="light-on" points="76.85 202.6 72.36 200.36 72.36 194.12 76.85 196.36 76.85 202.6"/><polygon class="light-on" points="82.82 205.34 78.34 203.1 78.34 196.86 82.82 199.1 82.82 205.34"/><polygon class="light-on" points="76.85 210.36 72.36 208.12 72.36 201.88 76.85 204.12 76.85 210.36"/><polygon class="light-on" points="82.82 213.1 78.34 210.86 78.34 204.61 82.82 206.86 82.82 213.1"/><polygon class="cls-60" points="78.74 184.81 93.73 192.28 85.13 196.6 70.1 189.13 78.74 184.81"/><path class="cls-9" d="M490.13,344c-1.29-.64-1.29-1.69,0-2.33a5.87,5.87,0,0,1,4.67,0c1.29.64,1.29,1.69,0,2.33A5.87,5.87,0,0,1,490.13,344Z" transform="translate(-252.47 -137.02)"/><path class="cls-10" d="M493.49,333.22v9.6a.47.47,0,0,1-.28.39,1.51,1.51,0,0,1-1.36,0,.48.48,0,0,1-.28-.4v-9.6a.48.48,0,0,0,.28.39,1.48,1.48,0,0,0,1.36,0A.48.48,0,0,0,493.49,333.22Z" transform="translate(-252.47 -137.02)"/><path class="cls-11" d="M493.21,332.82a.41.41,0,0,1,0,.78,1.48,1.48,0,0,1-1.36,0,.41.41,0,0,1,0-.78A1.49,1.49,0,0,1,493.21,332.82Z" transform="translate(-252.47 -137.02)"/><path class="cls-12" d="M497.49,338.09c-2.15,1.07-7.23,1.07-9.38,0-1.17-.58-1.87-1.4-1.59-2.12l6.15-11.29,6,10.45C499.22,336.3,499.09,337.29,497.49,338.09Z" transform="translate(-252.47 -137.02)"/><path class="cls-13" d="M497.09,334.46a11.83,11.83,0,0,1-8.57,0c-1.17-.58-1.87-1.41-1.59-2.12l5.75-11.3,5.63,10.45C498.82,332.67,498.69,333.66,497.09,334.46Z" transform="translate(-252.47 -137.02)"/><path class="cls-14" d="M496.68,330.46a9.76,9.76,0,0,1-7.77,0c-1.17-.58-1.87-1.4-1.59-2.12l5.34-7.26,5.23,6.41C498.41,328.67,498.29,329.66,496.68,330.46Z" transform="translate(-252.47 -137.02)"/><path class="cls-9" d="M474.6,335.85c-1.29-.64-1.29-1.69,0-2.33a5.87,5.87,0,0,1,4.66,0c1.29.64,1.29,1.69,0,2.33A5.87,5.87,0,0,1,474.6,335.85Z" transform="translate(-252.47 -137.02)"/><path class="cls-10" d="M478,324.85v9.6a.47.47,0,0,1-.28.39,1.49,1.49,0,0,1-1.36,0,.48.48,0,0,1-.28-.39v-9.6a.48.48,0,0,0,.28.39,1.49,1.49,0,0,0,1.36,0A.48.48,0,0,0,478,324.85Z" transform="translate(-252.47 -137.02)"/><path class="cls-11" d="M477.68,324.45a.42.42,0,0,1,0,.79,1.49,1.49,0,0,1-1.36,0,.41.41,0,0,1,0-.79A1.49,1.49,0,0,1,477.68,324.45Z" transform="translate(-252.47 -137.02)"/><path class="cls-12" d="M482,329.72c-2.15,1.07-7.23,1.07-9.38,0-1.16-.58-1.87-1.41-1.59-2.12l6.15-11.29,6,10.45C483.69,327.93,483.57,328.92,482,329.72Z" transform="translate(-252.47 -137.02)"/><path class="cls-13" d="M481.56,326.09a11.83,11.83,0,0,1-8.57,0c-1.17-.58-1.87-1.41-1.59-2.12l5.75-11.29,5.63,10.45C483.29,324.3,483.16,325.29,481.56,326.09Z" transform="translate(-252.47 -137.02)"/><path class="cls-14" d="M481.15,322.09a9.76,9.76,0,0,1-7.77,0c-1.16-.58-1.87-1.41-1.59-2.12l5.34-7.26,5.23,6.42C482.88,320.3,482.76,321.29,481.15,322.09Z" transform="translate(-252.47 -137.02)"/><path class="cls-9" d="M459.14,327.81c-1.29-.64-1.29-1.69,0-2.33a5.87,5.87,0,0,1,4.66,0c1.29.64,1.29,1.69,0,2.33A5.87,5.87,0,0,1,459.14,327.81Z" transform="translate(-252.47 -137.02)"/><path class="cls-10" d="M462.44,316.68v9.6a.47.47,0,0,1-.28.39,1.49,1.49,0,0,1-1.36,0,.48.48,0,0,1-.28-.39v-9.6a.48.48,0,0,0,.28.39,1.49,1.49,0,0,0,1.36,0A.48.48,0,0,0,462.44,316.68Z" transform="translate(-252.47 -137.02)"/><path class="cls-11" d="M462.16,316.29a.42.42,0,0,1,0,.79,1.49,1.49,0,0,1-1.36,0,.41.41,0,0,1,0-.79A1.49,1.49,0,0,1,462.16,316.29Z" transform="translate(-252.47 -137.02)"/><path class="cls-12" d="M466.43,321.56c-2.15,1.07-7.23,1.07-9.38,0-1.17-.58-1.87-1.41-1.59-2.12l6.15-11.29,6,10.45C468.16,319.76,468,320.76,466.43,321.56Z" transform="translate(-252.47 -137.02)"/><path class="cls-13" d="M466,317.93a11.83,11.83,0,0,1-8.57,0c-1.17-.58-1.87-1.41-1.59-2.12l5.75-11.29L467.24,315C467.76,316.13,467.63,317.13,466,317.93Z" transform="translate(-252.47 -137.02)"/><path class="cls-14" d="M465.63,313.93a9.76,9.76,0,0,1-7.77,0c-1.16-.58-1.87-1.41-1.59-2.12l5.34-7.26,5.23,6.42C467.36,312.13,467.23,313.13,465.63,313.93Z" transform="translate(-252.47 -137.02)"/><path class="cls-24" d="M323.75,387.88c0,1.21-1,1.7-2.19,1.09l-15.13-7.57a4.11,4.11,0,0,1-2.19-3.28h0c0-1.21,1-1.7,2.19-1.09l15.13,7.57a4.11,4.11,0,0,1,2.19,3.28Z" transform="translate(-252.47 -137.02)"/><path class="cls-61" d="M323.5,387.69c0,1-.84,1.46-1.88.94l-13-6.5a3.53,3.53,0,0,1-1.88-2.82h0c0-1,.84-1.46,1.88-.94l13,6.5a3.53,3.53,0,0,1,1.88,2.82Z" transform="translate(-252.47 -137.02)"/><polygon class="cls-62" points="164.54 169.21 159.63 166.9 158.14 167.64 158.14 167.64 156.64 168.38 161.56 170.68 163.04 169.95 163.04 169.95 164.54 169.21"/><polygon class="cls-62" points="158.62 172.15 153.7 169.84 152.22 170.58 152.22 170.58 150.72 171.32 155.64 173.62 157.12 172.89 157.12 172.89 158.62 172.15"/><polygon class="cls-63" points="161.59 170.67 156.68 168.37 155.19 169.11 155.19 169.11 153.69 169.85 158.61 172.15 160.09 171.41 160.1 171.41 161.59 170.67"/><path class="cls-64" d="M387.29,320.93l-3,1.48,0,1.72h0c0,.4.3.72,1.7,0,1.06-.53,1.28-1.1,1.27-1.51Z" transform="translate(-252.47 -137.02)"/><path class="cls-64" d="M393.24,318l-3,1.48,0,1.72h0c0,.4.3.72,1.7,0,1.06-.53,1.28-1.1,1.27-1.51Z" transform="translate(-252.47 -137.02)"/><path class="cls-64" d="M399.17,315l-3,1.48,0,1.72h0c0,.4.3.72,1.7,0,1.06-.53,1.28-1.1,1.27-1.5Z" transform="translate(-252.47 -137.02)"/><path class="cls-64" d="M405.12,312.09l-3,1.48,0,1.72h0c0,.4.3.72,1.7,0,1.06-.53,1.28-1.1,1.27-1.5Z" transform="translate(-252.47 -137.02)"/><path class="cls-64" d="M411.07,309.16l-3,1.48,0,1.72h0c0,.4.3.72,1.7,0,1.06-.53,1.28-1.1,1.27-1.51Z" transform="translate(-252.47 -137.02)"/><path class="cls-64" d="M417,306.2l-3,1.48,0,1.72h0c0,.4.3.72,1.7,0,1.06-.53,1.28-1.1,1.27-1.51Z" transform="translate(-252.47 -137.02)"/><path class="cls-65" d="M390.28,319.47l-3,1.48,0,1.72h0c0,.4.3.72,1.7,0,1.06-.53,1.29-1.1,1.29-1.51Z" transform="translate(-252.47 -137.02)"/><path class="cls-65" d="M396.21,316.51l-3,1.48,0,1.72h0c0,.4.3.72,1.7,0,1.06-.53,1.29-1.1,1.29-1.51Z" transform="translate(-252.47 -137.02)"/><path class="cls-65" d="M402.15,313.57l-3,1.48,0,1.72h0c0,.4.3.72,1.7,0,1.06-.53,1.29-1.1,1.29-1.5Z" transform="translate(-252.47 -137.02)"/><path class="cls-65" d="M408.11,310.63l-3,1.48,0,1.72h0c0,.4.3.72,1.7,0,1.06-.53,1.29-1.1,1.29-1.51Z" transform="translate(-252.47 -137.02)"/><path class="cls-65" d="M414.05,307.68l-3,1.48,0,1.72h0c0,.4.3.72,1.7,0,1.06-.53,1.29-1.1,1.29-1.51Z" transform="translate(-252.47 -137.02)"/><polygon class="cls-62" points="152.66 175.08 147.74 172.78 146.26 173.51 146.25 173.51 144.76 174.25 149.68 176.56 151.16 175.82 151.16 175.82 152.66 175.08"/><polygon class="cls-63" points="155.63 173.6 150.72 171.3 149.23 172.04 149.23 172.04 147.73 172.78 152.65 175.08 154.13 174.35 154.13 174.35 155.63 173.6"/><polygon class="cls-62" points="146.71 178.01 141.8 175.71 140.31 176.45 140.31 176.45 138.81 177.19 143.73 179.49 145.22 178.75 145.22 178.75 146.71 178.01"/><polygon class="cls-63" points="149.69 176.54 144.77 174.24 143.28 174.97 143.28 174.97 141.79 175.72 146.7 178.02 148.19 177.28 148.19 177.28 149.69 176.54"/><polygon class="cls-62" points="134.38 179.4 139.3 181.71 137.81 182.45 132.89 180.15 134.38 179.4"/><polygon class="cls-63" points="143.76 179.5 138.85 177.19 137.36 177.93 137.36 177.93 135.86 178.67 140.78 180.97 142.26 180.24 142.26 180.24 143.76 179.5"/><polygon class="cls-62" points="134.38 179.4 139.3 181.71 137.81 182.45 132.89 180.15 134.38 179.4"/><polygon class="cls-63" points="137.82 182.45 132.9 180.14 131.41 180.88 131.41 180.88 129.92 181.62 134.83 183.92 136.32 183.19 136.32 183.19 137.82 182.45"/><polygon class="cls-62" points="140.79 180.97 135.87 178.67 134.38 179.41 134.38 179.41 132.89 180.15 137.81 182.45 139.3 181.71 139.3 181.71 140.79 180.97"/><polygon class="cls-62" points="134.84 183.92 129.93 181.62 128.44 182.35 128.44 182.35 127 183.1 131.86 185.4 133.35 184.66 133.35 184.66 134.84 183.92"/><path class="cls-24" d="M528.2,346.35c0,3.08-2.49,6.81-5.57,8.35-1.87.95-3.54.84-4.54-.09a1.26,1.26,0,0,1-.22-.22,3.64,3.64,0,0,1-.8-2.47c0-3.08,2.49-6.81,5.57-8.35,2-1,3.73-.83,4.71.24a0,0,0,0,1,0,0A3.63,3.63,0,0,1,528.2,346.35Z" transform="translate(-252.47 -137.02)"/><path class="cls-24" d="M542.14,338.79c0,3.08-2.49,6.81-5.57,8.35-1.87.95-3.54.83-4.54-.09a1.25,1.25,0,0,1-.22-.22,3.64,3.64,0,0,1-.8-2.47c0-3.08,2.49-6.81,5.57-8.35,2-1,3.73-.83,4.71.24a0,0,0,0,1,0,0A3.63,3.63,0,0,1,542.14,338.79Z" transform="translate(-252.47 -137.02)"/><path class="cls-66" d="M528.06,345.68c-.85-.92-2.34-1.07-4-.21-2.65,1.32-4.78,4.53-4.78,7.17a3.13,3.13,0,0,0,.69,2.12l-1.12-1.13a3.12,3.12,0,0,1-.73-2.15c0-2.63,2.14-5.85,4.78-7.17a3.56,3.56,0,0,1,3.65-.09Z" transform="translate(-252.47 -137.02)"/><path class="cls-25" d="M528.79,347.86c0,2.65-2.14,5.85-4.78,7.17-1.61.81-3,.72-3.91-.08a1.11,1.11,0,0,1-.19-.19,3.13,3.13,0,0,1-.69-2.12c0-2.65,2.14-5.85,4.78-7.17,1.71-.86,3.2-.72,4,.21a0,0,0,0,1,0,0A3.12,3.12,0,0,1,528.79,347.86Z" transform="translate(-252.47 -137.02)"/><path class="cls-66" d="M541.93,338.14c-.85-.92-2.34-1.07-4-.21-2.65,1.32-4.78,4.53-4.78,7.17a3.13,3.13,0,0,0,.69,2.12l-1.12-1.13a3.12,3.12,0,0,1-.73-2.15c0-2.63,2.14-5.85,4.78-7.17a3.56,3.56,0,0,1,3.65-.09Z" transform="translate(-252.47 -137.02)"/><path class="cls-25" d="M542.67,340.32c0,2.65-2.14,5.85-4.78,7.17-1.61.81-3,.72-3.91-.08a1.11,1.11,0,0,1-.19-.19,3.13,3.13,0,0,1-.69-2.12c0-2.65,2.14-5.85,4.78-7.17,1.71-.86,3.2-.72,4,.21a0,0,0,0,1,0,0A3.12,3.12,0,0,1,542.67,340.32Z" transform="translate(-252.47 -137.02)"/><path class="cls-10" d="M346,317.35v6.16a.3.3,0,0,1-.18.25,1,1,0,0,1-.87,0,.31.31,0,0,1-.18-.25v-6.16a.31.31,0,0,0,.18.25,1,1,0,0,0,.87,0A.31.31,0,0,0,346,317.35Z" transform="translate(-252.47 -137.02)"/><path class="cls-12" d="M348.52,320.48a9,9,0,0,1-6,0c-.75-.37-1.2-.9-1-1.36l3.95-7.25,3.87,6.71C349.63,319.33,349.55,320,348.52,320.48Z" transform="translate(-252.47 -137.02)"/><path class="cls-13" d="M348.26,318.15a7.59,7.59,0,0,1-5.5,0c-.75-.37-1.2-.9-1-1.36l3.69-7.25,3.61,6.71C349.37,317,349.29,317.64,348.26,318.15Z" transform="translate(-252.47 -137.02)"/><path class="cls-14" d="M348,315.59a6.26,6.26,0,0,1-5,0c-.75-.37-1.2-.9-1-1.36l3.43-4.66,3.35,4.12C349.11,314.44,349,315.07,348,315.59Z" transform="translate(-252.47 -137.02)"/><path class="cls-10" d="M354.84,321.27v6.16a.3.3,0,0,1-.18.25,1,1,0,0,1-.87,0,.31.31,0,0,1-.18-.25v-6.16a.31.31,0,0,0,.18.25,1,1,0,0,0,.87,0A.31.31,0,0,0,354.84,321.27Z" transform="translate(-252.47 -137.02)"/><path class="cls-12" d="M357.4,324.4a9,9,0,0,1-6,0c-.75-.37-1.2-.9-1-1.36l3.95-7.25,3.87,6.7C358.51,323.25,358.43,323.89,357.4,324.4Z" transform="translate(-252.47 -137.02)"/><path class="cls-13" d="M357.14,322.07a7.57,7.57,0,0,1-5.5,0c-.75-.37-1.2-.9-1-1.36l3.69-7.25,3.61,6.71C358.25,320.92,358.17,321.56,357.14,322.07Z" transform="translate(-252.47 -137.02)"/><path class="cls-14" d="M356.88,319.51a6.26,6.26,0,0,1-5,0c-.75-.37-1.2-.9-1-1.36l3.43-4.66,3.35,4.12C358,318.35,357.91,319,356.88,319.51Z" transform="translate(-252.47 -137.02)"/></g><g id="Compas"><polygon class="cls-8" points="184.42 315.09 183.47 314.42 265.22 273.23 266.01 273.93 184.42 315.09"/><polygon class="cls-8" points="264.56 313.93 190.45 276.48 191.26 275.79 265.66 313.29 264.56 313.93"/><path class="cls-8" d="M477.25,445.78q-1,0-2-.08l.05-1q1,.05,2,.08Zm2,0v-1c.66,0,1.32,0,2-.05l0,1Q480.27,445.78,479.26,445.79Zm-6-.23c-.67-.06-1.34-.13-2-.21l.12-1q1,.12,2,.21Zm10.07.06-.07-1q1-.07,2-.18l.11,1C484.63,445.51,484,445.57,483.29,445.62Zm-14.08-.55q-1-.16-2-.35l.19-1q1,.19,2,.34Zm18.09.11-.14-1q1-.14,2-.32l.18,1C488.63,445,488,445.08,487.3,445.18Zm-22-.88q-1-.23-2-.5l.27-1c.63.17,1.27.34,1.92.49Zm26,.15-.22-1q1-.22,1.92-.47l.26,1Q492.26,444.23,491.27,444.45Zm-29.91-1.24q-1-.32-1.91-.68l.36-.93q.91.35,1.86.66Zm33.82.19-.31-1q1-.3,1.87-.65l.35.94Q496.15,443.09,495.17,443.4Zm-37.6-1.64q-.87-.39-1.69-.81c-.62-.32-1.22-.65-1.78-1l.52-.86c.54.33,1.12.65,1.72,1s1.08.54,1.64.79ZM499,442l-.4-.92,1.07-.5.71-.35.46.89-.73.37Zm3.61-1.88-.53-.85c.57-.36,1.12-.73,1.62-1.1l.6.8C503.74,439.34,503.17,439.72,502.57,440.09Zm-50.16-1.26a20.14,20.14,0,0,1-1.59-1.29l.67-.74A19.18,19.18,0,0,0,453,438Zm53.43-1.21-.69-.73a13.7,13.7,0,0,0,1.31-1.42l.78.63A14.85,14.85,0,0,1,505.83,437.62Zm-56.47-1.54a13,13,0,0,1-1.23-1.67l.85-.52a12.11,12.11,0,0,0,1.14,1.54Zm59-1.71-.88-.47a8.72,8.72,0,0,0,.72-1.74l1,.27A9.75,9.75,0,0,1,508.4,434.37Zm-61.19-1.85a8.78,8.78,0,0,1-.48-2.06l1-.11a7.86,7.86,0,0,0,.43,1.83Zm62.31-2.19-1,0v-.13a7.4,7.4,0,0,0-.19-1.73l1-.22a8.43,8.43,0,0,1,.21,2Zm-61.77-1.85-1-.15a8.87,8.87,0,0,1,.56-2l.93.38A7.89,7.89,0,0,0,447.76,428.49Zm60-1.82a10.43,10.43,0,0,0-1-1.63l.81-.59a11.47,11.47,0,0,1,1.08,1.79ZM449.15,425l-.83-.55a13.15,13.15,0,0,1,1.28-1.63l.74.68A12.32,12.32,0,0,0,449.15,425Zm56.34-1.44a16.75,16.75,0,0,0-1.44-1.3l.63-.78a18.27,18.27,0,0,1,1.52,1.38Zm-53.75-1.4-.65-.76a19.78,19.78,0,0,1,1.63-1.24l.56.82C452.73,421.37,452.21,421.76,451.73,422.17Zm50.74-1.05c-.52-.35-1.08-.69-1.67-1l.49-.87c.61.34,1.2.7,1.74,1.06ZM454.95,420l-.49-.87q.8-.46,1.69-.89l.1,0,.46.89-.12.06Q455.72,419.51,454.95,420Zm44.11-.77q-.87-.42-1.8-.8l.38-.93q1,.39,1.85.82Zm-40.57-.94-.38-.93c.62-.25,1.25-.49,1.9-.72l.33.95Q459.39,417.87,458.49,418.24Zm36.92-.56q-.92-.32-1.88-.61l.29-1q1,.29,1.92.63Zm-33.19-.74-.28-1q1-.29,2-.53l.24,1Q463.16,416.66,462.22,416.94Zm29.41-.39c-.63-.16-1.28-.31-1.93-.45l.21-1q1,.21,2,.46ZM466.06,416l-.2-1q1-.2,2-.37l.16,1C467.35,415.74,466.7,415.86,466.06,416Zm21.69-.27q-1-.17-2-.3l.14-1q1,.14,2,.31ZM470,415.34l-.13-1q1-.13,2-.22l.09,1C471.27,415.18,470.62,415.26,470,415.34Zm13.86-.16c-.66-.07-1.32-.12-2-.17l.07-1q1,.07,2,.17Zm-9.91-.21-.06-1q1-.06,2-.09l0,1Q474.9,414.91,473.91,415Zm5.95-.07-1.58,0h-.4v-1h.41l1.61,0Z" transform="translate(-252.47 -137.02)"/><polygon class="cls-3" points="244.69 306.78 244.7 306.8 244.69 306.8 224.4 302.6 204.09 306.8 204.1 306.79 211.26 296.64 204.1 286.5 204.09 286.5 204.09 286.49 224.4 290.69 244.7 286.49 244.69 286.5 237.53 296.64 244.69 306.78"/><polygon class="cls-67" points="245.62 303.68 225.31 299.49 205.01 303.68 205.02 303.68 205.01 303.68 205.01 301.24 225.31 297.05 245.61 301.24 245.61 303.67 245.61 303.67 245.62 303.68"/><polygon class="cls-67" points="212.17 291.09 211.31 292.31 205.01 283.38 205.01 280.94 205.02 280.94 212.17 291.09"/><polygon class="cls-67" points="245.62 280.95 245.62 283.38 245.61 283.39 239.31 292.31 238.45 291.09 245.61 280.95 245.62 280.95"/><path class="cls-68" d="M498.09,418l-20.3,4.2L457.48,418h0l7.16,10.15-7.16,10.14h0l20.31-4.2,20.29,4.2h0l-7.16-10.14L498.08,418Z" transform="translate(-252.47 -137.02)"/><path class="cls-69" d="M465.33,429.59l-4.64,6.57h0l13.17-2.72Z" transform="translate(-252.47 -137.02)"/><path class="cls-59" d="M465.39,430.07l-4,5.66h0l11.33-2.34Z" transform="translate(-252.47 -137.02)"/><path class="cls-70" d="M482.38,427.76v.2a2.23,2.23,0,0,1-1.35,1.42,8.32,8.32,0,0,1-6.6,0c-.91-.45-1.36-1-1.36-1.65a.2.2,0,0,1,0-.08c0-.58.48-1.14,1.35-1.58a8.33,8.33,0,0,1,6.6,0c.93.46,1.35,1.07,1.34,1.68Z" transform="translate(-252.47 -137.02)"/><path class="cls-69" d="M489.77,426.15l4.17-5.9-11.81,2.44Z" transform="translate(-252.47 -137.02)"/><path class="cls-67" d="M481,427.52v.78h0a1.49,1.49,0,0,1-1,1.09,5.87,5.87,0,0,1-4.71,0c-.66-.33-1-.76-1-1.2v-.83c0,.43.32.85,1,1.17a5.93,5.93,0,0,0,4.71,0A1.59,1.59,0,0,0,481,427.52Z" transform="translate(-252.47 -137.02)"/><path class="cls-71" d="M481,427.37v.14a1.59,1.59,0,0,1-1,1,5.93,5.93,0,0,1-4.71,0c-.65-.32-1-.75-1-1.17a.15.15,0,0,1,0-.05c0-.41.34-.82,1-1.13a5.94,5.94,0,0,1,4.71,0c.66.33,1,.76,1,1.2Z" transform="translate(-252.47 -137.02)"/><path class="cls-72" d="M489.54,425.78l3.64-5.15-10.31,2.13Z" transform="translate(-252.47 -137.02)"/><path class="cls-8" d="M515.42,408.82l8.09-4,1.14.57-1.5,3.34a11.07,11.07,0,0,1-1.18,2h0c1-.59,1.94-1.09,3.2-1.72l3.38-1.69,1,.49-8.09,4-1.06-.53L522,408a12.22,12.22,0,0,1,1.19-2.11h0c-1,.54-1.91,1-3.25,1.71l-3.45,1.73Z" transform="translate(-252.47 -137.02)"/><path class="cls-8" d="M425.88,455a2.88,2.88,0,0,0,1.34,1.2,3.55,3.55,0,0,0,3.07.16c.75-.38.76-.81.08-1.56-.85-.89-1-1.64.16-2.21a5.76,5.76,0,0,1,4.81.21,3.21,3.21,0,0,1,1.39,1.09l-1.14.28a2.64,2.64,0,0,0-1.15-1,3.22,3.22,0,0,0-2.73-.16c-.76.38-.64.81,0,1.58.84.95.88,1.63-.31,2.22a6,6,0,0,1-5.16-.25,3.48,3.48,0,0,1-1.55-1.29Z" transform="translate(-252.47 -137.02)"/></g><g id="Cloud"><path class="cls-73" d="M387.41,190.14a5.05,5.05,0,0,0-5.17-1.15,11.8,11.8,0,0,1,2.06-.91h0a4.36,4.36,0,0,1,3.17-.23A7.44,7.44,0,0,0,387.41,190.14Z" transform="translate(-252.47 -137.02)"/><path class="cls-73" d="M422.79,211c0,1.51-.35,2.37-1.14,2.71l-1.91,1a2.92,2.92,0,0,0,.83-2.59,6.21,6.21,0,0,0-.95-2.91,13.58,13.58,0,0,0-2.47-3c-.44-.41-5.15-3.82-5.31-3.39a6,6,0,0,0-.34-4.07c-1.87-4.51-13-10.73-11.29-4.52-1.48-5.37-6.57-9.18-9.89-9,2.23-3,8.84.31,11.45,6.08l1.08-.58c2.13-1.29,9.39,3.34,10.87,6.91a6,6,0,0,1,.34,4.07c.17-.42,4.87,3,5.31,3.39a13.48,13.48,0,0,1,2.46,3A6.22,6.22,0,0,1,422.79,211Z" transform="translate(-252.47 -137.02)"/><path class="cls-74" d="M419.74,214.67c-1.37,1-4.38-.08-8.69-2.49l-18.84-9.42c-3.5-1.75-11.81-5.88-11-12.44a1.67,1.67,0,0,1,1-1.31h0a5.05,5.05,0,0,1,5.17,1.15,7.44,7.44,0,0,1,.06-2.29,2.93,2.93,0,0,1,2.86-2.62c3.32-.18,8.42,3.62,9.89,9-1.71-6.21,9.41,0,11.29,4.52a6,6,0,0,1,.34,4.07c.17-.43,4.87,3,5.31,3.39a13.58,13.58,0,0,1,2.47,3,6.21,6.21,0,0,1,.95,2.91A2.92,2.92,0,0,1,419.74,214.67Z" transform="translate(-252.47 -137.02)"/><path class="cls-73" d="M406.07,225.48a5.05,5.05,0,0,0-5.17-1.15,11.8,11.8,0,0,1,2.06-.91h0a4.36,4.36,0,0,1,3.17-.23A7.43,7.43,0,0,0,406.07,225.48Z" transform="translate(-252.47 -137.02)"/><path class="cls-73" d="M441.46,246.31c0,1.51-.35,2.37-1.14,2.71l-1.91,1a2.91,2.91,0,0,0,.83-2.58,6.22,6.22,0,0,0-.95-2.91,13.62,13.62,0,0,0-2.47-3c-.44-.41-5.15-3.82-5.31-3.39a6,6,0,0,0-.34-4.07c-1.87-4.51-13-10.73-11.29-4.52-1.48-5.37-6.57-9.18-9.89-9,2.23-3,8.84.31,11.45,6.08l1.08-.58c2.13-1.29,9.39,3.34,10.87,6.91a6.06,6.06,0,0,1,.34,4.07c.17-.42,4.87,3,5.31,3.39a13.53,13.53,0,0,1,2.46,3A6.21,6.21,0,0,1,441.46,246.31Z" transform="translate(-252.47 -137.02)"/><path class="cls-74" d="M438.41,250c-1.37,1-4.37-.08-8.69-2.49l-18.84-9.42c-3.5-1.75-11.81-5.88-11-12.44a1.67,1.67,0,0,1,1-1.31h0a5.05,5.05,0,0,1,5.17,1.15,7.43,7.43,0,0,1,.06-2.29,2.93,2.93,0,0,1,2.86-2.62c3.32-.18,8.42,3.62,9.89,9-1.71-6.21,9.41,0,11.29,4.52a6,6,0,0,1,.34,4.07c.17-.43,4.87,3,5.31,3.39a13.62,13.62,0,0,1,2.47,3,6.22,6.22,0,0,1,.95,2.91A2.91,2.91,0,0,1,438.41,250Z" transform="translate(-252.47 -137.02)"/><path class="cls-73" d="M310.07,200.81a5.05,5.05,0,0,0-5.17-1.15,11.8,11.8,0,0,1,2.06-.91h0a4.36,4.36,0,0,1,3.17-.23A7.43,7.43,0,0,0,310.07,200.81Z" transform="translate(-252.47 -137.02)"/><path class="cls-73" d="M345.46,221.64c0,1.51-.35,2.37-1.14,2.71l-1.91,1a2.91,2.91,0,0,0,.83-2.59,6.22,6.22,0,0,0-.95-2.91,13.62,13.62,0,0,0-2.47-3c-.44-.41-5.15-3.82-5.31-3.39a6,6,0,0,0-.34-4.07c-1.87-4.51-13-10.73-11.29-4.52-1.48-5.37-6.57-9.18-9.89-9,2.23-3,8.84.31,11.45,6.08l1.08-.58c2.13-1.29,9.39,3.34,10.87,6.91a6.06,6.06,0,0,1,.34,4.07c.17-.42,4.87,3,5.31,3.39a13.53,13.53,0,0,1,2.46,3A6.21,6.21,0,0,1,345.46,221.64Z" transform="translate(-252.47 -137.02)"/><path class="cls-74" d="M342.41,225.34c-1.37,1-4.37-.08-8.69-2.49l-18.84-9.42c-3.5-1.75-11.81-5.88-11-12.44a1.67,1.67,0,0,1,1-1.31h0a5.05,5.05,0,0,1,5.17,1.15,7.43,7.43,0,0,1,.06-2.29A2.93,2.93,0,0,1,313,195.9c3.32-.18,8.42,3.62,9.89,9-1.71-6.21,9.41,0,11.29,4.52a6,6,0,0,1,.34,4.07c.17-.43,4.87,3,5.31,3.39a13.62,13.62,0,0,1,2.47,3,6.22,6.22,0,0,1,.95,2.91A2.91,2.91,0,0,1,342.41,225.34Z" transform="translate(-252.47 -137.02)"/><path class="cls-73" d="M516.74,272.14a5.05,5.05,0,0,0-5.17-1.15,11.83,11.83,0,0,1,2.06-.91h0a4.36,4.36,0,0,1,3.17-.23A7.44,7.44,0,0,0,516.74,272.14Z" transform="translate(-252.47 -137.02)"/><path class="cls-73" d="M552.13,293c0,1.51-.35,2.37-1.14,2.71l-1.91,1a2.91,2.91,0,0,0,.83-2.58,6.22,6.22,0,0,0-.95-2.91,13.62,13.62,0,0,0-2.47-3c-.44-.41-5.15-3.82-5.31-3.39a6,6,0,0,0-.34-4.07c-1.87-4.51-13-10.73-11.29-4.52-1.48-5.37-6.58-9.18-9.89-9,2.23-3,8.84.31,11.45,6.08l1.08-.58c2.13-1.29,9.39,3.34,10.87,6.91a6.06,6.06,0,0,1,.34,4.07c.17-.42,4.87,3,5.31,3.39a13.53,13.53,0,0,1,2.46,3A6.21,6.21,0,0,1,552.13,293Z" transform="translate(-252.47 -137.02)"/><path class="cls-74" d="M549.07,296.67c-1.37,1-4.37-.08-8.69-2.49l-18.84-9.42c-3.5-1.75-11.81-5.88-11-12.44a1.67,1.67,0,0,1,1-1.31h0a5.05,5.05,0,0,1,5.17,1.15,7.44,7.44,0,0,1,.06-2.29,2.93,2.93,0,0,1,2.86-2.62c3.32-.18,8.42,3.62,9.89,9-1.71-6.21,9.41,0,11.29,4.52a6,6,0,0,1,.34,4.07c.17-.43,4.87,3,5.31,3.39a13.62,13.62,0,0,1,2.47,3,6.22,6.22,0,0,1,.95,2.91A2.91,2.91,0,0,1,549.07,296.67Z" transform="translate(-252.47 -137.02)"/><path class="cls-73" d="M478.74,225.48a5.05,5.05,0,0,0-5.17-1.15,11.8,11.8,0,0,1,2.05-.91h0a4.36,4.36,0,0,1,3.17-.23A7.44,7.44,0,0,0,478.74,225.48Z" transform="translate(-252.47 -137.02)"/><path class="cls-73" d="M514.13,246.31c0,1.51-.35,2.37-1.14,2.71l-1.91,1a2.91,2.91,0,0,0,.83-2.58,6.22,6.22,0,0,0-.95-2.91,13.62,13.62,0,0,0-2.47-3c-.44-.41-5.15-3.82-5.31-3.39a6,6,0,0,0-.34-4.07c-1.87-4.51-13-10.73-11.29-4.52-1.48-5.37-6.57-9.18-9.89-9,2.23-3,8.85.31,11.45,6.08l1.08-.58c2.13-1.29,9.39,3.34,10.87,6.91a6.06,6.06,0,0,1,.34,4.07c.17-.42,4.87,3,5.31,3.39a13.53,13.53,0,0,1,2.46,3A6.21,6.21,0,0,1,514.13,246.31Z" transform="translate(-252.47 -137.02)"/><path class="cls-74" d="M511.07,250c-1.37,1-4.37-.08-8.69-2.49l-18.84-9.42c-3.5-1.75-11.81-5.88-11-12.44a1.67,1.67,0,0,1,1-1.31h0a5.05,5.05,0,0,1,5.17,1.15,7.44,7.44,0,0,1,.06-2.29,2.93,2.93,0,0,1,2.86-2.62c3.32-.18,8.42,3.62,9.89,9-1.71-6.21,9.41,0,11.29,4.52a6,6,0,0,1,.34,4.07c.17-.43,4.87,3,5.31,3.39a13.62,13.62,0,0,1,2.47,3,6.22,6.22,0,0,1,.95,2.91A2.91,2.91,0,0,1,511.07,250Z" transform="translate(-252.47 -137.02)"/><g class="cloud"><path class="cls-73" d="M305.4,246.81a5.05,5.05,0,0,0-5.17-1.15,11.78,11.78,0,0,1,2.05-.91h0a4.36,4.36,0,0,1,3.17-.23A7.44,7.44,0,0,0,305.4,246.81Z" transform="translate(-252.47 -137.02)"/><path class="cls-73" d="M340.79,267.64c0,1.51-.35,2.37-1.14,2.71l-1.91,1a2.91,2.91,0,0,0,.83-2.58,6.23,6.23,0,0,0-.95-2.91,13.62,13.62,0,0,0-2.47-3c-.44-.41-5.15-3.82-5.31-3.39a6,6,0,0,0-.34-4.07c-1.87-4.51-13-10.73-11.29-4.52-1.48-5.37-6.57-9.18-9.89-9,2.23-3,8.85.31,11.45,6.08l1.08-.58c2.13-1.29,9.39,3.34,10.87,6.91a6.06,6.06,0,0,1,.34,4.07c.17-.42,4.87,3,5.31,3.39a13.55,13.55,0,0,1,2.46,3A6.21,6.21,0,0,1,340.79,267.64Z" transform="translate(-252.47 -137.02)"/><path class="cls-74" d="M337.74,271.33c-1.37,1-4.37-.08-8.69-2.49l-18.84-9.42c-3.5-1.75-11.81-5.88-11-12.44a1.67,1.67,0,0,1,1-1.31h0a5.05,5.05,0,0,1,5.17,1.15,7.44,7.44,0,0,1,.06-2.29,2.93,2.93,0,0,1,2.86-2.62c3.32-.18,8.42,3.63,9.89,9-1.71-6.21,9.41,0,11.29,4.52a6,6,0,0,1,.34,4.07c.17-.43,4.87,3,5.31,3.39a13.62,13.62,0,0,1,2.47,3,6.23,6.23,0,0,1,.95,2.91A2.91,2.91,0,0,1,337.74,271.33Z" transform="translate(-252.47 -137.02)"/></g></g><g id="Tags"><path class="cls-57" d="M540,224.69c0,4.51-8,23.11-8.15,23.45h-5.65s8.16-18.9,8.16-23.46-2.12-9.26-8.16-12.28a6.58,6.58,0,0,0-4.54-.84v0l5.56-1.41v0c1.84-.34,3.13,0,5.62,1.24C538.84,214.43,540,220.13,540,224.69Z" transform="translate(-252.47 -137.02)"/><path class="cls-54" d="M534.33,224.69c0,4.56-8.16,23.46-8.16,23.46l0-.13c-.63-1.92-8.14-25.13-8.14-29.5,0-3.15,1-6.3,3.64-7a6.58,6.58,0,0,1,4.54.84C532.21,215.43,534.33,220.13,534.33,224.69Z" transform="translate(-252.47 -137.02)"/><path class="cls-75" d="M522,223.32c-1.17-3.56-.27-6.81,2-7.26s5.08,2.08,6.25,5.65.27,6.81-2,7.26S523.19,226.89,522,223.32Z" transform="translate(-252.47 -137.02)"/><g class="car-graph"><path class="cls-18" d="M346.63,295.43c0,4.51-8,23.11-8.15,23.45h-5.65S341,300,341,295.43s-2.12-9.26-8.16-12.28a6.58,6.58,0,0,0-4.54-.84v0l5.56-1.41v0c1.84-.34,3.13,0,5.62,1.24C345.51,285.17,346.63,290.87,346.63,295.43Z" transform="translate(-252.47 -137.02)"/><path class="cls-19" d="M341,295.43c0,4.56-8.16,23.46-8.16,23.46l0-.13c-.63-1.92-8.14-25.13-8.14-29.5,0-3.15,1-6.3,3.64-7a6.58,6.58,0,0,1,4.54.84C338.87,286.17,341,290.87,341,295.43Z" transform="translate(-252.47 -137.02)"/><path class="cls-75" d="M328.69,294.07c-1.17-3.56-.27-6.81,2-7.26s5.08,2.08,6.25,5.64.27,6.82-2,7.26S329.86,297.63,328.69,294.07Z" transform="translate(-252.47 -137.02)"/></g><g class="truck-graph"><path class="cls-58" d="M435.3,169.06c0,4.51,8,23.11,8.15,23.45h5.65s-8.16-18.9-8.16-23.46,2.12-9.26,8.16-12.28a6.58,6.58,0,0,1,4.54-.84v0l-5.56-1.41v0c-1.84-.34-3.13,0-5.62,1.24C436.42,158.8,435.3,164.5,435.3,169.06Z" transform="translate(-252.47 -137.02)"/><path class="cls-60" d="M440.94,169.06c0,4.56,8.16,23.46,8.16,23.46l0-.13c.63-1.92,8.14-25.13,8.14-29.5,0-3.15-1-6.3-3.64-7a6.58,6.58,0,0,0-4.54.84C443.06,159.8,440.94,164.5,440.94,169.06Z" transform="translate(-252.47 -137.02)"/><path class="cls-75" d="M453.24,167.7c1.17-3.56.27-6.81-2-7.26s-5.08,2.08-6.25,5.64-.27,6.82,2,7.26S452.07,171.26,453.24,167.7Z" transform="translate(-252.47 -137.02)"/></g><path class="cls-27" d="M389.63,224.85c0,4.51-8,23.11-8.15,23.45h-5.65s8.16-18.9,8.16-23.46-2.12-9.26-8.16-12.28a6.58,6.58,0,0,0-4.54-.84v0l5.56-1.41v0c1.84-.34,3.13,0,5.62,1.24C388.51,214.59,389.63,220.29,389.63,224.85Z" transform="translate(-252.47 -137.02)"/><path class="cls-28" d="M384,224.85c0,4.56-8.16,23.46-8.16,23.46l0-.13c-.63-1.92-8.14-25.13-8.14-29.5,0-3.15,1-6.3,3.64-7a6.58,6.58,0,0,1,4.54.84C381.88,215.59,384,220.29,384,224.85Z" transform="translate(-252.47 -137.02)"/><path class="cls-75" d="M371.69,223.49c-1.17-3.56-.27-6.81,2-7.26s5.08,2.08,6.25,5.64.27,6.82-2,7.26S372.86,227.05,371.69,223.49Z" transform="translate(-252.47 -137.02)"/></g></g></svg>
