<svg id="color" enable-background="new 0 0 24 24" height="512" viewBox="0 0 24 24" width="512" xmlns="http://www.w3.org/2000/svg"><path d="m21.75 14h-3.5c-.689 0-1.25.561-1.25 1.25v8c0 .414.336.75.75.75h4.5c.414 0 .75-.336.75-.75v-8c0-.689-.561-1.25-1.25-1.25z" fill="#2196f3"/><path d="m13.75 10h-3.5c-.689 0-1.25.561-1.25 1.25v12c0 .414.336.75.75.75h4.5c.414 0 .75-.336.75-.75v-12c0-.689-.561-1.25-1.25-1.25z" fill="#64b5f6"/><path d="m5.75 6h-3.5c-.689 0-1.25.561-1.25 1.25v16c0 .414.336.75.75.75h4.5c.414 0 .75-.336.75-.75v-16c0-.689-.561-1.25-1.25-1.25z" fill="#90caf9"/><path d="m4 6h-1.75c-.689 0-1.25.561-1.25 1.25v16c0 .414.336.75.75.75h2.25z" fill="#7db0d9"/><path d="m12 10h-1.75c-.689 0-1.25.561-1.25 1.25v12c0 .414.336.75.75.75h2.25z" fill="#579ed6"/><path d="m20 14h-1.75c-.689 0-1.25.561-1.25 1.25v8c0 .414.336.75.75.75h2.25z" fill="#1d83d4"/><path d="m23.25 24h-22.5c-.414 0-.75-.336-.75-.75s.336-.75.75-.75h22.5c.414 0 .75.336.75.75s-.336.75-.75.75z" fill="#607d8b"/><path d="m24 23.25h-24c0 .414.336.75.75.75h22.5c.414 0 .75-.336.75-.75z" fill="#546d79"/><path d="m20.75 10.75c-.256 0-.512-.098-.707-.293l-7.75-7.75c-.391-.391-.391-1.023 0-1.414s1.023-.391 1.414 0l7.75 7.75c.391.391.391 1.023 0 1.414-.195.195-.451.293-.707.293z" fill="#f44336"/><path d="m21.25 11h-3.5c-.303 0-.577-.183-.693-.463s-.052-.603.163-.817l3.5-3.5c.215-.214.537-.279.817-.163s.463.39.463.693v3.5c0 .414-.336.75-.75.75z" fill="#f44336"/><g fill="#d43a2f"><path d="m12.293 1.293c-.391.391-.391 1.023 0 1.414l5.97 5.97.707-.707z"/><path d="m18.97 7.97-.707.707-1.043 1.043c-.214.214-.279.537-.163.817s.39.463.693.463h3.5c.207 0 .394-.084.53-.22z"/></g></svg>