<svg height="512" viewBox="0 0 128 128" width="512" xmlns="http://www.w3.org/2000/svg"><g><g><path d="m41.506 117.75h-26.11l.68-14.25 3.78-79.31h17.19l3.78 79.31z" fill="#eaeaf0"/><path d="m18.448 24.192h20v6h-20z" fill="#d8d8d8"/><path d="m12.249 120.75.966-20.25h30.471l.966 20.25z" fill="#d8d8d8"/><path d="m87.031 117.75h-26.11l.68-14.25 3.78-79.31h17.19l3.78 79.31z" fill="#eaeaf0"/><path d="m63.973 24.192h20v6h-20z" fill="#d8d8d8"/><path d="m115.5 117.5h-87.052v-56.94l87.052-10.464z" fill="#3ba9fd"/><path d="m6.5 115.5h115v6h-115z" fill="#0e8bce"/><g fill="#eaeaf0"><path d="m71.978 95.5h12v20h-12z"/><path d="m74.978 80.667h6v6h-6z"/><path d="m93.181 80.667h6v6h-6z"/><path d="m90.181 95.5h12v20h-12z"/></g></g><g fill="#051720"><path d="m37.448 10.75a7.759 7.759 0 0 0 -7.748 7.75 1.75 1.75 0 0 0 3.5 0 4.254 4.254 0 0 1 4.25-4.25h11.389a1.75 1.75 0 0 0 0-3.5z"/><path d="m59.323 10.75h-3.1a1.75 1.75 0 0 0 0 3.5h3.1a1.75 1.75 0 1 0 0-3.5z"/><path d="m49.714 8.25h9.609a1.75 1.75 0 1 0 0-3.5h-9.609a1.75 1.75 0 0 0 0 3.5z"/><path d="m25.448 20.25a1.749 1.749 0 0 0 1.752-1.75 10.261 10.261 0 0 1 10.248-10.25h4.62a1.75 1.75 0 0 0 0-3.5h-4.62a13.765 13.765 0 0 0 -13.748 13.75 1.749 1.749 0 0 0 1.748 1.75z"/><path d="m82.973 10.75a7.759 7.759 0 0 0 -7.75 7.75 1.75 1.75 0 0 0 3.5 0 4.254 4.254 0 0 1 4.25-4.25h5.277a1.75 1.75 0 0 0 0-3.5z"/><path d="m93.875 12.5a1.749 1.749 0 0 0 1.75 1.75h9.223a1.75 1.75 0 0 0 0-3.5h-9.223a1.749 1.749 0 0 0 -1.75 1.75z"/><path d="m102.437 8.25h2.411a1.75 1.75 0 0 0 0-3.5h-2.411a1.75 1.75 0 0 0 0 3.5z"/><path d="m70.973 20.25a1.75 1.75 0 0 0 1.75-1.75 10.261 10.261 0 0 1 10.25-10.25h9.839a1.75 1.75 0 0 0 0-3.5h-9.839a13.765 13.765 0 0 0 -13.75 13.75 1.749 1.749 0 0 0 1.75 1.75z"/><path d="m111.25 70.485v-6a1.75 1.75 0 0 0 -3.5 0v6a1.75 1.75 0 1 0 3.5 0z"/><path d="m121.5 113.75h-4.25v-62.1l4.459-.536a1.75 1.75 0 0 0 -.418-3.474l-15.733 1.891a1.75 1.75 0 0 0 .207 3.488 1.694 1.694 0 0 0 .211-.013l7.774-.935v61.679h-9.819v-18.25a1.75 1.75 0 0 0 -1.75-1.75h-12a1.749 1.749 0 0 0 -1.75 1.75v18.25h-2.7v-18.25a1.75 1.75 0 0 0 -1.75-1.75h-12a1.749 1.749 0 0 0 -1.75 1.75v18.25h-14.314a1.75 1.75 0 0 0 0 3.5h63.833v2.5h-111.5v-2.5h27.667a1.75 1.75 0 0 0 0-3.5h-5.717v-51.637l65.634-7.89a1.75 1.75 0 0 0 -.418-3.475l-9.768 1.174-.96-20.136a1.747 1.747 0 0 0 1.035-1.594v-6a1.751 1.751 0 0 0 -1.75-1.75h-20a1.75 1.75 0 0 0 -1.75 1.75v6a1.747 1.747 0 0 0 1.039 1.6l-1.09 22.955-21.793 2.62-.5-10.652a1.75 1.75 0 1 0 -3.5.166l.516 10.905-14.656 1.759a1.75 1.75 0 0 0 .207 3.487 1.879 1.879 0 0 0 .211-.012l4.043-.487v36.217h-8.645l3.184-66.808h14.432l.31 6.558a1.75 1.75 0 0 0 1.748 1.667h.083a1.751 1.751 0 0 0 1.666-1.831l-.311-6.55a1.746 1.746 0 0 0 1.033-1.594v-6a1.75 1.75 0 0 0 -1.75-1.75h-20a1.75 1.75 0 0 0 -1.75 1.75v6a1.748 1.748 0 0 0 1.044 1.6l-3.193 66.958h-1.331a1.75 1.75 0 0 0 -1.748 1.666l-.64 13.334h-4.332a1.749 1.749 0 0 0 -1.75 1.75v6a1.749 1.749 0 0 0 1.75 1.75h115a1.749 1.749 0 0 0 1.75-1.75v-6a1.749 1.749 0 0 0 -1.75-1.75zm-47.772 0v-16.5h8.5v16.5zm18.2 0v-16.5h8.5v16.5zm-26.205-87.808h16.5v2.5h-16.5zm1.036 6h14.433l.972 20.4-16.464 1.979zm-46.561-6h16.502v2.5h-16.5zm-5.31 76.308h11.812v11.5h-12.364z"/><path d="m43.5 113.75a1.75 1.75 0 0 0 0 3.5h4.917a1.75 1.75 0 0 0 0-3.5z"/><path d="m62.2 89.667a1.749 1.749 0 0 0 -1.75-1.75h-20a1.75 1.75 0 0 0 0 3.5h20a1.749 1.749 0 0 0 1.75-1.75z"/><path d="m60.448 75.917h-20a1.75 1.75 0 0 0 0 3.5h20a1.75 1.75 0 1 0 0-3.5z"/><path d="m60.448 81.917h-20a1.75 1.75 0 0 0 0 3.5h20a1.75 1.75 0 1 0 0-3.5z"/><path d="m74.978 78.917a1.749 1.749 0 0 0 -1.75 1.75v6a1.749 1.749 0 0 0 1.75 1.75h6a1.75 1.75 0 0 0 1.75-1.75v-6a1.75 1.75 0 0 0 -1.75-1.75zm4.25 6h-2.5v-2.5h2.5z"/><path d="m93.181 78.917a1.749 1.749 0 0 0 -1.75 1.75v6a1.749 1.749 0 0 0 1.75 1.75h6a1.75 1.75 0 0 0 1.75-1.75v-6a1.75 1.75 0 0 0 -1.75-1.75zm4.25 6h-2.5v-2.5h2.5z"/></g></g></svg>