<svg height="512" viewBox="0 0 128 128" width="512" xmlns="http://www.w3.org/2000/svg"><g><path d="m41.506 117.75h-26.11l.68-14.25 3.78-79.31h17.19l3.78 79.31z" fill="#eaeaf0"/><path d="m18.448 24.192h20v6h-20z" fill="#d8d8d8"/><path d="m12.249 120.75.966-20.25h30.471l.966 20.25z" fill="#d8d8d8"/><path d="m31.448 20.25a1.749 1.749 0 0 1 -1.748-1.75 7.759 7.759 0 0 1 7.75-7.75h11.389a1.75 1.75 0 0 1 0 3.5h-11.391a4.254 4.254 0 0 0 -4.248 4.25 1.749 1.749 0 0 1 -1.752 1.75z" fill="#d8d8d8"/><path d="m59.323 14.25h-3.1a1.75 1.75 0 0 1 0-3.5h3.1a1.75 1.75 0 1 1 0 3.5z" fill="#d8d8d8"/><path d="m59.323 8.25h-9.609a1.75 1.75 0 0 1 0-3.5h9.609a1.75 1.75 0 1 1 0 3.5z" fill="#d8d8d8"/><path d="m25.448 20.25a1.749 1.749 0 0 1 -1.748-1.75 13.765 13.765 0 0 1 13.748-13.75h4.62a1.75 1.75 0 0 1 0 3.5h-4.62a10.261 10.261 0 0 0 -10.248 10.25 1.749 1.749 0 0 1 -1.752 1.75z" fill="#d8d8d8"/><path d="m87.031 117.75h-26.11l.68-14.25 3.78-79.31h17.19l3.78 79.31z" fill="#eaeaf0"/><path d="m63.973 24.192h20v6h-20z" fill="#d8d8d8"/><path d="m76.973 20.25a1.749 1.749 0 0 1 -1.75-1.75 7.759 7.759 0 0 1 7.75-7.75h5.277a1.75 1.75 0 0 1 0 3.5h-5.277a4.254 4.254 0 0 0 -4.25 4.25 1.75 1.75 0 0 1 -1.75 1.75z" fill="#d8d8d8"/><path d="m104.848 14.25h-9.223a1.75 1.75 0 0 1 0-3.5h9.223a1.75 1.75 0 0 1 0 3.5z" fill="#d8d8d8"/><path d="m104.848 8.25h-2.411a1.75 1.75 0 0 1 0-3.5h2.411a1.75 1.75 0 0 1 0 3.5z" fill="#d8d8d8"/><path d="m70.973 20.25a1.749 1.749 0 0 1 -1.75-1.75 13.765 13.765 0 0 1 13.75-13.75h9.839a1.75 1.75 0 0 1 0 3.5h-9.839a10.261 10.261 0 0 0 -10.25 10.25 1.75 1.75 0 0 1 -1.75 1.75z" fill="#d8d8d8"/><path d="m115.5 117.5h-87.052v-56.94l87.052-10.464z" fill="#3ba9fd"/><path d="m109.5 72.235a1.749 1.749 0 0 1 -1.75-1.75v-6a1.75 1.75 0 0 1 3.5 0v6a1.749 1.749 0 0 1 -1.75 1.75z" fill="#0e8bce"/><path d="m6.5 115.5h115v6h-115z" fill="#0e8bce"/><g fill="#eaeaf0"><path d="m71.978 95.5h12v20h-12z"/><path d="m60.448 91.417h-20a1.75 1.75 0 0 1 0-3.5h20a1.75 1.75 0 1 1 0 3.5z"/><path d="m60.448 79.417h-20a1.75 1.75 0 0 1 0-3.5h20a1.75 1.75 0 1 1 0 3.5z"/><path d="m60.448 85.417h-20a1.75 1.75 0 0 1 0-3.5h20a1.75 1.75 0 1 1 0 3.5z"/><path d="m74.978 80.667h6v6h-6z"/><path d="m93.181 80.667h6v6h-6z"/><path d="m90.181 95.5h12v20h-12z"/></g><path d="m22.446 63.032a1.75 1.75 0 0 1 -.207-3.487l99.052-11.907a1.75 1.75 0 0 1 .418 3.474l-99.052 11.908a1.879 1.879 0 0 1 -.211.012z" fill="#0e8bce"/></g></svg>