<svg id="Capa_1" enable-background="new 0 0 512 512" height="512" viewBox="0 0 512 512" width="512" xmlns="http://www.w3.org/2000/svg"><path d="m104.999 221c-57.989 0-104.999 47.01-104.999 104.999v109.958c0 .014.002.028.002.042h136.998l72.999-72.999c0-12.105 0-24.631-.001-37.005-.001-57.987-47.01-104.995-104.999-104.995z" fill="#00afff"/><path d="m105 221v215h32l72.999-72.999c0-12.105 0-24.631-.001-37.005-.001-57.988-47.01-104.996-104.998-104.996z" fill="#008cfa"/><path d="m307 366 82.955-82.955c-1.564-56.623-47.954-102.045-104.956-102.045-57.989 0-104.999 47.01-104.999 104.999v107.001l77-77z" fill="#ff823c"/><path d="m285 344 22 22 82.955-82.955c-1.564-56.623-47.954-102.045-104.955-102.045z" fill="#f06923"/><path d="m285 211c-41.355 0-75-33.645-75-75s33.645-75 75-75 75 33.645 75 75-33.644 75-75 75z" fill="#ffd0af"/><path d="m360 136c0-41.355-33.645-75-75-75v150c41.356 0 75-33.645 75-75z" fill="#fabe8c"/><path d="m497 161h-60c-8.284 0-15 6.716-15 15s6.716 15 15 15h23.787l-153.787 153.787-39.394-39.394c-5.857-5.857-15.355-5.857-21.213 0l-115.606 115.607h-115.787c-8.284 0-15 6.716-15 15s6.716 15 15 15h122c3.979 0 7.794-1.58 10.606-4.394l109.394-109.393 39.394 39.394c5.857 5.857 15.355 5.857 21.213 0l164.393-164.394v23.787c0 8.284 6.716 15 15 15s15-6.716 15-15v-60c0-8.284-6.716-15-15-15z" fill="#435569"/><path d="m105 251c-41.355 0-75-33.645-75-75s33.645-75 75-75 75 33.645 75 75-33.645 75-75 75z" fill="#ffd0af"/><path d="m180 176c0-41.355-33.645-75-75-75v150c41.355 0 75-33.645 75-75z" fill="#fabe8c"/></svg>