<svg width="717" height="139" viewBox="0 0 717 139" fill="none" xmlns="http://www.w3.org/2000/svg">
<path d="M187.04 17.4766V58H180.027V23.1543H167.613L166.89 38.8237C166.611 43.7222 166.008 47.5259 165.081 50.2349C164.172 52.9253 162.845 54.8921 161.101 56.1353C159.357 57.3784 157.019 58 154.087 58H152.306V52.3779L153.419 52.2944C155.033 52.146 156.277 51.5801 157.149 50.5967C158.039 49.6133 158.707 48.1289 159.152 46.1436C159.616 44.1396 159.941 41.1987 160.127 37.3208L160.906 17.4766H187.04ZM208.137 58.5566C203.851 58.5566 200.372 57.2114 197.7 54.521C195.047 51.812 193.72 48.2124 193.72 43.7222V42.8872C193.72 39.8813 194.295 37.2002 195.445 34.8438C196.614 32.4688 198.247 30.6226 200.344 29.3052C202.441 27.9878 204.778 27.3291 207.358 27.3291C211.458 27.3291 214.622 28.6372 216.848 31.2534C219.093 33.8696 220.216 37.5713 220.216 42.3584V45.0859H200.539C200.743 47.5723 201.569 49.5391 203.016 50.9863C204.482 52.4336 206.319 53.1572 208.527 53.1572C211.625 53.1572 214.149 51.9048 216.097 49.3999L219.743 52.8789C218.537 54.6787 216.923 56.0796 214.9 57.0815C212.896 58.0649 210.642 58.5566 208.137 58.5566ZM207.33 32.7563C205.474 32.7563 203.971 33.4058 202.821 34.7046C201.689 36.0034 200.965 37.8125 200.65 40.1318H213.536V39.6309C213.388 37.3672 212.785 35.6602 211.727 34.5098C210.67 33.3408 209.204 32.7563 207.33 32.7563ZM237.861 53.1572C239.55 53.1572 240.951 52.6655 242.064 51.6821C243.177 50.6987 243.771 49.4834 243.845 48.0361H250.219C250.145 49.9102 249.56 51.6636 248.465 53.2964C247.371 54.9106 245.886 56.1909 244.012 57.1372C242.138 58.0835 240.116 58.5566 237.945 58.5566C233.733 58.5566 230.393 57.1929 227.925 54.4653C225.458 51.7378 224.224 47.9712 224.224 43.1655V42.4697C224.224 37.8867 225.448 34.2222 227.898 31.4761C230.347 28.7114 233.687 27.3291 237.917 27.3291C241.498 27.3291 244.411 28.3774 246.656 30.4741C248.92 32.5522 250.108 35.2891 250.219 38.6846H243.845C243.771 36.959 243.177 35.5396 242.064 34.4263C240.969 33.313 239.569 32.7563 237.861 32.7563C235.672 32.7563 233.984 33.5542 232.796 35.1499C231.609 36.7271 231.006 39.1299 230.987 42.3584V43.4438C230.987 46.7095 231.571 49.1494 232.74 50.7637C233.928 52.3594 235.635 53.1572 237.861 53.1572ZM254.06 42.6646C254.06 39.7144 254.644 37.061 255.813 34.7046C256.982 32.3296 258.624 30.5112 260.739 29.2495C262.855 27.9692 265.285 27.3291 268.031 27.3291C272.095 27.3291 275.388 28.6372 277.912 31.2534C280.454 33.8696 281.827 37.3394 282.031 41.6626L282.059 43.249C282.059 46.2178 281.484 48.8711 280.333 51.209C279.201 53.5469 277.569 55.356 275.435 56.6362C273.319 57.9165 270.87 58.5566 268.087 58.5566C263.838 58.5566 260.433 57.1465 257.873 54.3262C255.331 51.4873 254.06 47.7114 254.06 42.9985V42.6646ZM260.823 43.249C260.823 46.3477 261.463 48.7783 262.743 50.541C264.024 52.2852 265.805 53.1572 268.087 53.1572C270.369 53.1572 272.141 52.2666 273.403 50.4854C274.683 48.7041 275.323 46.0972 275.323 42.6646C275.323 39.6216 274.665 37.2095 273.347 35.4282C272.048 33.647 270.277 32.7563 268.031 32.7563C265.823 32.7563 264.07 33.6377 262.771 35.4004C261.472 37.1445 260.823 39.7607 260.823 43.249ZM313.314 58H306.551V33.3408H294.806V58H288.043V27.8857H313.314V58ZM346.88 43.249C346.88 47.9062 345.822 51.6265 343.707 54.4097C341.591 57.1743 338.753 58.5566 335.19 58.5566C331.887 58.5566 329.243 57.4712 327.258 55.3003V69.5781H320.495V27.8857H326.729L327.007 30.9473C328.993 28.5352 331.693 27.3291 335.107 27.3291C338.78 27.3291 341.656 28.7021 343.735 31.4482C345.831 34.1758 346.88 37.9702 346.88 42.8315V43.249ZM340.144 42.6646C340.144 39.6587 339.541 37.2744 338.335 35.5117C337.148 33.749 335.441 32.8677 333.214 32.8677C330.449 32.8677 328.464 34.0088 327.258 36.291V49.6504C328.483 51.9883 330.486 53.1572 333.27 53.1572C335.422 53.1572 337.101 52.2944 338.307 50.5688C339.532 48.8247 340.144 46.1899 340.144 42.6646ZM351.361 42.6646C351.361 39.7144 351.945 37.061 353.114 34.7046C354.283 32.3296 355.925 30.5112 358.04 29.2495C360.155 27.9692 362.586 27.3291 365.332 27.3291C369.396 27.3291 372.689 28.6372 375.213 31.2534C377.755 33.8696 379.128 37.3394 379.332 41.6626L379.36 43.249C379.36 46.2178 378.784 48.8711 377.634 51.209C376.502 53.5469 374.869 55.356 372.736 56.6362C370.62 57.9165 368.171 58.5566 365.388 58.5566C361.139 58.5566 357.734 57.1465 355.173 54.3262C352.632 51.4873 351.361 47.7114 351.361 42.9985V42.6646ZM358.124 43.249C358.124 46.3477 358.764 48.7783 360.044 50.541C361.324 52.2852 363.106 53.1572 365.388 53.1572C367.67 53.1572 369.442 52.2666 370.704 50.4854C371.984 48.7041 372.624 46.0972 372.624 42.6646C372.624 39.6216 371.965 37.2095 370.648 35.4282C369.349 33.647 367.577 32.7563 365.332 32.7563C363.124 32.7563 361.371 33.6377 360.072 35.4004C358.773 37.1445 358.124 39.7607 358.124 43.249ZM402.961 49.6782L411.867 27.8857H420.328V58H413.565V38.0723L405.271 58H400.679L392.357 37.9609V58H385.594V27.8857H394.111L402.961 49.6782ZM435.218 37.46H441.842C444.31 37.46 446.463 37.8867 448.299 38.7402C450.136 39.5938 451.528 40.7905 452.474 42.3306C453.439 43.8706 453.922 45.6611 453.922 47.7021C453.922 50.8008 452.827 53.2871 450.637 55.1611C448.448 57.0352 445.535 57.9814 441.898 58H428.455V27.8857H435.218V37.46ZM465.694 58H458.931V27.8857H465.694V58ZM435.218 42.8872V52.6006H441.815C443.466 52.6006 444.765 52.1924 445.711 51.376C446.676 50.541 447.158 49.3628 447.158 47.8413C447.158 46.3198 446.685 45.123 445.739 44.251C444.811 43.3604 443.549 42.9058 441.954 42.8872H435.218ZM480.835 27.8857V52.6006H490.242V27.8857H497.006V52.6006H506.441V27.8857H513.176V58H474.072V27.8857H480.835ZM546.101 27.8857V58H539.338V33.3408H530.821L530.265 43.8335C529.912 48.8804 528.938 52.5078 527.342 54.7158C525.765 56.9053 523.344 58 520.078 58H517.991L517.963 52.3779L519.355 52.2388C520.839 52.0347 521.915 51.1348 522.583 49.5391C523.27 47.9248 523.706 44.9932 523.891 40.7441L524.448 27.8857H546.101ZM566.558 58.5566C562.272 58.5566 558.793 57.2114 556.121 54.521C553.467 51.812 552.141 48.2124 552.141 43.7222V42.8872C552.141 39.8813 552.716 37.2002 553.866 34.8438C555.035 32.4688 556.668 30.6226 558.765 29.3052C560.861 27.9878 563.199 27.3291 565.778 27.3291C569.879 27.3291 573.043 28.6372 575.269 31.2534C577.514 33.8696 578.637 37.5713 578.637 42.3584V45.0859H558.96C559.164 47.5723 559.989 49.5391 561.437 50.9863C562.902 52.4336 564.739 53.1572 566.947 53.1572C570.046 53.1572 572.569 51.9048 574.518 49.3999L578.164 52.8789C576.958 54.6787 575.343 56.0796 573.321 57.0815C571.317 58.0649 569.063 58.5566 566.558 58.5566ZM565.751 32.7563C563.895 32.7563 562.392 33.4058 561.242 34.7046C560.11 36.0034 559.386 37.8125 559.071 40.1318H571.957V39.6309C571.809 37.3672 571.206 35.6602 570.148 34.5098C569.09 33.3408 567.625 32.7563 565.751 32.7563ZM609.419 58H602.656V45.8374H590.939V58H584.175V27.8857H590.939V40.438H602.656V27.8857H609.419V58ZM642.15 58H635.386V45.8374H623.669V58H616.906V27.8857H623.669V40.438H635.386V27.8857H642.15V58ZM667.365 58C667.069 57.4248 666.809 56.4878 666.586 55.189C664.434 57.4341 661.799 58.5566 658.682 58.5566C655.657 58.5566 653.19 57.6938 651.278 55.9683C649.367 54.2427 648.412 52.1089 648.412 49.5669C648.412 46.3569 649.599 43.8984 651.974 42.1914C654.368 40.4658 657.782 39.603 662.216 39.603H666.363V37.627C666.363 36.0684 665.927 34.8252 665.055 33.8975C664.183 32.9512 662.857 32.478 661.075 32.478C659.535 32.478 658.274 32.8677 657.29 33.647C656.307 34.4077 655.815 35.3818 655.815 36.5693H649.052C649.052 34.918 649.599 33.3779 650.694 31.9492C651.789 30.502 653.273 29.3701 655.147 28.5537C657.04 27.7373 659.146 27.3291 661.465 27.3291C664.99 27.3291 667.801 28.2197 669.898 30.001C671.995 31.7637 673.071 34.25 673.127 37.46V51.042C673.127 53.751 673.507 55.9126 674.268 57.5269V58H667.365ZM659.934 53.1294C661.27 53.1294 662.523 52.8047 663.692 52.1553C664.879 51.5059 665.77 50.6338 666.363 49.5391V43.8613H662.717C660.213 43.8613 658.329 44.2974 657.068 45.1694C655.806 46.0415 655.175 47.2754 655.175 48.8711C655.175 50.1699 655.602 51.209 656.455 51.9883C657.327 52.749 658.487 53.1294 659.934 53.1294ZM704.326 27.8857V58H697.591V46.9507H691.273L684.844 58H677.83L684.927 45.8374C683.072 45.0581 681.643 43.9448 680.641 42.4976C679.658 41.0503 679.166 39.3896 679.166 37.5156C679.166 34.7139 680.242 32.4224 682.395 30.6411C684.566 28.8413 687.488 27.9229 691.162 27.8857H704.326ZM685.929 37.6826C685.929 38.9443 686.393 39.9741 687.321 40.772C688.267 41.5513 689.473 41.9409 690.939 41.9409H697.591V33.2573H691.357C689.705 33.2573 688.388 33.6748 687.404 34.5098C686.421 35.3447 685.929 36.4023 685.929 37.6826ZM165.22 113.088H161.797V125H155.033V94.8857H161.797V106.909H164.775L173.096 94.8857H181.446L170.564 109.303L182.364 125H173.569L165.22 113.088ZM183.199 109.665C183.199 106.714 183.784 104.061 184.953 101.705C186.122 99.3296 187.764 97.5112 189.879 96.2495C191.994 94.9692 194.425 94.3291 197.171 94.3291C201.235 94.3291 204.528 95.6372 207.051 98.2534C209.593 100.87 210.966 104.339 211.171 108.663L211.198 110.249C211.198 113.218 210.623 115.871 209.473 118.209C208.341 120.547 206.708 122.356 204.574 123.636C202.459 124.917 200.01 125.557 197.227 125.557C192.978 125.557 189.573 124.146 187.012 121.326C184.47 118.487 183.199 114.711 183.199 109.999V109.665ZM189.963 110.249C189.963 113.348 190.603 115.778 191.883 117.541C193.163 119.285 194.944 120.157 197.227 120.157C199.509 120.157 201.281 119.267 202.543 117.485C203.823 115.704 204.463 113.097 204.463 109.665C204.463 106.622 203.804 104.209 202.487 102.428C201.188 100.647 199.416 99.7563 197.171 99.7563C194.963 99.7563 193.21 100.638 191.911 102.4C190.612 104.145 189.963 106.761 189.963 110.249ZM234.8 116.678L243.706 94.8857H252.167V125H245.404V105.072L237.11 125H232.518L224.196 104.961V125H217.433V94.8857H225.949L234.8 116.678ZM285.315 125H278.552V100.341H266.807V125H260.044V94.8857H285.315V125ZM310.503 125C310.206 124.425 309.946 123.488 309.724 122.189C307.571 124.434 304.937 125.557 301.819 125.557C298.795 125.557 296.327 124.694 294.416 122.968C292.505 121.243 291.549 119.109 291.549 116.567C291.549 113.357 292.737 110.898 295.112 109.191C297.506 107.466 300.92 106.603 305.354 106.603H309.501V104.627C309.501 103.068 309.065 101.825 308.193 100.897C307.321 99.9512 305.994 99.478 304.213 99.478C302.673 99.478 301.411 99.8677 300.428 100.647C299.444 101.408 298.953 102.382 298.953 103.569H292.19C292.19 101.918 292.737 100.378 293.832 98.9492C294.926 97.502 296.411 96.3701 298.285 95.5537C300.177 94.7373 302.283 94.3291 304.603 94.3291C308.128 94.3291 310.939 95.2197 313.036 97.001C315.132 98.7637 316.209 101.25 316.264 104.46V118.042C316.264 120.751 316.645 122.913 317.405 124.527V125H310.503ZM303.072 120.129C304.408 120.129 305.66 119.805 306.829 119.155C308.017 118.506 308.907 117.634 309.501 116.539V110.861H305.855C303.35 110.861 301.467 111.297 300.205 112.169C298.944 113.042 298.313 114.275 298.313 115.871C298.313 117.17 298.739 118.209 299.593 118.988C300.465 119.749 301.625 120.129 303.072 120.129ZM348.856 125H342.092V112.837H330.375V125H323.612V94.8857H330.375V107.438H342.092V94.8857H348.856V125ZM374.879 94.8857H381.614V125H374.879V104.905L363.078 125H356.342V94.8857H363.078V114.98L374.879 94.8857ZM412.925 94.8857V125H406.19V113.951H399.872L393.443 125H386.429L393.526 112.837C391.671 112.058 390.242 110.945 389.24 109.498C388.257 108.05 387.765 106.39 387.765 104.516C387.765 101.714 388.841 99.4224 390.993 97.6411C393.164 95.8413 396.087 94.9229 399.76 94.8857H412.925ZM394.528 104.683C394.528 105.944 394.992 106.974 395.92 107.772C396.866 108.551 398.072 108.941 399.538 108.941H406.19V100.257H399.955C398.304 100.257 396.986 100.675 396.003 101.51C395.02 102.345 394.528 103.402 394.528 104.683Z" fill="white"/>
<path d="M118.922 133.362H18.2136C15.255 133.362 12.8567 131.002 12.8567 128.089V8.91016C12.8567 5.99764 15.255 3.63672 18.2136 3.63672H118.922C121.88 3.63672 124.279 5.99764 124.279 8.91016V128.089C124.279 131.002 121.88 133.362 118.922 133.362Z" fill="#F5A55B"/>
<path d="M12.8567 89.2531C13.5612 89.2531 14.2522 88.971 14.7501 88.4805C15.2483 87.9875 15.5352 87.3098 15.5352 86.6164C15.5352 85.9203 15.2486 85.2426 14.7501 84.7496C14.2522 84.2591 13.5612 83.9797 12.8567 83.9797C12.1523 83.9797 11.4613 84.2591 10.9631 84.7496C10.4649 85.2426 10.1783 85.9203 10.1783 86.6164C10.1783 87.3098 10.4646 87.9875 10.9631 88.4805C11.4615 88.971 12.1526 89.2531 12.8567 89.2531Z" fill="black"/>
<path d="M118.922 1H18.2136C13.7829 1 10.1783 4.5485 10.1783 8.91016V60.198C10.1783 60.2025 10.1783 60.207 10.1783 60.2115V77.3768C10.1783 78.833 11.3777 80.0135 12.8567 80.0135C14.3358 80.0135 15.5351 78.833 15.5351 77.3768V65.1978L15.5646 65.2175C26.3621 72.4482 34.4697 82.6418 39.0099 94.6963C44.918 110.381 56.4435 123.131 71.2962 130.726H40.538L38.2675 128.351C32.7671 122.6 29.7378 115.082 29.7378 107.183C29.7378 105.726 28.5384 104.546 27.0593 104.546C25.5803 104.546 24.3809 105.726 24.3809 107.183C24.3809 115.873 27.5133 124.169 33.2347 130.726H18.2136C16.7367 130.726 15.5351 129.543 15.5351 128.089V96.7888C15.5351 95.3326 14.3358 94.1521 12.8567 94.1521C11.3777 94.1521 10.1783 95.3326 10.1783 96.7888V128.089C10.1783 132.451 13.7829 135.999 18.2136 135.999H84.8943C84.9005 135.999 84.9066 136 84.9128 136C84.9195 136 84.9262 135.999 84.9331 135.999H118.922C123.352 135.999 126.957 132.451 126.957 128.089V8.91016C126.957 4.5485 123.352 1 118.922 1ZM121.6 62.4316C119.15 64.7211 116.066 65.9743 112.814 65.9743C109.243 65.9743 105.873 64.4677 103.324 61.7318C97.9181 55.9294 97.9181 46.4881 103.324 40.6855C105.873 37.9497 109.243 36.443 112.814 36.443C116.066 36.443 119.15 37.696 121.6 39.9855V62.4316ZM118.922 130.726H85.374L81.7367 129.456C64.2321 123.343 50.4899 110.006 44.0328 92.8628C39.1034 79.7749 30.3008 68.7078 18.5776 60.8569L15.5354 58.8198V8.91016C15.5354 7.45627 16.737 6.27344 18.2138 6.27344H22.3003C25.527 13.0466 27.2313 20.5389 27.2313 28.0185V35.0242C27.2313 36.4805 28.4307 37.6609 29.9097 37.6609C31.3887 37.6609 32.5881 36.4805 32.5881 35.0242V28.0185C32.5881 20.5848 31.0606 13.1397 28.1556 6.27344H56.5689C47.7845 18.4179 42.9507 34.3864 42.9507 51.3278C42.9507 68.5113 47.9208 84.6968 56.9449 96.9035C66.1558 109.363 78.4835 116.224 91.6571 116.224C93.1361 116.224 94.3355 115.044 94.3355 113.587C94.3355 112.131 93.1361 110.951 91.6571 110.951C80.2416 110.951 69.4524 104.86 61.2762 93.8004C43.9621 70.381 43.9621 32.2744 61.2765 8.85479C61.933 7.96674 62.6144 7.10269 63.3091 6.27317H118.922C120.399 6.27317 121.601 7.45601 121.601 8.90989V33.4585C118.925 31.9643 115.93 31.1691 112.814 31.1691C107.724 31.1691 102.952 33.2827 99.3763 37.1204C92.1394 44.8882 92.1394 57.5276 99.3763 65.2953C102.952 69.1331 107.724 71.2469 112.814 71.2469C115.93 71.2469 118.925 70.4514 121.601 68.9575V94.376C119.504 97.1348 117.217 99.607 114.79 101.724C113.682 102.69 113.58 104.356 114.561 105.446C115.09 106.034 115.827 106.334 116.567 106.334C117.198 106.334 117.832 106.116 118.342 105.671C119.458 104.698 120.545 103.659 121.601 102.561V128.089C121.6 129.543 120.399 130.726 118.922 130.726Z" fill="black"/>
<path d="M76.3086 26.6795C76.8137 27.1062 77.4338 27.3147 78.0509 27.3147C78.8054 27.3147 79.5557 27.0025 80.0854 26.3945C83.5146 22.4584 87.7415 19.5121 92.309 17.875C93.6988 17.3767 94.4153 15.8635 93.9093 14.4953C93.4031 13.1271 91.8654 12.4215 90.4761 12.9198C85.0456 14.8668 80.0463 18.3393 76.0188 22.9618C75.0559 24.0668 75.1855 25.7314 76.3086 26.6795Z" fill="black"/>
<path d="M102.695 86.046L102.647 86.0487C101.17 86.132 100.042 87.3781 100.126 88.832C100.208 90.2345 101.389 91.3179 102.798 91.3179C102.85 91.3179 102.902 91.3163 102.954 91.3134L103.002 91.3108C104.479 91.2275 105.607 89.9813 105.522 88.5275C105.438 87.0736 104.182 85.9648 102.695 86.046Z" fill="black"/>
<path d="M93.8871 85.0531C88.6934 83.5475 83.9207 80.4246 80.0852 76.022C71.384 66.0347 68.7605 51.0929 73.4017 37.956C73.8873 36.5807 73.1489 35.0777 71.7518 34.5994C70.3526 34.1211 68.828 34.8483 68.3422 36.2239C63.0866 51.1003 66.1001 68.0694 76.0191 79.4553C80.5301 84.633 86.1853 88.3178 92.374 90.1121C92.6266 90.1854 92.8813 90.2202 93.1318 90.2202C94.2891 90.2202 95.3567 89.4759 95.7001 88.3276C96.1177 86.9304 95.3061 85.4644 93.8871 85.0531Z" fill="black"/>
</svg>
