<?xml version="1.0" encoding="iso-8859-1"?>
<svg fill="#000" version="1.1" id="Capa_1" xmlns="http://www.w3.org/2000/svg" xmlns:xlink="http://www.w3.org/1999/xlink" x="0px" y="0px"
	 viewBox="0 0 512 512" style="enable-background:new 0 0 512 512;" xml:space="preserve">
<g>
	<g>
		<path d="M188.506,317.601v32.651c0,14.755-12.004,26.758-26.758,26.758c-14.754,0-26.757-12.004-26.757-26.758V0H0v350.252
			C0,439.441,72.559,512,161.748,512s161.748-72.559,161.748-161.748v-32.652H188.506z"/>
	</g>
</g>
<g>
	<g>
		<path d="M350.253,0c-89.188,0-161.748,72.559-161.748,161.747v32.652h134.989v-32.652c0-14.754,12.004-26.757,26.758-26.757
			s26.758,12.004,26.758,26.757V512H512V161.747C512,72.559,439.441,0,350.253,0z"/>
	</g>
</g>
<g>
	<g>
		<rect x="165.038" y="224.401" width="181.919" height="63.203"/>
	</g>
</g>
</svg>
