<svg height="512" viewBox="0 0 128 128" width="512" xmlns="http://www.w3.org/2000/svg"><g><g><path d="m58 59.375h12v44.433h-12z" fill="#eaeaf0"/><path d="m53.5 58h21v12h-21z" fill="#d8d8d8"/><circle cx="64" cy="35.25" fill="#3ba9fd" r="28.75"/><circle cx="64" cy="35.25" fill="#eaeaf0" r="22.75"/><path d="m66.6 36.75a3 3 0 1 1 -5.2-3c.828-1.435 8.127-8.076 8.127-8.076s-2.1 9.641-2.927 11.076z" fill="#3ba9fd"/><path d="m6.5 91.5h115v24h-115z" fill="#eaeaf0"/><path d="m115.5 87h6v33h-6z" fill="#d8d8d8" transform="matrix(-1 0 0 -1 237 207)"/><path d="m6.5 87h6v33h-6z" fill="#d8d8d8"/><rect fill="#3ba9fd" height="36" rx="6" width="39.808" x="44.096" y="85.5"/></g><g fill="#051720"><path d="m37.969 47.594a1.75 1.75 0 0 0 -.687 2.377 30.557 30.557 0 0 0 2.283 3.535 1.75 1.75 0 0 0 2.8-2.1 27.058 27.058 0 0 1 -2.02-3.127 1.75 1.75 0 0 0 -2.376-.685z"/><path d="m64 59.75a24.5 24.5 0 1 0 -24.5-24.5 24.528 24.528 0 0 0 24.5 24.5zm-11.968-41.733.578 1a1.75 1.75 0 0 0 3.03-1.75l-.575-1a20.8 20.8 0 0 1 7.185-1.935v1.168a1.75 1.75 0 0 0 3.5 0v-1.161a20.8 20.8 0 0 1 7.185 1.935l-.575 1a1.75 1.75 0 1 0 3.03 1.75l.578-1a21.174 21.174 0 0 1 5.265 5.265l-1 .578a1.754 1.754 0 0 0 .88 3.27 1.759 1.759 0 0 0 .87-.24l1-.575a20.8 20.8 0 0 1 1.928 7.178h-1.161a1.75 1.75 0 0 0 0 3.5h1.161a20.8 20.8 0 0 1 -1.935 7.185l-1-.575a1.75 1.75 0 0 0 -1.75 3.03l1 .578a20.956 20.956 0 0 1 -34.466 0l1-.578a1.75 1.75 0 0 0 -1.75-3.03l-1 .575a20.8 20.8 0 0 1 -1.921-7.185h1.161a1.75 1.75 0 0 0 0-3.5h-1.161a20.8 20.8 0 0 1 1.935-7.185l1 .575a1.735 1.735 0 0 0 2.39-.64 1.739 1.739 0 0 0 -.64-2.39l-1-.578a21.174 21.174 0 0 1 5.258-5.265z"/><path d="m61.625 39.364a4.754 4.754 0 0 0 6.489-1.739c.894-1.551 2.618-9.254 3.125-11.578a1.75 1.75 0 0 0 -2.888-1.668c-1.759 1.6-7.569 6.945-8.465 8.5a4.757 4.757 0 0 0 1.739 6.485zm1.29-4.734a38.31 38.31 0 0 1 3.606-3.747 38.578 38.578 0 0 1 -1.44 5 1.25 1.25 0 0 1 -2.166-1.248z"/><path d="m58 48.815h12a1.75 1.75 0 0 0 0-3.5h-12a1.75 1.75 0 0 0 0 3.5z"/><path d="m121.5 85.25h-6a1.751 1.751 0 0 0 -1.75 1.75v2.75h-28.3a7.757 7.757 0 0 0 -7.543-6h-6.157v-12h2.75a1.751 1.751 0 0 0 1.75-1.75v-6.827a30.475 30.475 0 1 0 -41.34-18.731 1.75 1.75 0 0 0 3.338-1.054 27.019 27.019 0 1 1 8.236 12.412 1.75 1.75 0 0 0 -2.271 2.663 30.4 30.4 0 0 0 7.537 4.713v6.824a1.751 1.751 0 0 0 1.75 1.75h2.75v12h-6.15a7.757 7.757 0 0 0 -7.543 6h-28.307v-2.75a1.751 1.751 0 0 0 -1.75-1.75h-6a1.751 1.751 0 0 0 -1.75 1.75v33a1.751 1.751 0 0 0 1.75 1.75h6a1.751 1.751 0 0 0 1.75-1.75v-2.75h28.3a7.757 7.757 0 0 0 7.543 6h27.807a7.757 7.757 0 0 0 7.543-6h9.178a1.75 1.75 0 0 0 0-3.5h-8.967v-20.5h28.1v20.5h-10.254a1.75 1.75 0 0 0 0 3.5h10.25v2.75a1.751 1.751 0 0 0 1.75 1.75h6a1.751 1.751 0 0 0 1.75-1.75v-33a1.751 1.751 0 0 0 -1.75-1.75zm-66.25-20.79a30.377 30.377 0 0 0 17.5.005v3.785h-17.5zm4.5 7.29h8.5v12h-8.5zm-47.25 31.332a1.751 1.751 0 0 0 -1.75 1.75v13.418h-2.5v-29.5h2.5v7.625a1.75 1.75 0 0 0 3.5 0v-3.125h28.1v20.5h-28.1v-8.918a1.751 1.751 0 0 0 -1.75-1.75zm65.4 16.668h-27.8a4.254 4.254 0 0 1 -4.248-4.231v-.019c0-.013 0-.026 0-.039v-23.922c0-.013 0-.026 0-.039v-.019a4.254 4.254 0 0 1 4.248-4.231h27.8a4.254 4.254 0 0 1 4.248 4.231v.019.039 23.922.039.019a4.254 4.254 0 0 1 -4.248 4.231zm41.846-1.5h-2.5v-29.5h2.5z"/><path d="m77.9 103.082a1.75 1.75 0 0 0 -1.75 1.75v6.5a1.75 1.75 0 0 0 3.5 0v-6.5a1.751 1.751 0 0 0 -1.75-1.75z"/></g></g></svg>