<?xml version="1.0" encoding="UTF-8" standalone="no"?>
<!DOCTYPE svg PUBLIC "-//W3C//DTD SVG 1.1//EN" "http://www.w3.org/Graphics/SVG/1.1/DTD/svg11.dtd">
<svg version="1.1" xmlns="http://www.w3.org/2000/svg" xmlns:xlink="http://www.w3.org/1999/xlink" preserveAspectRatio="xMidYMid meet" viewBox="0 0 500 364" width="500" height="364"><defs><path d="M0 287.92C0 261.56 0 51.21 0 24.91C0 11.44 10.88 0.56 24.29 0.56C51.94 0.56 273 0.56 300.59 0.56C314 0.56 324.88 12.03 324.88 25.44C324.88 51.68 324.88 261.62 324.88 287.86C324.82 301.27 314 312.15 300.59 312.15C288.18 312.15 188.71 312.15 176.24 312.15C169.82 312.09 157.18 308.09 154.35 293.8C148.06 270.5 126.35 253.86 101.71 253.86C76.47 253.86 54.06 271.74 48.47 296.39C47.12 307.03 38.29 312.21 30.24 312.21C29.94 312.21 29.65 312.21 29.35 312.15C28.82 312.15 24.82 312.21 24.29 312.21C10.88 312.15 0 301.33 0 287.92ZM24.29 294.27C24.88 294.27 29.59 294.27 30.18 294.27C30.24 293.97 30.94 292.68 31 292.39C38.41 259.68 68.18 235.97 101.71 235.97C134.53 235.97 163.24 258.03 171.76 289.68C172.65 294.03 175.76 294.27 176.41 294.27C188.82 294.27 288.18 294.27 300.59 294.27C304.06 294.27 306.94 291.39 306.94 287.92C306.94 261.62 306.94 51.68 306.94 25.44C306.94 21.97 304.12 19.09 300.59 19.09C282.18 19.09 190.06 19.09 24.29 19.09C20 20.62 17.88 22.56 17.88 24.91C17.88 51.21 17.88 261.56 17.88 287.86C17.88 291.39 20.76 294.27 24.29 294.27ZM448.59 91.27C442.94 82.33 430.24 75.33 421.76 75.33C415.35 75.33 364 75.33 357.59 75.33C349.12 75.33 342.24 82.21 342.24 90.68C342.24 110.38 342.24 268.15 342.24 287.86C342.24 296.33 349.12 303.21 357.59 303.21C357.94 303.21 360.94 303.21 361.35 303.21C361.35 303.21 366.94 302.5 369 295.5C374.82 272.39 395.59 255.15 420.47 255.15C444.88 255.15 465.24 271.68 471.53 294.03C474.12 303.5 484.65 303.21 484.65 303.21C493.12 303.21 500 296.33 500 287.86C500 282.39 499.82 254.74 499.59 205.09C499.24 196.86 498.65 190.74 497.88 186.74C496.94 181.62 492.75 174.31 491.47 171.21C487.18 163.21 452.82 99.27 448.59 91.27ZM372.47 112.8C372.47 106.38 377.76 101.09 384.18 101.09C386.76 101.09 407.29 101.09 409.88 101.09C424.47 101.09 434.06 112.91 437.12 118.62C440.06 124.15 463.94 168.56 466.88 174.15C469.94 179.8 467.18 184.44 460.76 184.44C445.41 184.44 391.82 184.44 384.18 184.44C377.71 184.39 372.53 179.15 372.47 172.74C372.47 166.74 372.47 118.8 372.47 112.8Z" id="h2AFQTCL5L"></path><path d="M0 287.92C0 261.56 0 51.21 0 24.91C0 11.44 10.88 0.56 24.29 0.56C51.94 0.56 273 0.56 300.59 0.56C314 0.56 324.88 12.03 324.88 25.44C324.88 51.68 324.88 261.62 324.88 287.86C324.82 301.27 314 312.15 300.59 312.15C288.18 312.15 188.71 312.15 176.24 312.15C169.82 312.09 157.18 308.09 154.35 293.8C148.06 270.5 126.35 253.86 101.71 253.86C76.47 253.86 54.06 271.74 48.47 296.39C47.12 307.03 38.29 312.21 30.24 312.21C29.94 312.21 29.65 312.21 29.35 312.15C28.82 312.15 24.82 312.21 24.29 312.21C10.88 312.15 0 301.33 0 287.92ZM24.29 294.27C24.88 294.27 29.59 294.27 30.18 294.27C30.24 293.97 30.94 292.68 31 292.39C38.41 259.68 68.18 235.97 101.71 235.97C134.53 235.97 163.24 258.03 171.76 289.68C172.65 294.03 175.76 294.27 176.41 294.27C188.82 294.27 288.18 294.27 300.59 294.27C304.06 294.27 306.94 291.39 306.94 287.92C306.94 261.62 306.94 51.68 306.94 25.44C306.94 21.97 304.12 19.09 300.59 19.09C282.18 19.09 190.06 19.09 24.29 19.09C20 20.62 17.88 22.56 17.88 24.91C17.88 51.21 17.88 261.56 17.88 287.86C17.88 291.39 20.76 294.27 24.29 294.27ZM448.59 91.27C442.94 82.33 430.24 75.33 421.76 75.33C415.35 75.33 364 75.33 357.59 75.33C349.12 75.33 342.24 82.21 342.24 90.68C342.24 110.38 342.24 268.15 342.24 287.86C342.24 296.33 349.12 303.21 357.59 303.21C357.94 303.21 360.94 303.21 361.35 303.21C361.35 303.21 366.94 302.5 369 295.5C374.82 272.39 395.59 255.15 420.47 255.15C444.88 255.15 465.24 271.68 471.53 294.03C474.12 303.5 484.65 303.21 484.65 303.21C493.12 303.21 500 296.33 500 287.86C500 282.39 499.82 254.74 499.59 205.09C499.24 196.86 498.65 190.74 497.88 186.74C496.94 181.62 492.75 174.31 491.47 171.21C487.18 163.21 452.82 99.27 448.59 91.27ZM372.47 112.8C372.47 106.38 377.76 101.09 384.18 101.09C386.76 101.09 407.29 101.09 409.88 101.09C424.47 101.09 434.06 112.91 437.12 118.62C440.06 124.15 463.94 168.56 466.88 174.15C469.94 179.8 467.18 184.44 460.76 184.44C445.41 184.44 391.82 184.44 384.18 184.44C377.71 184.39 372.53 179.15 372.47 172.74C372.47 166.74 372.47 118.8 372.47 112.8Z" id="gbRQMEhfs"></path><path d="M0 287.92C0 261.56 0 51.21 0 24.91C0 11.44 10.88 0.56 24.29 0.56C51.94 0.56 273 0.56 300.59 0.56C314 0.56 324.88 12.03 324.88 25.44C324.88 51.68 324.88 261.62 324.88 287.86C324.82 301.27 314 312.15 300.59 312.15C288.18 312.15 188.71 312.15 176.24 312.15C169.82 312.09 157.18 308.09 154.35 293.8C148.06 270.5 126.35 253.86 101.71 253.86C76.47 253.86 54.06 271.74 48.47 296.39C47.12 307.03 38.29 312.21 30.24 312.21C29.94 312.21 29.65 312.21 29.35 312.15C28.82 312.15 24.82 312.21 24.29 312.21C10.88 312.15 0 301.33 0 287.92ZM24.29 294.27C24.88 294.27 29.59 294.27 30.18 294.27C30.24 293.97 30.94 292.68 31 292.39C38.41 259.68 68.18 235.97 101.71 235.97C134.53 235.97 163.24 258.03 171.76 289.68C172.65 294.03 175.76 294.27 176.41 294.27C188.82 294.27 288.18 294.27 300.59 294.27C304.06 294.27 306.94 291.39 306.94 287.92C306.94 261.62 306.94 51.68 306.94 25.44C306.94 21.97 304.12 19.09 300.59 19.09C282.18 19.09 190.06 19.09 24.29 19.09C20 20.62 17.88 22.56 17.88 24.91C17.88 51.21 17.88 261.56 17.88 287.86C17.88 291.39 20.76 294.27 24.29 294.27ZM448.59 91.27C442.94 82.33 430.24 75.33 421.76 75.33C415.35 75.33 364 75.33 357.59 75.33C349.12 75.33 342.24 82.21 342.24 90.68C342.24 110.38 342.24 268.15 342.24 287.86C342.24 296.33 349.12 303.21 357.59 303.21C357.94 303.21 360.94 303.21 361.35 303.21C361.35 303.21 366.94 302.5 369 295.5C374.82 272.39 395.59 255.15 420.47 255.15C444.88 255.15 465.24 271.68 471.53 294.03C474.12 303.5 484.65 303.21 484.65 303.21C493.12 303.21 500 296.33 500 287.86C500 282.39 499.82 254.74 499.59 205.09C499.24 196.86 498.65 190.74 497.88 186.74C496.94 181.62 492.75 174.31 491.47 171.21C487.18 163.21 452.82 99.27 448.59 91.27ZM372.47 112.8C372.47 106.38 377.76 101.09 384.18 101.09C386.76 101.09 407.29 101.09 409.88 101.09C424.47 101.09 434.06 112.91 437.12 118.62C440.06 124.15 463.94 168.56 466.88 174.15C469.94 179.8 467.18 184.44 460.76 184.44C445.41 184.44 391.82 184.44 384.18 184.44C377.71 184.39 372.53 179.15 372.47 172.74C372.47 166.74 372.47 118.8 372.47 112.8Z" id="cIM3FzQfH"></path><path d="M0 287.92C0 261.56 0 51.21 0 24.91C0 11.44 10.88 0.56 24.29 0.56C51.94 0.56 273 0.56 300.59 0.56C314 0.56 324.88 12.03 324.88 25.44C324.88 51.68 324.88 261.62 324.88 287.86C324.82 301.27 314 312.15 300.59 312.15C288.18 312.15 188.71 312.15 176.24 312.15C169.82 312.09 157.18 308.09 154.35 293.8C148.06 270.5 126.35 253.86 101.71 253.86C76.47 253.86 54.06 271.74 48.47 296.39C47.12 307.03 38.29 312.21 30.24 312.21C29.94 312.21 29.65 312.21 29.35 312.15C28.82 312.15 24.82 312.21 24.29 312.21C10.88 312.15 0 301.33 0 287.92ZM24.29 294.27C24.88 294.27 29.59 294.27 30.18 294.27C30.24 293.97 30.94 292.68 31 292.39C38.41 259.68 68.18 235.97 101.71 235.97C134.53 235.97 163.24 258.03 171.76 289.68C172.65 294.03 175.76 294.27 176.41 294.27C188.82 294.27 288.18 294.27 300.59 294.27C304.06 294.27 306.94 291.39 306.94 287.92C306.94 261.62 306.94 51.68 306.94 25.44C306.94 21.97 304.12 19.09 300.59 19.09C282.18 19.09 190.06 19.09 24.29 19.09C20 20.62 17.88 22.56 17.88 24.91C17.88 51.21 17.88 261.56 17.88 287.86C17.88 291.39 20.76 294.27 24.29 294.27ZM448.59 91.27C442.94 82.33 430.24 75.33 421.76 75.33C415.35 75.33 364 75.33 357.59 75.33C349.12 75.33 342.24 82.21 342.24 90.68C342.24 110.38 342.24 268.15 342.24 287.86C342.24 296.33 349.12 303.21 357.59 303.21C357.94 303.21 360.94 303.21 361.35 303.21C361.35 303.21 366.94 302.5 369 295.5C374.82 272.39 395.59 255.15 420.47 255.15C444.88 255.15 465.24 271.68 471.53 294.03C474.12 303.5 484.65 303.21 484.65 303.21C493.12 303.21 500 296.33 500 287.86C500 282.39 499.82 254.74 499.59 205.09C499.24 196.86 498.65 190.74 497.88 186.74C496.94 181.62 492.75 174.31 491.47 171.21C487.18 163.21 452.82 99.27 448.59 91.27ZM372.47 112.8C372.47 106.38 377.76 101.09 384.18 101.09C386.76 101.09 407.29 101.09 409.88 101.09C424.47 101.09 434.06 112.91 437.12 118.62C440.06 124.15 463.94 168.56 466.88 174.15C469.94 179.8 467.18 184.44 460.76 184.44C445.41 184.44 391.82 184.44 384.18 184.44C377.71 184.39 372.53 179.15 372.47 172.74C372.47 166.74 372.47 118.8 372.47 112.8Z" id="daT0qSK1"></path><path d="M20.47 312.21C21.12 312.21 25.94 312.21 26.59 312.21C26.59 311.92 27.29 310.5 27.35 310.21C35 274.86 65.59 249.21 100.06 249.21C133.76 249.21 163.24 273.03 172 307.27C172.94 311.92 176.12 312.21 176.76 312.21C189.53 312.21 291.59 312.21 304.35 312.21C308 312.21 310.94 309.09 310.94 305.33C310.94 276.97 310.94 50.09 310.94 21.74C310.94 17.91 308 14.8 304.35 14.8C285.47 14.8 190.82 14.8 20.47 14.8C16.12 16.44 13.94 18.56 13.94 21.09C13.94 49.5 13.94 276.86 13.94 305.33C13.94 309.09 16.88 312.21 20.47 312.21Z" id="f11LnUlPgM"></path><path d="M20.47 312.21C21.12 312.21 25.94 312.21 26.59 312.21C26.59 311.92 27.29 310.5 27.35 310.21C35 274.86 65.59 249.21 100.06 249.21C133.76 249.21 163.24 273.03 172 307.27C172.94 311.92 176.12 312.21 176.76 312.21C189.53 312.21 291.59 312.21 304.35 312.21C308 312.21 310.94 309.09 310.94 305.33C310.94 276.97 310.94 50.09 310.94 21.74C310.94 17.91 308 14.8 304.35 14.8C285.47 14.8 190.82 14.8 20.47 14.8C16.12 16.44 13.94 18.56 13.94 21.09C13.94 49.5 13.94 276.86 13.94 305.33C13.94 309.09 16.88 312.21 20.47 312.21Z" id="b5mz0nIVj"></path><path d="M20.47 312.21C21.12 312.21 25.94 312.21 26.59 312.21C26.59 311.92 27.29 310.5 27.35 310.21C35 274.86 65.59 249.21 100.06 249.21C133.76 249.21 163.24 273.03 172 307.27C172.94 311.92 176.12 312.21 176.76 312.21C189.53 312.21 291.59 312.21 304.35 312.21C308 312.21 310.94 309.09 310.94 305.33C310.94 276.97 310.94 50.09 310.94 21.74C310.94 17.91 308 14.8 304.35 14.8C285.47 14.8 190.82 14.8 20.47 14.8C16.12 16.44 13.94 18.56 13.94 21.09C13.94 49.5 13.94 276.86 13.94 305.33C13.94 309.09 16.88 312.21 20.47 312.21Z" id="aEa9N5jR"></path><path d="M20.47 312.21C21.12 312.21 25.94 312.21 26.59 312.21C26.59 311.92 27.29 310.5 27.35 310.21C35 274.86 65.59 249.21 100.06 249.21C133.76 249.21 163.24 273.03 172 307.27C172.94 311.92 176.12 312.21 176.76 312.21C189.53 312.21 291.59 312.21 304.35 312.21C308 312.21 310.94 309.09 310.94 305.33C310.94 276.97 310.94 50.09 310.94 21.74C310.94 17.91 308 14.8 304.35 14.8C285.47 14.8 190.82 14.8 20.47 14.8C16.12 16.44 13.94 18.56 13.94 21.09C13.94 49.5 13.94 276.86 13.94 305.33C13.94 309.09 16.88 312.21 20.47 312.21Z" id="f25wWjbVHK"></path><path d="M117.94 171.62L118.24 172.33L118.59 173.03L118.94 173.68L119.41 174.33L119.94 174.91L120.53 175.44L121.12 175.97L121.82 176.39L122.53 176.8L123.29 177.15L124.06 177.44L124.88 177.68L125.71 177.86L126.59 177.97L127.53 177.97L128.41 177.97L129.29 177.86L130.12 177.68L130.94 177.44L131.76 177.15L132.53 176.8L133.24 176.39L133.88 175.97L134.53 175.44L135.12 174.91L135.59 174.33L136.06 173.68L136.47 173.03L136.82 172.33L137.06 171.62L137.29 170.86L137.41 170.09L137.41 169.27L137.41 158.68L187.41 158.68L187.41 169.27L187.18 174.09L186.47 178.74L185.29 183.27L183.65 187.62L181.65 191.86L179.24 195.86L176.47 199.62L173.29 203.21L169.88 206.5L166.12 209.56L162.06 212.27L157.71 214.74L153.18 216.86L148.41 218.62L143.41 220.03L138.29 221.09L132.94 221.74L127.53 221.92L122.06 221.74L116.76 221.09L111.59 220.03L106.65 218.62L101.88 216.86L97.29 214.74L93 212.27L88.94 209.56L85.18 206.5L81.71 203.21L78.59 199.62L75.82 195.86L73.41 191.86L71.35 187.62L69.76 183.27L68.59 178.74L67.82 174.09L67.59 169.27L67.59 55.27L117.59 55.27L117.59 169.27L117.65 170.09L117.76 170.86L117.94 171.62ZM218.24 58.56L223 60.38L227.53 62.5L231.88 64.91L235.88 67.68L239.65 70.74L243.12 74.03L246.29 77.62L249.06 81.38L251.47 85.38L253.47 89.56L255.12 93.97L256.29 98.5L257 103.15L257.24 107.91L257.24 221.92L207.24 221.92L207.24 107.91L207.18 107.15L207.06 106.38L206.88 105.62L206.65 104.91L206.29 104.21L205.88 103.56L205.41 102.91L204.88 102.33L204.35 101.8L203.71 101.27L203.06 100.8L202.35 100.44L201.59 100.09L200.76 99.8L199.94 99.56L199.12 99.38L198.24 99.27L197.35 99.21L196.41 99.27L195.53 99.38L194.71 99.56L193.88 99.8L193.12 100.09L192.35 100.44L191.65 100.8L190.94 101.27L190.35 101.8L189.76 102.33L189.24 102.91L188.76 103.56L188.35 104.21L188.06 104.91L187.76 105.62L187.59 106.38L187.47 107.15L187.41 107.91L187.41 118.56L137.41 118.56L137.41 107.91L137.65 103.15L138.41 98.5L139.59 93.97L141.18 89.56L143.18 85.38L145.59 81.38L148.41 77.62L151.53 74.03L155 70.74L158.76 67.68L162.82 64.91L167.12 62.5L171.65 60.38L176.47 58.56L181.41 57.15L186.59 56.15L191.88 55.5L197.35 55.27L202.76 55.5L208.06 56.15L213.24 57.15L218.24 58.56ZM196.12 128.33L196.12 148.91L128.71 148.91L128.71 128.33L196.12 128.33Z" id="dXKYLQ78j"></path><path d="M117.94 171.62L118.24 172.33L118.59 173.03L118.94 173.68L119.41 174.33L119.94 174.91L120.53 175.44L121.12 175.97L121.82 176.39L122.53 176.8L123.29 177.15L124.06 177.44L124.88 177.68L125.71 177.86L126.59 177.97L127.53 177.97L128.41 177.97L129.29 177.86L130.12 177.68L130.94 177.44L131.76 177.15L132.53 176.8L133.24 176.39L133.88 175.97L134.53 175.44L135.12 174.91L135.59 174.33L136.06 173.68L136.47 173.03L136.82 172.33L137.06 171.62L137.29 170.86L137.41 170.09L137.41 169.27L137.41 158.68L187.41 158.68L187.41 169.27L187.18 174.09L186.47 178.74L185.29 183.27L183.65 187.62L181.65 191.86L179.24 195.86L176.47 199.62L173.29 203.21L169.88 206.5L166.12 209.56L162.06 212.27L157.71 214.74L153.18 216.86L148.41 218.62L143.41 220.03L138.29 221.09L132.94 221.74L127.53 221.92L122.06 221.74L116.76 221.09L111.59 220.03L106.65 218.62L101.88 216.86L97.29 214.74L93 212.27L88.94 209.56L85.18 206.5L81.71 203.21L78.59 199.62L75.82 195.86L73.41 191.86L71.35 187.62L69.76 183.27L68.59 178.74L67.82 174.09L67.59 169.27L67.59 55.27L117.59 55.27L117.59 169.27L117.65 170.09L117.76 170.86L117.94 171.62ZM218.24 58.56L223 60.38L227.53 62.5L231.88 64.91L235.88 67.68L239.65 70.74L243.12 74.03L246.29 77.62L249.06 81.38L251.47 85.38L253.47 89.56L255.12 93.97L256.29 98.5L257 103.15L257.24 107.91L257.24 221.92L207.24 221.92L207.24 107.91L207.18 107.15L207.06 106.38L206.88 105.62L206.65 104.91L206.29 104.21L205.88 103.56L205.41 102.91L204.88 102.33L204.35 101.8L203.71 101.27L203.06 100.8L202.35 100.44L201.59 100.09L200.76 99.8L199.94 99.56L199.12 99.38L198.24 99.27L197.35 99.21L196.41 99.27L195.53 99.38L194.71 99.56L193.88 99.8L193.12 100.09L192.35 100.44L191.65 100.8L190.94 101.27L190.35 101.8L189.76 102.33L189.24 102.91L188.76 103.56L188.35 104.21L188.06 104.91L187.76 105.62L187.59 106.38L187.47 107.15L187.41 107.91L187.41 118.56L137.41 118.56L137.41 107.91L137.65 103.15L138.41 98.5L139.59 93.97L141.18 89.56L143.18 85.38L145.59 81.38L148.41 77.62L151.53 74.03L155 70.74L158.76 67.68L162.82 64.91L167.12 62.5L171.65 60.38L176.47 58.56L181.41 57.15L186.59 56.15L191.88 55.5L197.35 55.27L202.76 55.5L208.06 56.15L213.24 57.15L218.24 58.56ZM196.12 128.33L196.12 148.91L128.71 148.91L128.71 128.33L196.12 128.33Z" id="a3sjbL845T"></path><path d="M117.94 171.62L118.24 172.33L118.59 173.03L118.94 173.68L119.41 174.33L119.94 174.91L120.53 175.44L121.12 175.97L121.82 176.39L122.53 176.8L123.29 177.15L124.06 177.44L124.88 177.68L125.71 177.86L126.59 177.97L127.53 177.97L128.41 177.97L129.29 177.86L130.12 177.68L130.94 177.44L131.76 177.15L132.53 176.8L133.24 176.39L133.88 175.97L134.53 175.44L135.12 174.91L135.59 174.33L136.06 173.68L136.47 173.03L136.82 172.33L137.06 171.62L137.29 170.86L137.41 170.09L137.41 169.27L137.41 158.68L187.41 158.68L187.41 169.27L187.18 174.09L186.47 178.74L185.29 183.27L183.65 187.62L181.65 191.86L179.24 195.86L176.47 199.62L173.29 203.21L169.88 206.5L166.12 209.56L162.06 212.27L157.71 214.74L153.18 216.86L148.41 218.62L143.41 220.03L138.29 221.09L132.94 221.74L127.53 221.92L122.06 221.74L116.76 221.09L111.59 220.03L106.65 218.62L101.88 216.86L97.29 214.74L93 212.27L88.94 209.56L85.18 206.5L81.71 203.21L78.59 199.62L75.82 195.86L73.41 191.86L71.35 187.62L69.76 183.27L68.59 178.74L67.82 174.09L67.59 169.27L67.59 55.27L117.59 55.27L117.59 169.27L117.65 170.09L117.76 170.86L117.94 171.62ZM218.24 58.56L223 60.38L227.53 62.5L231.88 64.91L235.88 67.68L239.65 70.74L243.12 74.03L246.29 77.62L249.06 81.38L251.47 85.38L253.47 89.56L255.12 93.97L256.29 98.5L257 103.15L257.24 107.91L257.24 221.92L207.24 221.92L207.24 107.91L207.18 107.15L207.06 106.38L206.88 105.62L206.65 104.91L206.29 104.21L205.88 103.56L205.41 102.91L204.88 102.33L204.35 101.8L203.71 101.27L203.06 100.8L202.35 100.44L201.59 100.09L200.76 99.8L199.94 99.56L199.12 99.38L198.24 99.27L197.35 99.21L196.41 99.27L195.53 99.38L194.71 99.56L193.88 99.8L193.12 100.09L192.35 100.44L191.65 100.8L190.94 101.27L190.35 101.8L189.76 102.33L189.24 102.91L188.76 103.56L188.35 104.21L188.06 104.91L187.76 105.62L187.59 106.38L187.47 107.15L187.41 107.91L187.41 118.56L137.41 118.56L137.41 107.91L137.65 103.15L138.41 98.5L139.59 93.97L141.18 89.56L143.18 85.38L145.59 81.38L148.41 77.62L151.53 74.03L155 70.74L158.76 67.68L162.82 64.91L167.12 62.5L171.65 60.38L176.47 58.56L181.41 57.15L186.59 56.15L191.88 55.5L197.35 55.27L202.76 55.5L208.06 56.15L213.24 57.15L218.24 58.56ZM196.12 128.33L196.12 148.91L128.71 148.91L128.71 128.33L196.12 128.33Z" id="b205IpTmVF"></path><path d="M117.94 171.62L118.24 172.33L118.59 173.03L118.94 173.68L119.41 174.33L119.94 174.91L120.53 175.44L121.12 175.97L121.82 176.39L122.53 176.8L123.29 177.15L124.06 177.44L124.88 177.68L125.71 177.86L126.59 177.97L127.53 177.97L128.41 177.97L129.29 177.86L130.12 177.68L130.94 177.44L131.76 177.15L132.53 176.8L133.24 176.39L133.88 175.97L134.53 175.44L135.12 174.91L135.59 174.33L136.06 173.68L136.47 173.03L136.82 172.33L137.06 171.62L137.29 170.86L137.41 170.09L137.41 169.27L137.41 158.68L187.41 158.68L187.41 169.27L187.18 174.09L186.47 178.74L185.29 183.27L183.65 187.62L181.65 191.86L179.24 195.86L176.47 199.62L173.29 203.21L169.88 206.5L166.12 209.56L162.06 212.27L157.71 214.74L153.18 216.86L148.41 218.62L143.41 220.03L138.29 221.09L132.94 221.74L127.53 221.92L122.06 221.74L116.76 221.09L111.59 220.03L106.65 218.62L101.88 216.86L97.29 214.74L93 212.27L88.94 209.56L85.18 206.5L81.71 203.21L78.59 199.62L75.82 195.86L73.41 191.86L71.35 187.62L69.76 183.27L68.59 178.74L67.82 174.09L67.59 169.27L67.59 55.27L117.59 55.27L117.59 169.27L117.65 170.09L117.76 170.86L117.94 171.62ZM218.24 58.56L223 60.38L227.53 62.5L231.88 64.91L235.88 67.68L239.65 70.74L243.12 74.03L246.29 77.62L249.06 81.38L251.47 85.38L253.47 89.56L255.12 93.97L256.29 98.5L257 103.15L257.24 107.91L257.24 221.92L207.24 221.92L207.24 107.91L207.18 107.15L207.06 106.38L206.88 105.62L206.65 104.91L206.29 104.21L205.88 103.56L205.41 102.91L204.88 102.33L204.35 101.8L203.71 101.27L203.06 100.8L202.35 100.44L201.59 100.09L200.76 99.8L199.94 99.56L199.12 99.38L198.24 99.27L197.35 99.21L196.41 99.27L195.53 99.38L194.71 99.56L193.88 99.8L193.12 100.09L192.35 100.44L191.65 100.8L190.94 101.27L190.35 101.8L189.76 102.33L189.24 102.91L188.76 103.56L188.35 104.21L188.06 104.91L187.76 105.62L187.59 106.38L187.47 107.15L187.41 107.91L187.41 118.56L137.41 118.56L137.41 107.91L137.65 103.15L138.41 98.5L139.59 93.97L141.18 89.56L143.18 85.38L145.59 81.38L148.41 77.62L151.53 74.03L155 70.74L158.76 67.68L162.82 64.91L167.12 62.5L171.65 60.38L176.47 58.56L181.41 57.15L186.59 56.15L191.88 55.5L197.35 55.27L202.76 55.5L208.06 56.15L213.24 57.15L218.24 58.56ZM196.12 128.33L196.12 148.91L128.71 148.91L128.71 128.33L196.12 128.33Z" id="fup0CjDYY"></path><path d="M421.42 363.5C395.75 363.5 374.91 342.66 374.91 317C374.91 291.33 395.75 270.49 421.42 270.49C447.08 270.49 467.92 291.33 467.92 317C467.92 342.66 447.08 363.5 421.42 363.5Z" id="cV0tg5JF1"></path><path d="M102.67 363.5C77 363.5 56.16 342.66 56.16 317C56.16 291.33 77 270.49 102.67 270.49C128.33 270.49 149.17 291.33 149.17 317C149.17 342.66 128.33 363.5 102.67 363.5Z" id="b3sFd3Lrg"></path></defs><g><g><g><use xlink:href="#h2AFQTCL5L" opacity="1" fill="#003b6b" fill-opacity="1"></use><g><use xlink:href="#h2AFQTCL5L" opacity="1" fill-opacity="0" stroke="#000000" stroke-width="1" stroke-opacity="0"></use></g></g><g><use xlink:href="#gbRQMEhfs" opacity="1" fill="#000000" fill-opacity="0"></use><g><use xlink:href="#gbRQMEhfs" opacity="1" fill-opacity="0" stroke="#000000" stroke-width="1" stroke-opacity="0"></use></g></g><g><use xlink:href="#cIM3FzQfH" opacity="1" fill="#000000" fill-opacity="0"></use><g><use xlink:href="#cIM3FzQfH" opacity="1" fill-opacity="0" stroke="#000000" stroke-width="1" stroke-opacity="0"></use></g></g><g><use xlink:href="#daT0qSK1" opacity="1" fill="#000000" fill-opacity="0"></use><g><use xlink:href="#daT0qSK1" opacity="1" fill-opacity="0" stroke="#000000" stroke-width="1" stroke-opacity="0"></use></g></g><g><use xlink:href="#f11LnUlPgM" opacity="1" fill="#003b6b" fill-opacity="1"></use><g><use xlink:href="#f11LnUlPgM" opacity="1" fill-opacity="0" stroke="#000000" stroke-width="1" stroke-opacity="0"></use></g></g><g><use xlink:href="#b5mz0nIVj" opacity="1" fill="#000000" fill-opacity="0"></use><g><use xlink:href="#b5mz0nIVj" opacity="1" fill-opacity="0" stroke="#000000" stroke-width="1" stroke-opacity="0"></use></g></g><g><use xlink:href="#aEa9N5jR" opacity="1" fill="#000000" fill-opacity="0"></use><g><use xlink:href="#aEa9N5jR" opacity="1" fill-opacity="0" stroke="#000000" stroke-width="1" stroke-opacity="0"></use></g></g><g><use xlink:href="#f25wWjbVHK" opacity="1" fill="#000000" fill-opacity="0"></use><g><use xlink:href="#f25wWjbVHK" opacity="1" fill-opacity="0" stroke="#000000" stroke-width="1" stroke-opacity="0"></use></g></g><g><use xlink:href="#dXKYLQ78j" opacity="1" fill="#228ce2" fill-opacity="1"></use><g><use xlink:href="#dXKYLQ78j" opacity="1" fill-opacity="0" stroke="#000000" stroke-width="1" stroke-opacity="0"></use></g></g><g><use xlink:href="#a3sjbL845T" opacity="1" fill="#000000" fill-opacity="0"></use><g><use xlink:href="#a3sjbL845T" opacity="1" fill-opacity="0" stroke="#000000" stroke-width="1" stroke-opacity="0"></use></g></g><g><use xlink:href="#b205IpTmVF" opacity="1" fill="#000000" fill-opacity="0"></use><g><use xlink:href="#b205IpTmVF" opacity="1" fill-opacity="0" stroke="#000000" stroke-width="1" stroke-opacity="0"></use></g></g><g><use xlink:href="#fup0CjDYY" opacity="1" fill="#000000" fill-opacity="0"></use><g><use xlink:href="#fup0CjDYY" opacity="1" fill-opacity="0" stroke="#000000" stroke-width="1" stroke-opacity="0"></use></g></g><g><use xlink:href="#cV0tg5JF1" opacity="1" fill="#003b6b" fill-opacity="1"></use><g><use xlink:href="#cV0tg5JF1" opacity="1" fill-opacity="0" stroke="#000000" stroke-width="1" stroke-opacity="0"></use></g></g><g><use xlink:href="#b3sFd3Lrg" opacity="1" fill="#003b6b" fill-opacity="1"></use><g><use xlink:href="#b3sFd3Lrg" opacity="1" fill-opacity="0" stroke="#000000" stroke-width="1" stroke-opacity="0"></use></g></g></g></g></svg>