<?xml version="1.0" encoding="UTF-8" standalone="no"?>
<!DOCTYPE svg PUBLIC "-//W3C//DTD SVG 1.1//EN" "http://www.w3.org/Graphics/SVG/1.1/DTD/svg11.dtd">
<svg version="1.1" xmlns="http://www.w3.org/2000/svg" xmlns:xlink="http://www.w3.org/1999/xlink" preserveAspectRatio="xMidYMid meet" viewBox="0 0 500 363" width="500" height="500"><defs><path d="M24.29 311.71C10.88 311.65 0 300.83 0 287.42C0 261.06 0 50.71 0 24.41C0 10.94 10.88 0.06 24.29 0.06C51.94 0.06 273 0.06 300.59 0.06C314 0.06 324.88 11.53 324.88 24.94C324.88 51.18 324.88 261.12 324.88 287.36C324.82 300.77 314 311.65 300.59 311.65C288.18 311.65 188.71 311.65 176.24 311.65C169.82 311.59 157.18 307.59 154.35 293.3C148.06 270 126.35 253.36 101.71 253.36C76.47 253.36 54.06 271.24 48.47 295.89C47.12 306.53 38.29 311.71 30.24 311.71C29.94 311.71 29.65 311.71 29.35 311.65C28.82 311.65 24.82 311.71 24.29 311.71ZM17.88 287.36C17.88 290.89 20.76 293.77 24.29 293.77C24.88 293.77 29.59 293.77 30.18 293.77C30.24 293.47 30.94 292.18 31 291.89C38.41 259.18 68.18 235.47 101.71 235.47C134.53 235.47 163.24 257.53 171.76 289.18C172.65 293.53 175.76 293.77 176.41 293.77C188.82 293.77 288.18 293.77 300.59 293.77C304.06 293.77 306.94 290.89 306.94 287.42C306.94 261.12 306.94 51.18 306.94 24.94C306.94 21.47 304.12 18.59 300.59 18.59C282.18 18.59 190.06 18.59 24.29 18.59C20 20.12 17.88 22.06 17.88 24.41C17.88 50.71 17.88 261.06 17.88 287.36ZM491.47 170.71C487.18 162.71 452.82 98.77 448.59 90.77C442.94 81.83 430.24 74.83 421.76 74.83C415.35 74.83 364 74.83 357.59 74.83C349.12 74.83 342.24 81.71 342.24 90.18C342.24 109.88 342.24 267.65 342.24 287.36C342.24 295.83 349.12 302.71 357.59 302.71C357.94 302.71 360.94 302.71 361.35 302.71C361.35 302.71 366.94 302 369 295C374.82 271.89 395.59 254.65 420.47 254.65C444.88 254.65 465.24 271.18 471.53 293.53C474.12 303 484.65 302.71 484.65 302.71C493.12 302.71 500 295.83 500 287.36C500 281.89 499.82 254.24 499.59 204.59C499.24 196.36 498.65 190.24 497.88 186.24C496.94 181.12 492.75 173.81 491.47 170.71ZM372.47 172.24C372.47 166.24 372.47 118.3 372.47 112.3C372.47 105.88 377.76 100.59 384.18 100.59C386.76 100.59 407.29 100.59 409.88 100.59C424.47 100.59 434.06 112.41 437.12 118.12C440.06 123.65 463.94 168.06 466.88 173.65C469.94 179.3 467.18 183.94 460.76 183.94C445.41 183.94 391.82 183.94 384.18 183.94C377.71 183.89 372.53 178.65 372.47 172.24Z" id="b19MVcXYa3"></path><path d="M24.29 311.71C10.88 311.65 0 300.83 0 287.42C0 261.06 0 50.71 0 24.41C0 10.94 10.88 0.06 24.29 0.06C51.94 0.06 273 0.06 300.59 0.06C314 0.06 324.88 11.53 324.88 24.94C324.88 51.18 324.88 261.12 324.88 287.36C324.82 300.77 314 311.65 300.59 311.65C288.18 311.65 188.71 311.65 176.24 311.65C169.82 311.59 157.18 307.59 154.35 293.3C148.06 270 126.35 253.36 101.71 253.36C76.47 253.36 54.06 271.24 48.47 295.89C47.12 306.53 38.29 311.71 30.24 311.71C29.94 311.71 29.65 311.71 29.35 311.65C28.82 311.65 24.82 311.71 24.29 311.71ZM17.88 287.36C17.88 290.89 20.76 293.77 24.29 293.77C24.88 293.77 29.59 293.77 30.18 293.77C30.24 293.47 30.94 292.18 31 291.89C38.41 259.18 68.18 235.47 101.71 235.47C134.53 235.47 163.24 257.53 171.76 289.18C172.65 293.53 175.76 293.77 176.41 293.77C188.82 293.77 288.18 293.77 300.59 293.77C304.06 293.77 306.94 290.89 306.94 287.42C306.94 261.12 306.94 51.18 306.94 24.94C306.94 21.47 304.12 18.59 300.59 18.59C282.18 18.59 190.06 18.59 24.29 18.59C20 20.12 17.88 22.06 17.88 24.41C17.88 50.71 17.88 261.06 17.88 287.36ZM491.47 170.71C487.18 162.71 452.82 98.77 448.59 90.77C442.94 81.83 430.24 74.83 421.76 74.83C415.35 74.83 364 74.83 357.59 74.83C349.12 74.83 342.24 81.71 342.24 90.18C342.24 109.88 342.24 267.65 342.24 287.36C342.24 295.83 349.12 302.71 357.59 302.71C357.94 302.71 360.94 302.71 361.35 302.71C361.35 302.71 366.94 302 369 295C374.82 271.89 395.59 254.65 420.47 254.65C444.88 254.65 465.24 271.18 471.53 293.53C474.12 303 484.65 302.71 484.65 302.71C493.12 302.71 500 295.83 500 287.36C500 281.89 499.82 254.24 499.59 204.59C499.24 196.36 498.65 190.24 497.88 186.24C496.94 181.12 492.75 173.81 491.47 170.71ZM372.47 172.24C372.47 166.24 372.47 118.3 372.47 112.3C372.47 105.88 377.76 100.59 384.18 100.59C386.76 100.59 407.29 100.59 409.88 100.59C424.47 100.59 434.06 112.41 437.12 118.12C440.06 123.65 463.94 168.06 466.88 173.65C469.94 179.3 467.18 183.94 460.76 183.94C445.41 183.94 391.82 183.94 384.18 183.94C377.71 183.89 372.53 178.65 372.47 172.24Z" id="c6V0ySjyA"></path><path d="M13.94 304.83C13.94 308.59 16.88 311.71 20.47 311.71C21.12 311.71 25.94 311.71 26.59 311.71C26.59 311.42 27.29 310 27.35 309.71C35 274.36 65.59 248.71 100.06 248.71C133.76 248.71 163.24 272.53 172 306.77C172.94 311.42 176.12 311.71 176.76 311.71C189.53 311.71 291.59 311.71 304.35 311.71C308 311.71 310.94 308.59 310.94 304.83C310.94 276.47 310.94 49.59 310.94 21.24C310.94 17.41 308 14.3 304.35 14.3C285.47 14.3 190.82 14.3 20.47 14.3C16.12 15.94 13.94 18.06 13.94 20.59C13.94 49 13.94 276.36 13.94 304.83Z" id="bx4eOK7Gz"></path><path d="M13.94 304.83C13.94 308.59 16.88 311.71 20.47 311.71C21.12 311.71 25.94 311.71 26.59 311.71C26.59 311.42 27.29 310 27.35 309.71C35 274.36 65.59 248.71 100.06 248.71C133.76 248.71 163.24 272.53 172 306.77C172.94 311.42 176.12 311.71 176.76 311.71C189.53 311.71 291.59 311.71 304.35 311.71C308 311.71 310.94 308.59 310.94 304.83C310.94 276.47 310.94 49.59 310.94 21.24C310.94 17.41 308 14.3 304.35 14.3C285.47 14.3 190.82 14.3 20.47 14.3C16.12 15.94 13.94 18.06 13.94 20.59C13.94 49 13.94 276.36 13.94 304.83Z" id="a16R8sM9Lp"></path><path d="M117.76 170.36L117.94 171.12L118.24 171.83L118.59 172.53L118.94 173.18L119.41 173.83L119.94 174.41L120.53 174.94L121.12 175.47L121.82 175.89L122.53 176.3L123.29 176.65L124.06 176.94L124.88 177.18L125.71 177.36L126.59 177.47L127.53 177.47L128.41 177.47L129.29 177.36L130.12 177.18L130.94 176.94L131.76 176.65L132.53 176.3L133.24 175.89L133.88 175.47L134.53 174.94L135.12 174.41L135.59 173.83L136.06 173.18L136.47 172.53L136.82 171.83L137.06 171.12L137.29 170.36L137.41 169.59L137.41 168.77L137.41 158.18L187.41 158.18L187.41 168.77L187.18 173.59L186.47 178.24L185.29 182.77L183.65 187.12L181.65 191.36L179.24 195.36L176.47 199.12L173.29 202.71L169.88 206L166.12 209.06L162.06 211.77L157.71 214.24L153.18 216.36L148.41 218.12L143.41 219.53L138.29 220.59L132.94 221.24L127.53 221.42L122.06 221.24L116.76 220.59L111.59 219.53L106.65 218.12L101.88 216.36L97.29 214.24L93 211.77L88.94 209.06L85.18 206L81.71 202.71L78.59 199.12L75.82 195.36L73.41 191.36L71.35 187.12L69.76 182.77L68.59 178.24L67.82 173.59L67.59 168.77L67.59 54.77L117.59 54.77L117.59 168.77L117.65 169.59L117.76 170.36ZM213.24 56.65L218.24 58.06L223 59.88L227.53 62L231.88 64.41L235.88 67.18L239.65 70.24L243.12 73.53L246.29 77.12L249.06 80.88L251.47 84.88L253.47 89.06L255.12 93.47L256.29 98L257 102.65L257.24 107.41L257.24 221.42L207.24 221.42L207.24 107.41L207.18 106.65L207.06 105.88L206.88 105.12L206.65 104.41L206.29 103.71L205.88 103.06L205.41 102.41L204.88 101.83L204.35 101.3L203.71 100.77L203.06 100.3L202.35 99.94L201.59 99.59L200.76 99.3L199.94 99.06L199.12 98.88L198.24 98.77L197.35 98.71L196.41 98.77L195.53 98.88L194.71 99.06L193.88 99.3L193.12 99.59L192.35 99.94L191.65 100.3L190.94 100.77L190.35 101.3L189.76 101.83L189.24 102.41L188.76 103.06L188.35 103.71L188.06 104.41L187.76 105.12L187.59 105.88L187.47 106.65L187.41 107.41L187.41 118.06L137.41 118.06L137.41 107.41L137.65 102.65L138.41 98L139.59 93.47L141.18 89.06L143.18 84.88L145.59 80.88L148.41 77.12L151.53 73.53L155 70.24L158.76 67.18L162.82 64.41L167.12 62L171.65 59.88L176.47 58.06L181.41 56.65L186.59 55.65L191.88 55L197.35 54.77L202.76 55L208.06 55.65L213.24 56.65ZM128.71 127.83L196.12 127.83L196.12 148.41L128.71 148.41L128.71 127.83Z" id="a5EAkOYep"></path><path d="M117.76 170.36L117.94 171.12L118.24 171.83L118.59 172.53L118.94 173.18L119.41 173.83L119.94 174.41L120.53 174.94L121.12 175.47L121.82 175.89L122.53 176.3L123.29 176.65L124.06 176.94L124.88 177.18L125.71 177.36L126.59 177.47L127.53 177.47L128.41 177.47L129.29 177.36L130.12 177.18L130.94 176.94L131.76 176.65L132.53 176.3L133.24 175.89L133.88 175.47L134.53 174.94L135.12 174.41L135.59 173.83L136.06 173.18L136.47 172.53L136.82 171.83L137.06 171.12L137.29 170.36L137.41 169.59L137.41 168.77L137.41 158.18L187.41 158.18L187.41 168.77L187.18 173.59L186.47 178.24L185.29 182.77L183.65 187.12L181.65 191.36L179.24 195.36L176.47 199.12L173.29 202.71L169.88 206L166.12 209.06L162.06 211.77L157.71 214.24L153.18 216.36L148.41 218.12L143.41 219.53L138.29 220.59L132.94 221.24L127.53 221.42L122.06 221.24L116.76 220.59L111.59 219.53L106.65 218.12L101.88 216.36L97.29 214.24L93 211.77L88.94 209.06L85.18 206L81.71 202.71L78.59 199.12L75.82 195.36L73.41 191.36L71.35 187.12L69.76 182.77L68.59 178.24L67.82 173.59L67.59 168.77L67.59 54.77L117.59 54.77L117.59 168.77L117.65 169.59L117.76 170.36ZM213.24 56.65L218.24 58.06L223 59.88L227.53 62L231.88 64.41L235.88 67.18L239.65 70.24L243.12 73.53L246.29 77.12L249.06 80.88L251.47 84.88L253.47 89.06L255.12 93.47L256.29 98L257 102.65L257.24 107.41L257.24 221.42L207.24 221.42L207.24 107.41L207.18 106.65L207.06 105.88L206.88 105.12L206.65 104.41L206.29 103.71L205.88 103.06L205.41 102.41L204.88 101.83L204.35 101.3L203.71 100.77L203.06 100.3L202.35 99.94L201.59 99.59L200.76 99.3L199.94 99.06L199.12 98.88L198.24 98.77L197.35 98.71L196.41 98.77L195.53 98.88L194.71 99.06L193.88 99.3L193.12 99.59L192.35 99.94L191.65 100.3L190.94 100.77L190.35 101.3L189.76 101.83L189.24 102.41L188.76 103.06L188.35 103.71L188.06 104.41L187.76 105.12L187.59 105.88L187.47 106.65L187.41 107.41L187.41 118.06L137.41 118.06L137.41 107.41L137.65 102.65L138.41 98L139.59 93.47L141.18 89.06L143.18 84.88L145.59 80.88L148.41 77.12L151.53 73.53L155 70.24L158.76 67.18L162.82 64.41L167.12 62L171.65 59.88L176.47 58.06L181.41 56.65L186.59 55.65L191.88 55L197.35 54.77L202.76 55L208.06 55.65L213.24 56.65ZM128.71 127.83L196.12 127.83L196.12 148.41L128.71 148.41L128.71 127.83Z" id="e1lkZyrH7o"></path><path d="M467.92 316.5C467.92 342.16 447.08 363 421.42 363C395.75 363 374.91 342.16 374.91 316.5C374.91 290.83 395.75 269.99 421.42 269.99C447.08 269.99 467.92 290.83 467.92 316.5Z" id="a4TOm7w7xD"></path><path d="M149.17 316.5C149.17 342.16 128.33 363 102.67 363C77 363 56.16 342.16 56.16 316.5C56.16 290.83 77 269.99 102.67 269.99C128.33 269.99 149.17 290.83 149.17 316.5Z" id="b133gKkORH"></path></defs><g><g><g><use xlink:href="#b19MVcXYa3" opacity="1" fill="#003b6b" fill-opacity="1"></use><g><use xlink:href="#b19MVcXYa3" opacity="1" fill-opacity="0" stroke="#000000" stroke-width="1" stroke-opacity="0"></use></g></g><g><use xlink:href="#c6V0ySjyA" opacity="1" fill="#000000" fill-opacity="0"></use><g><use xlink:href="#c6V0ySjyA" opacity="1" fill-opacity="0" stroke="#000000" stroke-width="1" stroke-opacity="0"></use></g></g><g><use xlink:href="#bx4eOK7Gz" opacity="1" fill="#003b6b" fill-opacity="1"></use><g><use xlink:href="#bx4eOK7Gz" opacity="1" fill-opacity="0" stroke="#000000" stroke-width="1" stroke-opacity="0"></use></g></g><g><use xlink:href="#a16R8sM9Lp" opacity="1" fill="#000000" fill-opacity="0"></use><g><use xlink:href="#a16R8sM9Lp" opacity="1" fill-opacity="0" stroke="#000000" stroke-width="1" stroke-opacity="0"></use></g></g><g><use xlink:href="#a5EAkOYep" opacity="1" fill="#228ce2" fill-opacity="1"></use><g><use xlink:href="#a5EAkOYep" opacity="1" fill-opacity="0" stroke="#000000" stroke-width="1" stroke-opacity="0"></use></g></g><g><use xlink:href="#e1lkZyrH7o" opacity="1" fill="#000000" fill-opacity="0"></use><g><use xlink:href="#e1lkZyrH7o" opacity="1" fill-opacity="0" stroke="#000000" stroke-width="1" stroke-opacity="0"></use></g></g><g><use xlink:href="#a4TOm7w7xD" opacity="1" fill="#003b6b" fill-opacity="1"></use></g><g><use xlink:href="#b133gKkORH" opacity="1" fill="#003b6b" fill-opacity="1"></use></g></g></g></svg>
