<?xml version="1.0"?>
<svg xmlns="http://www.w3.org/2000/svg" xmlns:xlink="http://www.w3.org/1999/xlink" width="512" height="512" viewBox="0 0 128 128"><defs><linearGradient id="a" x1="113.653" y1="132.209" x2="14.347" y2="32.904" gradientUnits="userSpaceOnUse"><stop offset="0" stop-color="#ff6e6e"/><stop offset="1" stop-color="#ffca28"/></linearGradient></defs><path d="M60.937,105.4v4.5a1.75,1.75,0,0,1-3.5,0v-4.5a1.75,1.75,0,0,1,3.5,0Zm41.419-12.409v26.952h4.4a1.75,1.75,0,0,1,0,3.5H6.307a1.75,1.75,0,0,1,0-3.5H25.644V92.991a9.677,9.677,0,0,1-1.12.071,9.8,9.8,0,0,1-9.783-9.784v-.094A9.788,9.788,0,0,1,7.87,68.12,9.776,9.776,0,0,1,8.886,52.667a9.772,9.772,0,0,1,4.783-11.961,9.571,9.571,0,0,1-.146-1.663,9.8,9.8,0,0,1,8-9.621,9.783,9.783,0,0,1,19.553,0,9.507,9.507,0,0,1,1.65.475l0,0a11.506,11.506,0,0,1-.229-2.278,11.667,11.667,0,0,1,9.851-11.51,11.648,11.648,0,0,1,23.3.013,11.659,11.659,0,0,1,9.851,11.5A11.506,11.506,0,0,1,85.27,29.9l0,0a9.662,9.662,0,0,1,1.65-.479,9.783,9.783,0,0,1,19.554.013,9.792,9.792,0,0,1,8,9.61,9.571,9.571,0,0,1-.146,1.663,9.772,9.772,0,0,1,4.783,11.961A9.776,9.776,0,0,1,120.13,68.12a9.788,9.788,0,0,1-6.871,15.064v.094a9.8,9.8,0,0,1-9.783,9.784A9.677,9.677,0,0,1,102.356,92.991ZM89.024,32.735a11.655,11.655,0,0,1,2.1,11.836,11.639,11.639,0,0,1,1.2,18.806A11.651,11.651,0,0,1,83.987,81.65c.007.16.011.318.011.476a11.656,11.656,0,0,1-.232,2.311,6.265,6.265,0,0,0,11.457,2.2,1.751,1.751,0,0,1,2.953,0,6.278,6.278,0,0,0,11.583-3.364,6.385,6.385,0,0,0-.163-1.4,1.749,1.749,0,0,1,1.845-2.132c.167.014.335.027.506.027a6.281,6.281,0,0,0,4.423-10.744,1.75,1.75,0,0,1,.371-2.767,6.279,6.279,0,0,0-.585-11.237,1.749,1.749,0,0,1-.821-2.477,6.272,6.272,0,0,0-3.6-9.126,1.751,1.751,0,0,1-1.132-2.264,6.264,6.264,0,0,0-5.91-8.4,1.817,1.817,0,0,1-1.361-.61,1.767,1.767,0,0,1-.434-1.4,6.136,6.136,0,0,0,.084-.966,6.283,6.283,0,1,0-12.566,0,6.136,6.136,0,0,0,.084.966,1.751,1.751,0,0,1-.4,1.406A1.819,1.819,0,0,1,89.024,32.735ZM70.563,93.623v26.32h20.48V92.991a9.659,9.659,0,0,1-1.119.071,9.828,9.828,0,0,1-8.053-4.248,11.483,11.483,0,0,1-11.308,4.809Zm-25.21-61A8.135,8.135,0,0,0,40.685,44.46a1.751,1.751,0,0,1-.822,2.478A8.143,8.143,0,0,0,39.1,61.51a1.751,1.751,0,0,1,.372,2.767,8.145,8.145,0,0,0,5.734,13.934c.223,0,.44-.017.658-.034a1.75,1.75,0,0,1,1.845,2.134,8.139,8.139,0,0,0,14.809,6.178,1.75,1.75,0,0,1,2.954,0,8.135,8.135,0,0,0,14.809-6.178,1.75,1.75,0,0,1,1.845-2.134c.218.017.435.034.658.034a8.146,8.146,0,0,0,5.734-13.934A1.751,1.751,0,0,1,88.9,61.51a8.143,8.143,0,0,0-.758-14.572,1.751,1.751,0,0,1-.822-2.478,8.135,8.135,0,0,0-4.668-11.835,1.752,1.752,0,0,1-1.132-2.263,8.128,8.128,0,0,0-7.664-10.891,1.835,1.835,0,0,1-1.37-.61,1.772,1.772,0,0,1-.441-1.405,8.02,8.02,0,0,0,.108-1.251,8.148,8.148,0,1,0-16.3,0,8.02,8.02,0,0,0,.108,1.251,1.753,1.753,0,0,1-.4,1.407,1.843,1.843,0,0,1-1.5.605,8.131,8.131,0,0,0-7.578,10.894,1.752,1.752,0,0,1-1.132,2.263ZM24.524,89.562a6.257,6.257,0,0,0,5.3-2.92,1.751,1.751,0,0,1,2.953,0,6.265,6.265,0,0,0,11.457-2.2A11.656,11.656,0,0,1,44,82.126c0-.158,0-.316.011-.476a11.65,11.65,0,0,1-8.342-18.273,11.639,11.639,0,0,1,1.2-18.806,11.653,11.653,0,0,1,2.111-11.844,1.788,1.788,0,0,1-1.05-.577,1.767,1.767,0,0,1-.434-1.4,6.136,6.136,0,0,0,.084-.966,6.283,6.283,0,0,0-12.566,0,6.136,6.136,0,0,0,.084.966,1.751,1.751,0,0,1-.4,1.406,1.834,1.834,0,0,1-1.48.606,6.267,6.267,0,0,0-5.824,8.4,1.751,1.751,0,0,1-1.132,2.264,6.272,6.272,0,0,0-3.6,9.126,1.749,1.749,0,0,1-.821,2.477,6.279,6.279,0,0,0-.585,11.237,1.75,1.75,0,0,1,.371,2.767,6.281,6.281,0,0,0,4.423,10.744c.171,0,.339-.013.506-.027A1.749,1.749,0,0,1,18.4,81.876a6.385,6.385,0,0,0-.163,1.4A6.291,6.291,0,0,0,24.524,89.562Zm8.933,30.381V91.9A9.693,9.693,0,0,1,31.3,90.331,9.745,9.745,0,0,1,29.144,91.9v28.044Zm33.606,0V92.5A11.61,11.61,0,0,1,64,90.241,11.61,11.61,0,0,1,60.937,92.5v4.248a1.75,1.75,0,0,1-3.5,0V93.623a11.483,11.483,0,0,1-11.308-4.809,9.828,9.828,0,0,1-8.053,4.248,9.659,9.659,0,0,1-1.119-.071v26.952h20.48v-1.806a1.75,1.75,0,0,1,3.5,0v1.806ZM98.856,91.9A9.745,9.745,0,0,1,96.7,90.331,9.693,9.693,0,0,1,94.543,91.9v28.044h4.313Zm22.837,28.044h-7.262a1.75,1.75,0,0,0,0,3.5h7.262a1.75,1.75,0,0,0,0-3.5ZM72.05,33.15a1.75,1.75,0,0,0,1.129,2.2,1.73,1.73,0,0,0,.537.085,1.752,1.752,0,0,0,1.666-1.214,5.408,5.408,0,0,0-1.613-5.989,1.75,1.75,0,0,0-2.393,2.555A1.966,1.966,0,0,1,72.05,33.15Zm3.391,38.221h-.007a1.75,1.75,0,0,0-1.743,1.757c.008,1.755-.17,1.946-1.024,2.862a1.75,1.75,0,0,0,2.561,2.386c1.459-1.565,1.975-2.6,1.963-5.263A1.75,1.75,0,0,0,75.441,71.371Zm-.023-32.288a1.75,1.75,0,0,0,.468,2.43c.025.017,2.494,1.752,2.743,4.205a6.975,6.975,0,0,1-1.9,5.385,1.751,1.751,0,0,0,2.4,2.548,10.56,10.56,0,0,0,2.977-8.286c-.417-4.1-4.106-6.644-4.262-6.75A1.75,1.75,0,0,0,75.418,39.083Z" fill="url(#a)"/></svg>
