<svg id="Layer_1" height="512" viewBox="0 0 128 128" width="512" xmlns="http://www.w3.org/2000/svg" xmlns:xlink="http://www.w3.org/1999/xlink" data-name="Layer 1"><linearGradient id="linear-gradient" gradientUnits="userSpaceOnUse" x1="109.633" x2="15.618" y1="115.035" y2="21.02"><stop offset="0" stop-color="#fb6255"/><stop offset="1" stop-color="#fa983c"/></linearGradient><path d="m116.487 103.957h-9.387a8.4 8.4 0 0 0 1.429-6.882h2.182a5.6 5.6 0 0 0 0-11.207h-66.43l-.749-3h60.913a1.749 1.749 0 0 0 1.7-1.325l12.039-48.043a1.749 1.749 0 0 0 -1.7-2.175h-78.2a1.75 1.75 0 1 0 0 3.5h7.216l2.148 9.075h-13.838l-4-16.041a5.594 5.594 0 0 0 -5.437-4.247h-9.033a5.6 5.6 0 0 0 0 11.207h4.654l14.474 58.009a5.594 5.594 0 0 0 5.432 4.247h3.282a8.4 8.4 0 0 0 1.429 6.882h-24.249a1.75 1.75 0 1 0 0 3.5h96.125a1.75 1.75 0 0 0 0-3.5zm-21.26-5.007a5.006 5.006 0 1 1 5.006 5.006 5.012 5.012 0 0 1 -5.006-5.006zm-.189-51.55-1.938 8.214h-12.946a1.75 1.75 0 0 0 0 3.5h12.119l-1.939 8.211h-15.483l-.182-9.958v-.007l-.183-9.96zm-20.616-3.5-.166-9.082h23.753l-2.144 9.082zm34.61 11.711h-6.546a1.75 1.75 0 0 0 0 3.5h5.669l-2.055 8.214h-12.17l2.17-9.186a1.731 1.731 0 0 0 .189-.775v-.017l2.345-9.947h12.456zm-33.961 23.755-.156-8.542h14.592l-2.017 8.542zm-15.453 0-2.018-8.541h13.814l.156 8.542zm11.518-23.752h-17.127l-1.939-8.214h18.916zm.064 3.5.15 8.211h-14.575l-1.939-8.211zm-18.022 8.211h-13.524l-2.049-8.211h13.634zm-12.651 3.5h13.473l2.017 8.542h-13.358zm62.552 8.542h-11.992l2.013-8.542h12.12zm8.889-35.467h-12.507l2.144-9.082h12.639zm-62.868-9.079h21.656l.166 9.082h-19.678zm-.626 12.579 1.939 8.211h-13.681l-2.049-8.211zm-8.574 46.175a2.1 2.1 0 0 1 -2.041-1.594l-14.8-59.333a1.75 1.75 0 0 0 -1.7-1.326h-6.019a2.1 2.1 0 0 1 0-4.207h9.031a2.1 2.1 0 0 1 2.041 1.594l14.8 59.333a1.75 1.75 0 0 0 1.7 1.326h67.793a2.1 2.1 0 0 1 0 4.207h-3.888a8.492 8.492 0 0 0 -13.171 0h-28.659a1.75 1.75 0 1 0 0 3.5h26.956a8.4 8.4 0 0 0 1.429 6.882h-35.033a8.5 8.5 0 0 0 -13.448-10.382zm6.57 5.375a5.006 5.006 0 1 1 5.006 5.006 5.012 5.012 0 0 1 -5.006-5.006zm-31.859 6.756a1.75 1.75 0 0 1 -1.75 1.75h-1.374a1.75 1.75 0 0 1 0-3.5h1.375a1.75 1.75 0 0 1 1.75 1.751z" fill="url(#linear-gradient)"/></svg>