<svg height="512" viewBox="0 0 128 128" width="512" xmlns="http://www.w3.org/2000/svg" xmlns:xlink="http://www.w3.org/1999/xlink"><linearGradient id="a" gradientUnits="userSpaceOnUse" x1="106.274" x2="21.726" y1="101.957" y2="17.408"><stop offset="0" stop-color="#ff6e6e"/><stop offset="1" stop-color="#ffca28"/></linearGradient><path d="m123.443 66.034a1.749 1.749 0 0 0 -1.75-1.75h-5.28v-5.144a48.07 48.07 0 0 0 -18.282-37.84 1.75 1.75 0 0 0 -2.459.282c-.031.04-.052.084-.079.125a1.789 1.789 0 0 0 -.151.278c-.007.016-.012.032-.019.048a1.72 1.72 0 0 0 -.08.259c-.008.035-.013.071-.019.107a1.915 1.915 0 0 0 -.022.214c0 .023-.007.046-.007.07v4.9a1.75 1.75 0 0 0 3.5 0v-1.066a44.533 44.533 0 0 1 14.118 32.623v5.144h-97.826v-5.144a44.533 44.533 0 0 1 14.121-32.623v23.171a6.27 6.27 0 0 0 6.263 6.263h3.585a6.27 6.27 0 0 0 6.262-6.263v-32.915a44.606 44.606 0 0 1 10.626-2.256v35.171a6.271 6.271 0 0 0 6.264 6.263h3.584a6.271 6.271 0 0 0 6.264-6.263v-35.171a44.606 44.606 0 0 1 10.626 2.256v32.915a6.27 6.27 0 0 0 6.262 6.263h3.585a6.27 6.27 0 0 0 6.263-6.263v-13.86a1.75 1.75 0 0 0 -3.5 0v13.86a2.766 2.766 0 0 1 -2.763 2.763h-3.585a2.766 2.766 0 0 1 -2.762-2.763v-37.288h9.11v2.035a1.75 1.75 0 1 0 3.5 0v-3.785a1.75 1.75 0 0 0 -1.75-1.75h-12.61a1.75 1.75 0 0 0 -1.75 1.75v2.439a48.015 48.015 0 0 0 -10.626-2.082v-4.7a1.75 1.75 0 0 0 -1.75-1.75h-12.612a1.75 1.75 0 0 0 -1.75 1.75v4.7a48.015 48.015 0 0 0 -10.626 2.082v-2.439a1.75 1.75 0 0 0 -1.75-1.75h-12.61a1.75 1.75 0 0 0 -1.75 1.75v11.207a48.049 48.049 0 0 0 -17.621 37.283v5.144h-5.28a1.749 1.749 0 0 0 -1.75 1.75v9.079.121s0 .094 0 .141c0 .855 0 2.764 7.588 5.06a44.516 44.516 0 0 0 36.091 36.755v.217a6.043 6.043 0 0 0 6.037 6.036h19.454a6.043 6.043 0 0 0 6.037-6.036v-.217a44.518 44.518 0 0 0 36.091-36.755c7.583-2.3 7.588-4.2 7.588-5.06 0-.046 0-.092 0-.138s0-.082 0-.124zm-64-57.977h9.112v41.631a2.767 2.767 0 0 1 -2.764 2.763h-3.583a2.767 2.767 0 0 1 -2.764-2.763zm-26.735 4.343h9.11v37.288a2.766 2.766 0 0 1 -2.762 2.763h-3.585a2.766 2.766 0 0 1 -2.763-2.763zm47.056 101.231v-.379a1.751 1.751 0 0 0 -1.75-1.75h-19.914a1.75 1.75 0 1 0 0 3.5h18.164v2.405a2.539 2.539 0 0 1 -2.537 2.536h-19.454a2.539 2.539 0 0 1 -2.537-2.536v-4.155a1.75 1.75 0 1 0 -3.5 0v.379a41.02 41.02 0 0 1 -32.358-32.192c1.976.477 4.288.966 7.014 1.461a235.053 235.053 0 0 0 41.108 3.422 235.053 235.053 0 0 0 41.108-3.422c2.726-.5 5.038-.984 7.014-1.461a41.02 41.02 0 0 1 -32.358 32.192zm40.179-38.992a1.77 1.77 0 0 0 -.064.408c-.77.633-2.773 1.434-5.811 2.281a1.748 1.748 0 0 0 -.431.116c-9.264 2.516-27.5 5.378-49.637 5.378s-40.364-2.86-49.63-5.376a1.773 1.773 0 0 0 -.437-.118c-3.058-.852-5.068-1.659-5.827-2.293a1.88 1.88 0 0 0 -.049-.3v-6.951h111.886z" fill="url(#a)"/></svg>
