<svg id="Layer_1" height="512" viewBox="0 0 128 128" width="512" xmlns="http://www.w3.org/2000/svg" xmlns:xlink="http://www.w3.org/1999/xlink" data-name="Layer 1"><linearGradient id="linear-gradient" gradientUnits="userSpaceOnUse" x1="110.383" x2="20.758" y1="114.116" y2="24.491"><stop offset="0" stop-color="#fb6255"/><stop offset="1" stop-color="#fa983c"/></linearGradient><path d="m32.82 62.621a1.75 1.75 0 1 1 0 3.5h-1.072a1.75 1.75 0 1 1 0-3.5zm85.417-7.25v9a1.75 1.75 0 0 1 -1.75 1.75h-76.5a1.75 1.75 0 0 1 0-3.5h74.75v-5.5h-101.5v5.5h11.646a1.75 1.75 0 1 1 0 3.5h-6.813v42.5h91.83v-35.866a1.75 1.75 0 0 1 3.5 0v37.615a1.75 1.75 0 0 1 -1.75 1.75h-95.33a1.75 1.75 0 0 1 -1.75-1.75v-44.249h-3.083a1.75 1.75 0 0 1 -1.75-1.75v-9a1.75 1.75 0 0 1 1.75-1.75h8.762v-6.5a13.5 13.5 0 0 1 7.331-11.994 10.615 10.615 0 1 1 12.339 0 13.5 13.5 0 0 1 7.331 11.994 1.75 1.75 0 0 1 -3.5 0 10 10 0 0 0 -20 0v6.5h52.31v-4.167h-15.419a1.75 1.75 0 0 1 -1.75-1.75v-28.313a1.75 1.75 0 0 1 1.75-1.75h45.333a1.75 1.75 0 0 1 1.75 1.75v28.309a1.75 1.75 0 0 1 -1.75 1.75h-9.988a1.75 1.75 0 0 1 0-3.5h8.239v-24.809h-41.834v24.813h13.667v-4.412a1.75 1.75 0 0 1 1.75-1.75h11a1.75 1.75 0 0 1 1.75 1.75v12.079h25.929a1.75 1.75 0 0 1 1.75 1.75zm-84.489-21.75a7.115 7.115 0 1 0 -7.115-7.115 7.123 7.123 0 0 0 7.115 7.115zm45.81 12.333h7.5v-2.662h-7.5zm7.5 7.667v-4.167h-7.5v4.167z" fill="url(#linear-gradient)"/></svg>