<svg id="Layer_1" height="512" viewBox="0 0 128 128" width="512" xmlns="http://www.w3.org/2000/svg" xmlns:xlink="http://www.w3.org/1999/xlink" data-name="Layer 1"><linearGradient id="linear-gradient" gradientUnits="userSpaceOnUse" x1="106.991" x2="10.249" y1="110.199" y2="13.457"><stop offset="0" stop-color="#fb6255"/><stop offset="1" stop-color="#fa983c"/></linearGradient><path d="m75.987 100.42a1.75 1.75 0 0 1 -1.75 1.75h-.917a1.75 1.75 0 1 1 0-3.5h.917a1.75 1.75 0 0 1 1.75 1.75zm42.25-26.12c0 38.409-20.014 40.678-20.865 40.756-.053 0-.106.007-.159.007s-.106 0-.159-.007c-.852-.078-20.865-2.347-20.865-40.756a1.75 1.75 0 0 1 1.75-1.75h17.523v-56.105h-50.353v23.183l8.147-6.518a1.749 1.749 0 0 1 2.187 0l8.147 6.518v-10.646a1.75 1.75 0 0 1 3.5 0v14.288a1.75 1.75 0 0 1 -2.843 1.366l-9.9-7.918-9.9 7.918a1.75 1.75 0 0 1 -2.843-1.366v-26.825h-28.367v82.225h53.663a1.75 1.75 0 1 1 0 3.5h-55.413a1.75 1.75 0 0 1 -1.75-1.75v-85.725a1.75 1.75 0 0 1 1.75-1.75h85.725a1.75 1.75 0 0 1 1.75 1.75v57.858h17.524a1.75 1.75 0 0 1 1.751 1.747zm-3.515 1.75h-35.022c.533 31.917 15.623 35.213 17.512 35.5 1.848-.276 16.976-3.539 17.51-35.497zm-24.111 15.277a1.75 1.75 0 0 0 -2.164 2.75l5.92 4.657a1.749 1.749 0 0 0 2.374-.2l11.34-12.421a1.75 1.75 0 1 0 -2.584-2.359l-10.245 11.224z" fill="url(#linear-gradient)"/></svg>