<svg id="Layer_1" height="512" viewBox="0 0 128 128" width="512" xmlns="http://www.w3.org/2000/svg" xmlns:xlink="http://www.w3.org/1999/xlink" data-name="Layer 1"><linearGradient id="linear-gradient" gradientUnits="userSpaceOnUse" x1="110.77" x2="17.203" y1="110.789" y2="17.221"><stop offset="0" stop-color="#fb6255"/><stop offset="1" stop-color="#fa983c"/></linearGradient><path d="m116.487 23.663h-105a1.75 1.75 0 0 0 -1.75 1.75v77.187a1.75 1.75 0 0 0 1.75 1.75h105a1.75 1.75 0 0 0 1.75-1.75v-77.187a1.75 1.75 0 0 0 -1.75-1.75zm-103.25 77.185v-73.685h101.5v11.713h-94.625a1.75 1.75 0 0 0 0 3.5h94.625v58.472zm10.5-67.843a3.625 3.625 0 1 0 -3.625 3.625 3.629 3.629 0 0 0 3.625-3.625zm8.722 3.625a3.625 3.625 0 1 0 -3.625-3.625 3.629 3.629 0 0 0 3.624 3.625zm12.347 0a3.625 3.625 0 1 0 -3.625-3.625 3.629 3.629 0 0 0 3.619 3.625zm-21.358 38.02h23.645a1.75 1.75 0 0 0 1.75-1.75v-23.645a1.75 1.75 0 0 0 -1.75-1.75h-23.645a1.75 1.75 0 0 0 -1.75 1.75v23.645a1.75 1.75 0 0 0 1.75 1.75zm13.1-23.645v2.495l-.187-.15a1.75 1.75 0 0 0 -2.187 0l-.187.15v-2.49zm-11.354 0h5.291v6.132a1.75 1.75 0 0 0 2.848 1.363l1.938-1.551 1.937 1.551a1.75 1.75 0 0 0 2.844-1.366v-6.129h5.291v20.145h-20.143zm81.076 2.823a1.75 1.75 0 0 1 -1.75 1.75h-48.912a1.75 1.75 0 0 1 0-3.5h48.917a1.75 1.75 0 0 1 1.75 1.751zm0 13.2a1.75 1.75 0 0 1 -1.75 1.75h-48.912a1.75 1.75 0 1 1 0-3.5h48.917a1.75 1.75 0 0 1 1.75 1.752zm0 13.2a1.75 1.75 0 0 1 -1.75 1.75h-81.072a1.75 1.75 0 0 1 0-3.5h81.076a1.75 1.75 0 0 1 1.751 1.754zm0 13.2a1.75 1.75 0 0 1 -1.75 1.75h-27.7a1.75 1.75 0 0 1 0-3.5h27.705a1.75 1.75 0 0 1 1.75 1.755zm-35.538 0a1.75 1.75 0 0 1 -1.75 1.75h-.833a1.75 1.75 0 0 1 0-3.5h.833a1.75 1.75 0 0 1 1.755 1.755zm-8.667 0a1.75 1.75 0 0 1 -1.75 1.75h-36.867a1.75 1.75 0 0 1 0-3.5h36.872a1.75 1.75 0 0 1 1.75 1.755z" fill="url(#linear-gradient)"/></svg>